<?xml version="1.0" standalone="no"?>
<!DOCTYPE svg PUBLIC "-//W3C//DTD SVG 1.1//EN" "http://www.w3.org/Graphics/SVG/1.1/DTD/svg11.dtd" >
<svg xmlns="http://www.w3.org/2000/svg">
<metadata>
Created by FontPrep 20130207 at Wed May 13 16:08:16 2015
 By Pon Kattera
(c) 1989, 1990, 1991, 1992, 2002 Adobe Systems Incorporated. All rights reserved.
</metadata>
<defs>
<font id="6e2a0abc0c74de005ad124b7a5cb8faa" horiz-adv-x='1024' >
  <font-face 
    font-family="UtopiaStd-DispIt"
    font-weight="400"
    font-style="italic"
    font-stretch="normal"
    units-per-em="2048"
    panose-1="2 4 5 3 6 5 6 9 2 4"
    ascent="1491"
    descent="-557"
    x-height="954"
    cap-height="1352"
    bbox="-379 -518 2091 1725.29"
    underline-thickness="102"
    underline-position="-102"
    slope="-13"
    unicode-range="U+0020-FB04"
  />
<missing-glyph horiz-adv-x="1241" 
d="M319 1239v-1044l349 522zM381 102h696l-348 523zM791 717l348 -522v1044zM729 809l348 522h-696zM217 0v1434h1024v-1434h-1024z" />
    <glyph glyph-name="T_h" unicode="Th" horiz-adv-x="2050" 
d="M1817 971q205 0 125 -281l-160 -526q-29 -106 20 -107q35 0 85 67t87 138l31 -18q-53 -119 -129 -195t-164 -76q-141 0 -84 211l162 570q16 57 1 94t-60 37q-115 0 -238 -150t-173 -278t-140 -457l-158 -23l291 1311q-66 16 -299 17h-140l-260 -1168q-10 -45 0 -65
t48 -23l143 -12l-10 -37h-584l10 37l125 10q76 8 92 90l267 1168h-144q-115 0 -175 -24t-91 -70t-78 -160h-37l70 301h1081l27 123l164 12l6 -4l-230 -946h5q98 184 239 309t275 125z" />
    <glyph glyph-name="f_f" unicode="ff" horiz-adv-x="1087" 
d="M469 944h403q82 270 95 295q-33 190 -199 191q-133 0 -209 -185q-35 -83 -90 -301zM-137 -516q-74 0 -120 33t-46 71t32 69q31 32 63 32t52 -43q57 -100 119 -101q51 0 98 244q23 113 111 527t119 573h-170l18 55h164l16 74q41 170 155 310t306 140q191 0 267 -104
q102 123 253 123q78 0 117 -34t39 -72q0 -37 -28 -61t-60 -24t-47 31q-8 15 -17 35q-11 23 -25 51q-15 27 -50 27q-74 0 -146 -320l-41 -176h226l-15 -55h-219l-166 -768q-127 -598 -415 -598q-76 0 -121 32q-45 31 -45 69t28 64q29 26 60 26t51 -33q57 -100 113 -101
q25 0 52 67q28 67 49 176t105 505t117 561h-401l-168 -799q-70 -324 -173 -465t-257 -141z" />
    <glyph glyph-name="f_f_i" unicode="ffi" horiz-adv-x="1671" 
d="M469 944h403q82 268 93 291q-13 82 -63 138t-136 57q-162 0 -245 -286q-33 -112 -52 -200zM1376 1487q147 0 218 -66t71 -147q0 -45 -29 -67q-28 -21 -62 -21q-62 1 -65 53q0 211 -168 211q-102 0 -165 -102t-109 -304l-23 -100h211q150 0 363 23l6 -6l-215 -795
q-29 -109 18 -109q86 0 189 203l31 -22q-115 -262 -295 -263q-76 -1 -100 53t-1 138l168 635q16 49 5 68t-70 20h-320q-31 -139 -91 -418t-75 -344q-131 -604 -415 -604q-76 0 -121 32q-45 31 -45 69t28 64q65 58 113 -14q59 -94 111 -94q25 0 52 67q28 67 49 176t105 505
t117 561h-401q-84 -413 -162 -767t-181 -496t-255 -142q-74 0 -120 33t-46 71t32 69q31 32 63 32t52 -43q57 -100 119 -101q49 0 98 246q16 76 107 500q90 424 125 598h-172l18 55h164l19 74q36 169 142 302q54 68 138 108t186 40q183 1 265 -112q127 131 323 131z" />
    <glyph glyph-name="f_f_l" unicode="ffl" horiz-adv-x="1677" 
d="M469 944h403q78 254 95 291q-13 82 -63 138t-136 57q-133 0 -209 -185q-35 -83 -90 -301zM1362 1487q156 0 244 -74l127 74l10 -4l-318 -1319q-23 -106 19 -107q74 0 176 207l33 -20q-111 -268 -291 -269q-137 0 -94 193l268 1110q-29 172 -193 172q-102 0 -165 -98
t-105 -285l-29 -123h248l-14 -55h-244q-31 -139 -91 -418t-75 -344q-131 -604 -415 -604q-76 0 -121 32q-45 31 -45 69t28 64q63 56 106 -6q45 -63 67 -79t53 -17q49 0 73 117q10 51 111 529q100 478 137 657h-401q-29 -137 -87 -416t-81 -383q-72 -322 -175 -464t-255 -142
q-74 0 -120 33t-46 71t32 69q33 32 63 32q30 -1 60 -55t52 -71q24 -17 52 -17t50 33q22 35 44 147t117 566t124 597h-170l18 55h164l27 113q100 412 458 411q94 0 162 -34t99 -76q43 49 131 89t182 40z" />
    <glyph glyph-name="f_i" unicode="fi" horiz-adv-x="1099" 
d="M811 1487q147 1 216 -59t69 -146q0 -45 -30 -71q-30 -25 -78 -25t-48 43q0 159 -64 199q-34 22 -85 22q-193 0 -297 -424l-19 -82h209q152 0 365 23l6 -6l-215 -795q-31 -109 18 -109q86 0 189 203l30 -22q-117 -262 -295 -263q-150 0 -102 191l170 635q16 49 4 68
t-70 20h-321q-57 -270 -168 -799q-70 -322 -173 -464t-255 -142q-78 0 -123 31t-47 74t29 71q32 28 64 29q32 0 52 -41q63 -106 113 -107q59 0 108 252q18 88 107 506q88 418 123 590h-170l16 55h168l27 105q115 438 477 438z" />
    <glyph glyph-name="f_l" unicode="fl" horiz-adv-x="1099" 
d="M799 1487q154 0 237 -76l125 78l10 -4l-319 -1321q-23 -106 20 -107q74 0 177 207l32 -20q-113 -268 -293 -269q-139 0 -92 191l267 1112q-11 78 -61 125t-132 47q-190 0 -281 -422l-18 -84h250l-16 -55h-244q-59 -281 -168 -803q-63 -308 -167 -456t-263 -148
q-68 0 -118 33t-51 73t31 69q33 28 61 28t56 -39q70 -104 115 -105q57 0 106 250q4 21 102 492q97 471 124 606h-170l14 55h168l25 96q45 197 158 322q114 125 315 125z" />
    <glyph glyph-name=".notdef" horiz-adv-x="1241" 
d="M319 1239v-1044l349 522zM381 102h696l-348 523zM791 717l348 -522v1044zM729 809l348 522h-696zM217 0v1434h1024v-1434h-1024z" />
    <glyph glyph-name=".null" horiz-adv-x="0" 
 />
    <glyph glyph-name="nonmarkingreturn" horiz-adv-x="681" 
 />
    <glyph glyph-name="space" unicode=" " horiz-adv-x="387" 
 />
    <glyph glyph-name="exclam" unicode="!" horiz-adv-x="468" 
d="M164 -25q-90 0 -90 105q0 51 30 85q31 34 82 34q90 0 90 -107q0 -51 -30 -84t-82 -33zM450 1358q77 0 93 -43t-13 -105l-266 -815h-39l78 817q6 70 38 108t109 38z" />
    <glyph glyph-name="quotedbl" unicode="&#x22;" horiz-adv-x="593" 
d="M512 1008q80 260 68 419q18 17 60 37t65 19q14 -37 14 -53q-2 -86 -55 -202t-125 -218zM268 1008q82 260 66 419q24 17 64 37t63 19q0 -2 6 -18t6 -35q-2 -86 -54 -203t-124 -217z" />
    <glyph glyph-name="numbersign" unicode="#" horiz-adv-x="1005" 
d="M961 770h-175l-71 -217h172l-31 -96h-172l-125 -365h-55l123 365h-240l-121 -365h-63l127 365h-178l32 96h176l72 217h-176l33 96h174l112 330h58l-109 -330h238l112 330h56l-113 -330h174zM731 770h-239l-72 -217h235z" />
    <glyph glyph-name="dollar" unicode="$" horiz-adv-x="1005" 
d="M745 309q0 83 -45 141t-141 113l-117 -524q131 -4 217 69t86 201zM1008 1062q0 -80 -74 -81q-41 0 -49 43q-35 186 -170 215l-115 -494q170 -91 238 -161t67 -199q0 -169 -126 -277t-347 -108l-39 -186h-53l45 192q-147 8 -241 85q-93 77 -93 165q2 43 26 70t58 26
q37 0 47 -49q57 -229 213 -256l119 541q-164 78 -220 156t-56 178q0 168 118 269q119 101 320 95l33 146h49l-33 -150q115 -10 199 -75t84 -145zM385 991q0 -80 40 -129t128 -96l111 477q-131 5 -205 -61t-74 -191z" />
    <glyph glyph-name="percent" unicode="%" horiz-adv-x="1443" 
d="M1137 643q-74 0 -130 -89q-100 -159 -100 -374q0 -164 103 -164q57 0 105 54q80 91 116 287q14 77 14 135q1 151 -108 151zM1149 682q113 0 172 -68t59 -182q0 -184 -99 -319t-282 -136q-115 1 -171 63t-56 175q0 184 98 326q99 141 279 141zM559 1270q-57 0 -104 -53
q-80 -91 -114 -285q-13 -76 -13 -133q0 -156 102 -156q74 0 132 89q58 88 82 190t24 180q0 168 -109 168zM195 848q0 182 98 321t278 140q113 0 185 -66q37 -25 61 -24h346q90 0 144 59l82 94l41 -41l-1260 -1419l-37 41l1079 1214h-413l6 -71q0 -199 -98 -345t-285 -147
q-227 0 -227 244z" />
    <glyph glyph-name="ampersand" unicode="&#x26;" horiz-adv-x="1396" 
d="M535 72q172 0 278 100q-172 180 -354 490q-51 -34 -63 -45t-32 -29q-22 -18 -28 -28t-20 -30t-30 -66q-14 -46 -14 -137t73 -173t190 -82zM371 942q1 162 101 264t227 103q127 0 197 -65t71 -181q0 -68 -43 -122t-91 -84q-48 -31 -131 -75t-94 -51q121 -205 338 -446
q125 123 168 239t43 279q18 14 57 23t60 8q18 -40 20 -96t-20 -103q-55 -105 -121 -191t-178 -186q18 -16 63 -63t76 -76q86 -80 182 -99l-2 -34l-92 4q-233 10 -360 149q-111 -92 -194 -127t-191 -35q-177 -1 -267 99t-90 224t62 192t278 200q-29 49 -49 124t-20 126z
M836 1087q0 69 -34 127t-105 58t-126 -68t-55 -200t74 -240q246 137 246 323z" />
    <glyph glyph-name="quotesingle" unicode="'" horiz-adv-x="354" 
d="M268 1008q74 240 60 419q18 17 67 37t72 19q16 -41 16 -53q-2 -147 -188 -420z" />
    <glyph glyph-name="parenleft" unicode="(" horiz-adv-x="702" 
d="M262 256q0 -258 66 -421t157 -185l-12 -39q-121 10 -203 105q-149 173 -149 528q0 217 51 436q114 491 384 714q148 122 325 132l-7 -39q-186 -51 -329 -248t-213 -461t-70 -522z" />
    <glyph glyph-name="parenright" unicode=")" horiz-adv-x="702" 
d="M535 883q0 257 -66 421t-158 187l11 37q178 -14 265 -196t87 -418q0 -474 -194 -862q-93 -187 -240 -308t-326 -131l8 39q186 51 330 248q143 198 213 462t70 521z" />
    <glyph glyph-name="asterisk" unicode="*" horiz-adv-x="663" 
d="M602 1311l-78 -176q-8 -23 -2 -29t23 4l174 119q47 29 74 -41q25 -72 -35 -80l-201 -33q-25 -4 -27 -15t21 -22l176 -96q53 -31 0 -91t-82 -15l-119 176q-25 41 -24 -19l6 -192q4 -66 -72 -56q-35 6 -49 28t0 48l78 180q10 23 5 31t-26 -6l-165 -117q-51 -37 -80 29
q-13 28 -7 54t37 32l207 37q24 5 18 19q-3 7 -16 14l-172 90q-59 29 -12 88q49 68 90 10l119 -160q12 -16 20 -11t6 28l-14 192q-4 63 73 48t54 -68z" />
    <glyph glyph-name="plus" unicode="+" horiz-adv-x="964" 
d="M111 424v86h348v356h100v-356h346v-86h-346v-373h-100v373h-348z" />
    <glyph glyph-name="comma" unicode="," horiz-adv-x="368" 
d="M-106 -236q170 166 169 342q0 47 -14 87q84 63 148 55q27 -33 26 -88q0 -190 -309 -416z" />
    <glyph glyph-name="hyphen" unicode="-" horiz-adv-x="585" 
d="M127 528h414l-21 -96h-416z" />
    <glyph glyph-name="period" unicode="." horiz-adv-x="368" 
d="M119 -25q-88 0 -88 103q0 51 30 86q31 35 80 35q92 0 92 -107q-1 -51 -31 -84t-83 -33z" />
    <glyph glyph-name="slash" unicode="/" horiz-adv-x="745" 
d="M53 -168l-57 35l817 1571l57 -33z" />
    <glyph glyph-name="zero" unicode="0" horiz-adv-x="1005" 
d="M688 1309q342 0 342 -422q0 -121 -32 -284t-104 -311q-151 -315 -437 -315q-350 0 -351 418q0 152 39 319t105 290q159 305 438 305zM696 1270q-178 0 -311 -398q-98 -307 -98 -565q0 -291 166 -291q76 0 139 70t100 157q100 235 139 511q23 156 23 264t-33 180t-125 72z
" />
    <glyph glyph-name="one" unicode="1" horiz-adv-x="1005" 
d="M121 0l8 37l172 16q49 6 64 66l231 1018q16 63 -23 65l-182 12l10 27l400 68l6 -9l-260 -1181q-8 -33 0 -48t43 -20l166 -14l-6 -37h-629z" />
    <glyph glyph-name="two" unicode="2" horiz-adv-x="1005" 
d="M821 1001q0 269 -192 269q-100 0 -168 -66t-115 -229q-12 -53 -57 -53q-35 0 -61 24t-25 66q0 98 122 197t307 99t284 -79q100 -80 100 -244t-96 -261t-336 -224q-216 -119 -314 -194t-155 -159h602q37 1 57 7q42 14 148 143l28 -18l-131 -279h-811l-6 4q27 104 133 234
t307 269q201 138 290 254t89 240z" />
    <glyph glyph-name="three" unicode="3" horiz-adv-x="1005" 
d="M512 664q-47 0 -100 -6t-60 -7q-41 0 -41 31q0 53 37 53q12 0 72 -8t110 -8q262 0 263 325q0 225 -166 226q-93 0 -147 -60t-95 -170q-20 -45 -54 -45t-56 22t-21 56q0 86 108 161q110 75 260 75t256 -68t107 -215q0 -147 -106 -231t-238 -95v-6q115 -20 198 -95t83 -200
q0 -211 -144 -316t-344 -105q-201 0 -297 77q-96 78 -96 164q0 47 28 75q27 28 57 28t41 -12t19 -42q35 -133 84 -192q49 -60 170 -60t199 100t78 308q0 90 -47 165t-158 75z" />
    <glyph glyph-name="four" unicode="4" horiz-adv-x="1005" 
d="M147 434h457l164 723l-4 2q-478 -508 -617 -725zM948 371h-188l-53 -260q-8 -35 2 -49t41 -15l106 -10l-10 -37h-502l12 37l113 10q53 4 66 64l55 260h-514l-17 37q88 124 340 418t426 460h127l-178 -852h193z" />
    <glyph glyph-name="five" unicode="5" horiz-adv-x="1005" 
d="M768 1286q156 0 202 5t68 22l15 -15l-99 -161h-503q-29 -1 -42 -9t-22 -38l-127 -428l4 -3q58 45 156 84t170 39q172 0 265 -89t93 -255q0 -207 -147 -334t-373 -127q-182 0 -273 72t-92 160q0 41 28 71t63 29q35 0 49 -51q61 -242 256 -242q121 0 204 106t82 288
q0 132 -62 206t-171 74q-178 0 -276 -119l-37 29l178 680l10 6h381z" />
    <glyph glyph-name="six" unicode="6" horiz-adv-x="1005" 
d="M776 475q0 109 -56 177t-162 69q-104 0 -179 -76q-98 -102 -98 -321q0 -307 206 -308q117 0 203 127t86 332zM719 1309q170 0 248 -67t77 -138q0 -35 -30 -64t-62 -28q-47 0 -57 55q-19 90 -65 146t-115 57q-137 0 -245 -175t-167 -466h2q158 166 324 166q166 -1 252 -93
t86 -230q0 -283 -212 -422q-112 -73 -263 -73q-211 0 -304 118q-92 117 -92 313t67 396t171 320q160 185 385 185z" />
    <glyph glyph-name="seven" unicode="7" horiz-adv-x="1005" 
d="M442 1137q-66 0 -98 -27t-96 -135l-39 2l110 309h801l8 -10q-56 -153 -226 -376q-60 -79 -173 -216q-248 -307 -272 -627q-5 -47 -23 -63t-67 -17q-94 0 -95 78q0 117 86 264t332 413t318 405h-566z" />
    <glyph glyph-name="eight" unicode="8" horiz-adv-x="1005" 
d="M262 308q0 -292 225 -292q115 0 190 124t75 262q0 268 -201 268q-133 0 -211 -111t-78 -251zM668 1270q-111 0 -173 -116t-63 -236q0 -211 168 -211q96 0 164 103t67 249q1 91 -39 151t-124 60zM256 952q0 174 118 266t292 91q174 0 258 -86t84 -203q0 -270 -289 -320v-6
q87 -28 155 -102t68 -193q0 -188 -120 -305t-336 -117q-216 -1 -315 93t-99 250t101 262t247 123v8q-164 65 -164 239z" />
    <glyph glyph-name="nine" unicode="9" horiz-adv-x="1005" 
d="M362 866q0 -114 54 -188t175 -74q122 0 179 92t57 187q0 170 -33 269q-39 116 -169 116q-103 0 -183 -113t-80 -289zM489 522q-145 0 -227 87t-82 239q0 211 129 336t324 125q391 0 377 -486q-10 -406 -199 -649q-156 -197 -389 -197q-166 0 -249 66t-83 143q0 41 28 68
t56 27q28 -1 37 -11q10 -10 18 -41q57 -211 197 -211q294 0 383 650l-4 2q-74 -74 -147 -111t-169 -37z" />
    <glyph glyph-name="colon" unicode=":" horiz-adv-x="368" 
d="M119 -25q-88 0 -88 103q0 51 30 86q31 35 80 35q92 0 92 -107q-1 -51 -31 -84t-83 -33zM266 680q-88 0 -88 102q0 49 30 85t81 36q92 0 92 -108q0 -49 -31 -82t-84 -33z" />
    <glyph glyph-name="semicolon" unicode=";" horiz-adv-x="368" 
d="M-106 -236q170 166 169 342q0 47 -14 87q84 63 148 55q27 -37 26 -88q0 -190 -309 -416zM266 680q-88 0 -88 102q0 49 30 85t81 36q92 0 92 -108q0 -49 -31 -82t-84 -33z" />
    <glyph glyph-name="less" unicode="&#x3c;" horiz-adv-x="964" 
d="M864 162v-103l-782 355v108l782 352v-100l-686 -307z" />
    <glyph glyph-name="equal" unicode="=" horiz-adv-x="964" 
d="M111 242v88h792v-88h-792zM111 600v90h792v-90h-792z" />
    <glyph glyph-name="greater" unicode="&#x3e;" horiz-adv-x="964" 
d="M135 774v100l783 -352v-108l-783 -355v103l686 305z" />
    <glyph glyph-name="question" unicode="?" horiz-adv-x="813" 
d="M336 -25q-88 0 -88 105q0 51 32 85t80 34q90 0 91 -107q0 -51 -31 -84t-84 -33zM268 1137q0 73 86 149t230 76t222 -68q77 -68 77 -178q0 -57 -18 -113t-123 -141q-26 -20 -129 -97t-142 -123t-39 -87t25 -63t69 -23q44 0 76 10l6 -20q-61 -74 -172 -74q-76 0 -118 42
t-42 122q0 129 187 260q258 182 258 347t-125 165q-137 0 -195 -225q-10 -43 -47 -43q-38 1 -62 23t-24 61z" />
    <glyph glyph-name="at" unicode="@" horiz-adv-x="1638" 
d="M719 102q88 0 199 160t163 346q39 129 47 178q-39 33 -100 33q-109 -1 -201 -109t-138 -244t-46 -250t76 -114zM1190 80q135 0 240 149q104 150 104 409t-160 403t-401 145q-335 0 -527 -245t-192 -622q0 -245 122 -430q66 -96 186 -152t291 -56t287 55t238 190l17 -24
q-217 -297 -609 -297q-285 0 -474 156q-97 81 -151 221t-55 329q0 414 252 668t619 254q305 0 468 -156t163 -423t-142 -452t-360 -186q-98 0 -122 67t30 253l-6 2q-188 -322 -398 -322q-125 0 -125 203q0 150 86 332q86 181 244 261q89 46 183 46t149 -31l6 21h135
q-80 -285 -153 -602q-41 -166 55 -166z" />
    <glyph glyph-name="A" unicode="A" horiz-adv-x="1294" 
d="M866 596l-69 608h-2q-244 -449 -328 -608h399zM870 541h-432q-192 -356 -224 -422t34 -72l106 -10l-10 -37h-418l11 37l63 8q49 6 80 31t78 98q272 444 661 1178h137q96 -877 124 -1069t41 -215t57 -25l73 -6l-10 -37h-489l8 37l104 10q31 3 41 19t8 57q-43 416 -43 418z
" />
    <glyph glyph-name="B" unicode="B" horiz-adv-x="1216" 
d="M592 700h-92l-121 -536q-13 -66 19 -96t167 -29q182 0 274 114q91 113 91 267t-89 217t-249 63zM637 741q172 0 273 79t102 245q0 117 -62 183t-168 65q-108 0 -128 -10t-31 -58l-113 -504h127zM817 1352q391 0 391 -293q0 -123 -91 -217t-290 -115l-2 -8
q147 -27 231 -98q83 -72 83 -215t-104 -264q-56 -66 -175 -104t-287 -38h-581l6 37l111 12q33 2 51 24t28 68l240 1069q10 52 1 70t-42 23l-117 12l11 37h536z" />
    <glyph glyph-name="C" unicode="C" horiz-adv-x="1292" 
d="M778 -33q-379 0 -516 181q-117 158 -117 384q0 106 34 242t108 256q217 356 676 356q260 0 421 -100l-69 -295h-41q8 178 -60 266t-268 89q-123 0 -225 -54t-169 -143q-194 -255 -198 -657q0 -240 106 -362t278 -122q173 0 279 86q105 86 197 252h39l-102 -293
q-169 -86 -373 -86z" />
    <glyph glyph-name="D" unicode="D" horiz-adv-x="1468" 
d="M850 1352q618 0 618 -549q0 -258 -133 -461q-113 -170 -287 -256t-456 -86h-598l10 37l111 12q33 2 51 24t29 68l239 1069q20 90 -41 93l-117 10l11 39h563zM528 39q356 0 547 218q190 218 191 581q0 122 -34 214q-34 91 -80 140t-132 85t-208 36t-150 -10t-37 -60
l-248 -1104q-14 -59 24 -80q39 -20 127 -20z" />
    <glyph glyph-name="E" unicode="E" horiz-adv-x="1155" 
d="M903 1303h-219q-25 -1 -35 -11t-18 -43l-121 -518h270q154 0 195 61q20 30 49 103h39l-86 -387h-39q6 102 -20 135q-27 33 -150 33h-266l-103 -457q-23 -71 -13 -109t56 -50q47 -12 223 -11q176 0 246 40t166 235h39l-108 -324h-1012l10 37l109 12q35 1 51 21t29 73
l243 1069q10 52 1 70t-44 21l-119 10l11 39h948l-70 -308h-39q8 186 -23 223q-32 36 -200 36z" />
    <glyph glyph-name="F" unicode="F" horiz-adv-x="1095" 
d="M928 1303h-244q-27 -1 -38 -11t-19 -47l-125 -557h282q125 0 165 30t79 136h41l-92 -418h-41q4 64 3 108q-2 90 -165 89h-285l-110 -496q-20 -88 45 -90l145 -10l-8 -37h-567l8 37l111 10q35 3 53 23t29 67l239 1077q10 46 0 66t-43 23l-115 12l9 37h975l-72 -303h-39
q2 180 -31 217t-190 37z" />
    <glyph glyph-name="G" unicode="G" horiz-adv-x="1374" 
d="M756 8q96 0 148 16t65 33q12 18 20 54l82 348q10 53 3 71t-36 23l-147 14l8 37h512l-8 -37l-86 -8q-25 -3 -38 -25t-24 -75l-94 -416q-195 -76 -405 -76q-610 0 -611 582q0 141 46 292t139 265q217 281 639 280q254 0 432 -98l-70 -305h-39q31 362 -315 363
q-133 0 -243 -54t-178 -140q-68 -85 -115 -196q-83 -200 -84 -436t108 -374t291 -138z" />
    <glyph glyph-name="H" unicode="H" horiz-adv-x="1488" 
d="M510 729h647l107 481q18 94 -43 97l-117 8l10 37h543l-8 -37l-109 -10q-37 -2 -54 -24t-28 -71l-252 -1069q-20 -94 43 -96l115 -8l-8 -37h-533l8 37l109 12q35 3 53 23t29 69l119 535h-643l-119 -535q-10 -47 -1 -69t44 -23l115 -12l-9 -37h-534l8 37l111 12q35 3 52 23
t30 69l239 1069q23 94 -43 97l-115 8l11 37h532l-10 -37l-107 -10q-35 -3 -52 -23t-29 -72z" />
    <glyph glyph-name="I" unicode="I" horiz-adv-x="661" 
d="M289 1352h532l-10 -37l-109 -10q-61 -6 -79 -95l-242 -1067q-23 -96 43 -98l115 -8l-9 -37h-534l8 37l111 12q60 4 82 94l239 1067q18 86 -45 93l-112 12z" />
    <glyph glyph-name="J" unicode="J" horiz-adv-x="665" 
d="M301 1352h535l-9 -37l-108 -12q-37 -1 -55 -21t-29 -68l-232 -1001q-63 -274 -206 -373q-100 -72 -267 -71q-8 0 -20 2t-23 2l4 32q115 10 191 82q90 80 156 381l213 946q10 48 0 68t-45 23l-115 10z" />
    <glyph glyph-name="K" unicode="K" horiz-adv-x="1327" 
d="M1077 1352h453l-2 -37q-113 -8 -169 -30q-56 -23 -169 -101t-514 -404q74 -150 176 -322t186 -274q117 -145 250 -157l-10 -37l-121 2q-121 2 -193 32t-147 133q-74 103 -180 311q-105 208 -117 234l2 11q414 332 631 534q41 36 26 53q-7 8 -26 9l-80 6zM289 1352h532
l-10 -37l-106 -10q-61 -6 -80 -93l-244 -1069q-23 -96 43 -98l115 -8l-9 -37h-534l8 37l111 12q60 4 82 94l239 1069q25 92 -41 95l-116 8z" />
    <glyph glyph-name="L" unicode="L" horiz-adv-x="1101" 
d="M569 49q137 0 185 5q48 4 90 16t72 49q59 74 126 213h37l-102 -332h-979l6 37l105 12q37 3 56 23t32 71l241 1067q20 92 -43 95l-116 10l10 37h542l-10 -37l-116 -8q-61 -2 -82 -97l-226 -993q-29 -119 3 -143t169 -25z" />
    <glyph glyph-name="M" unicode="M" horiz-adv-x="1773" 
d="M877 272q593 895 702 1080h350l-10 -37l-109 -8q-35 -2 -54 -24t-30 -73l-239 -1069q-10 -45 -1 -67t44 -25l117 -12l-9 -37h-530l8 37l107 12q35 3 53 23t31 69l249 1063h-6q-336 -504 -782 -1214h-39q-123 709 -231 1231h-4q-97 -421 -113 -496q-16 -74 -39 -177
t-48 -230t-29 -181q-3 -55 19 -72t70 -22l76 -6l-6 -37h-432l4 37l61 6q47 3 74 21t41 61q51 147 266 1085q10 48 1 68t-44 25l-114 12l10 37h350l229 -1080h7z" />
    <glyph glyph-name="N" unicode="N" horiz-adv-x="1460" 
d="M596 1350l559 -1100h8q201 888 210 954t-11 80t-76 21l-82 8l6 37h432l-6 -37l-61 -6q-49 -5 -76 -21t-60 -119t-268 -1167h-110q-139 310 -325 679q-185 368 -244 488h-7q-209 -905 -221 -1042q-4 -43 19 -60t73 -22l74 -6l-6 -37h-430l6 37l61 6q47 4 73 20t50 89
t121 479q96 406 131 579q18 82 -59 90l-119 13l10 37h328z" />
    <glyph glyph-name="O" unicode="O" horiz-adv-x="1452" 
d="M901 1346q-115 0 -210 -60t-157 -158q-186 -290 -190 -679q0 -203 93 -322t251 -119q119 0 217 60t161 157q187 290 187 686q0 207 -93 321t-259 114zM895 1386q253 0 405 -143t152 -415t-119 -486q-201 -375 -620 -375q-287 0 -427 153q-140 152 -140 412t137 494
q217 360 612 360z" />
    <glyph glyph-name="P" unicode="P" horiz-adv-x="1183" 
d="M1034 1016q0 131 -75 214t-214 83q-70 -1 -87 -11t-27 -55l-133 -606q-15 -74 161 -75t276 114q99 115 99 336zM782 1352q451 0 451 -369q0 -115 -46 -215q-112 -244 -525 -244q-137 0 -193 19l-88 -402q-20 -86 41 -92l135 -12l-8 -37h-553l8 37l109 12q35 3 52 23
t30 69l241 1069q20 90 -43 93l-114 10l10 39h493z" />
    <glyph glyph-name="Q" unicode="Q" horiz-adv-x="1452" 
d="M918 1346q-152 0 -265 -88q-198 -155 -274 -514q-33 -151 -33 -295q0 -213 92 -328t246 -115t267 93q114 93 176 237q128 296 126 575q0 205 -91 320q-92 115 -244 115zM893 1386q253 0 407 -143t154 -432q0 -84 -28 -215t-104 -268q-76 -136 -192 -232
q-117 -96 -301 -123q74 -121 138 -182q73 -73 143 -107t168 -32l2 -29q-51 -31 -162 -31q-195 0 -325 127q-109 102 -193 254q-455 62 -455 572q0 253 140 485q209 356 608 356z" />
    <glyph glyph-name="R" unicode="R" horiz-adv-x="1220" 
d="M618 692q391 0 392 363q0 131 -66 194t-165 63t-123 -10q-24 -11 -33 -63l-125 -547h120zM807 1352q104 0 181 -22t116 -52q94 -71 94 -236q0 -315 -405 -372v-8q145 -39 189 -110t40 -220q0 -184 27 -228q18 -35 47 -47t106 -20l-10 -37h-145q-181 0 -200 140
q-9 66 -13 302q-2 115 -48 163t-184 48h-113l-112 -510q-12 -53 -2 -72t45 -24l115 -10l-9 -37h-530l8 37l109 12q37 5 53 23t29 71l241 1067q20 90 -43 93l-114 10l10 39h518z" />
    <glyph glyph-name="S" unicode="S" horiz-adv-x="1017" 
d="M484 -33q-124 0 -242 44t-170 118l61 297h39q-10 -198 76 -308t238 -110t222 88t70 194t-51 172t-195 158t-210 168q-64 76 -64 208t91 252q48 62 139 100q173 73 404 10q101 -29 161 -78l-72 -272h-37q18 156 -50 246t-200 92q-133 0 -205 -80q-71 -80 -71 -174
q1 -158 108 -242q41 -32 168 -110t196 -152t68 -195q0 -161 -101 -285q-52 -65 -151 -103q-98 -38 -222 -38z" />
    <glyph glyph-name="T" unicode="T" horiz-adv-x="1153" 
d="M567 1303q-168 -1 -226 -47t-124 -212h-37l70 308h1098l-72 -308h-41q2 57 3 82t-3 67t-19 66q-16 23 -29 26t-40 10q-31 8 -275 8l-260 -1164q-10 -47 0 -67t52 -23l139 -12l-8 -37h-592l10 37l127 12q43 3 63 23t31 67l266 1164h-133z" />
    <glyph glyph-name="U" unicode="U" horiz-adv-x="1505" 
d="M707 -33q-580 0 -453 533l168 710q23 86 -43 93l-115 10l10 37h535l-8 -37l-109 -8q-35 -3 -52 -23t-30 -72l-164 -714q-115 -489 269 -490q186 0 284 125t148 348l168 731q10 47 1 69t-44 24l-113 10l8 37h521l-11 -37l-108 -10q-35 -3 -52 -23t-30 -70l-170 -727
q-86 -370 -312 -466q-75 -32 -143 -41t-155 -9z" />
    <glyph glyph-name="V" unicode="V" horiz-adv-x="1318" 
d="M219 1352h496l-6 -37l-107 -17q-35 -4 -45 -16t-5 -66t60 -477q55 -424 72 -561h4q510 856 602 1059q14 35 8 46t-34 15l-101 17l6 37h387l-6 -37q-80 -5 -112 -21t-66 -65q-84 -127 -347 -575t-378 -654h-123q-61 563 -159 1212q-8 58 -32 74t-120 29z" />
    <glyph glyph-name="W" unicode="W" horiz-adv-x="1839" 
d="M201 1352h495l-10 -37l-108 -12q-57 -6 -58 -62q2 -123 60 -1022h10q84 168 270 581t238 517h123q53 -547 125 -1094h8q248 471 479 1012q25 63 -16 65l-127 15l2 37h399l-8 -37q-84 -8 -117 -34t-108 -162t-265 -522t-284 -597h-129q-45 535 -115 1087h-10
q-229 -479 -508 -1087h-131q-25 618 -82 1223q-2 51 -26 66t-115 26z" />
    <glyph glyph-name="X" unicode="X" horiz-adv-x="1208" 
d="M213 1352h502l-8 -37l-105 -12q-31 -5 -38 -13t1 -41q102 -270 176 -442h4q289 340 361 440q39 53 -16 60l-86 8l4 37h407l-8 -37q-82 -5 -120 -17t-66 -41q-106 -100 -457 -503q229 -553 258 -617q31 -59 65 -76q35 -16 136 -24l-6 -37h-525l6 37l99 10q35 3 43 19
t-14 68t-86 218q-65 166 -103 258h-8q-164 -204 -268 -332q-103 -128 -137 -176t30 -53l113 -12l-9 -37h-442l8 37q98 10 138 23t108 87t440 521q-154 395 -233 563q-23 49 -51 62q-29 13 -121 22z" />
    <glyph glyph-name="Y" unicode="Y" horiz-adv-x="1198" 
d="M203 1352h487l-8 -37l-104 -10q-53 -1 -39 -49t186 -629h6q326 436 440 626q33 51 -30 54l-101 8l9 37h403l-8 -37q-82 -5 -117 -23t-88 -78q-127 -141 -446 -598q-43 -59 -58 -122l-84 -361q-18 -78 47 -84l148 -12l-8 -37h-598l8 37l139 14q37 3 54 21t26 61l84 373
q14 57 0 104q-109 369 -193 615q-20 55 -44 68t-117 22z" />
    <glyph glyph-name="Z" unicode="Z" horiz-adv-x="1185" 
d="M627 49q96 0 145 1q49 0 102 14t76 27t57 53t54 80t59 122h39l-92 -346h-1100l-6 20q702 803 1102 1283h-457q-174 0 -227 -41t-131 -236h-41l69 326h1031l2 -21q-684 -797 -1096 -1282h414z" />
    <glyph glyph-name="bracketleft" unicode="[" horiz-adv-x="604" 
d="M547 1370l-338 -1593q-13 -68 11 -84t151 -23l-6 -41h-302l400 1889h301l-8 -39q-131 -9 -163 -25t-46 -84z" />
    <glyph glyph-name="backslash" unicode="\" horiz-adv-x="700" 
d="M469 -168l-147 1595l67 9l143 -1592z" />
    <glyph glyph-name="bracketright" unicode="]" horiz-adv-x="604" 
d="M141 -227l338 1593q14 68 -9 84q-24 16 -153 25l9 41h299l-400 -1887h-301l8 37q131 6 163 22t46 85z" />
    <glyph glyph-name="asciicircum" unicode="^" horiz-adv-x="911" 
d="M893 600h-113l-262 588l-270 -588h-111l334 709h96z" />
    <glyph glyph-name="underscore" unicode="_" horiz-adv-x="962" 
d="M895 -145v-97h-963v97h963z" />
    <glyph glyph-name="grave" unicode="`" horiz-adv-x="770" 
d="M383 1330q0 20 32 40q61 39 81 1q10 -19 26 -75l70 -247l-23 -13l-133 197q-53 78 -53 97z" />
    <glyph glyph-name="a" unicode="a" horiz-adv-x="1071" 
d="M854 877q-55 35 -125 34q-109 0 -206 -82q-163 -138 -253 -433q-35 -118 -34 -201q0 -135 86 -136q123 0 264 207t207 400q38 125 61 211zM229 -25q-174 0 -174 234q0 174 110 392t301 313q110 54 236 55q52 -1 100 -17t64 -34l8 30h152l-211 -782q-27 -106 21 -107
q63 0 172 203l30 -18q-123 -268 -299 -269q-133 0 -67 230l57 198h-4q-248 -428 -496 -428z" />
    <glyph glyph-name="b" unicode="b" horiz-adv-x="1044" 
d="M578 1483l-226 -916h2q109 193 241 297t247 105q195 0 194 -248q0 -223 -114 -428q-80 -139 -204 -228t-282 -90q-76 0 -148 41t-95 101l-82 -117h-35l301 1317q14 55 6 73t-47 21l-107 12l9 25l333 39zM860 713q0 172 -98 172q-90 0 -184 -88t-158 -201
q-64 -114 -94 -224t-31 -184q0 -74 44 -122t129 -50q85 0 168 87q130 137 200 440q24 109 24 170z" />
    <glyph glyph-name="c" unicode="c" horiz-adv-x="796" 
d="M352 -29q-281 0 -280 314q0 167 68 323t196 258q129 102 287 103q107 0 167 -49t60 -125q0 -43 -32 -66t-76 -23t-50 50q-8 90 -30 127q-23 37 -80 37q-84 0 -162 -100t-122 -240t-44 -268t36 -192t136 -65q176 1 332 232l26 -25q-176 -291 -432 -291z" />
    <glyph glyph-name="d" unicode="d" horiz-adv-x="1089" 
d="M240 207q0 -147 98 -148q125 0 265 198t198 423q7 24 29 100t26 101q-48 33 -146 33t-194 -80q-160 -132 -244 -427q-32 -116 -32 -200zM858 57q37 0 89 69t85 136l31 -20q-51 -119 -128 -193t-171 -74q-129 0 -68 226q37 154 47 198l-2 -2q-233 -422 -497 -422
q-180 0 -181 252q0 208 152 457q74 121 204 203t290 82q100 0 157 -45l99 409q12 45 6 61t-41 19l-115 10l8 25l336 39l6 -4l-323 -1317q-29 -109 16 -109z" />
    <glyph glyph-name="e" unicode="e" horiz-adv-x="831" 
d="M590 920q-109 0 -202 -138t-122 -307q201 27 317 108t115 214q0 53 -28 88q-29 35 -80 35zM643 969q111 -1 163 -53t52 -136q0 -268 -596 -350q-6 -37 -6 -90q0 -280 179 -280t335 229l27 -25q-92 -150 -210 -220t-225 -69q-107 0 -188 57q-100 71 -98 261q0 123 42 249
t118 218q170 209 407 209z" />
    <glyph glyph-name="f" unicode="f" horiz-adv-x="518" 
d="M715 1487q80 0 125 -30t45 -73q0 -44 -30 -66q-29 -22 -61 -22t-48 38t-24 56q-22 48 -69 50q-70 0 -110 -203l-66 -293h225l-16 -55h-223l-176 -846q-115 -549 -418 -549q-78 0 -128 31t-51 73q0 42 28 70t61 27q33 0 45 -27q63 -115 123 -114q72 0 96 124
q17 80 117 558t135 653h-170l14 55h168q68 293 154 404q111 139 254 139z" />
    <glyph glyph-name="g" unicode="g" horiz-adv-x="909" 
d="M84 -205q0 -111 96 -185t240 -75q144 0 217 65q72 65 72 162q0 127 -150 183q-55 20 -256 75q-75 -6 -147 -60t-72 -165zM565 922q-115 0 -177 -119t-62 -236q0 -211 153 -211q102 0 167 111t65 231q1 120 -41 172t-105 52zM272 262q0 -55 103 -86q197 -55 256 -74
q223 -61 223 -256q0 -147 -120 -249q-120 -103 -326 -103t-328 85q-123 85 -123 210q0 199 291 254v4q-119 55 -119 141q0 48 48 92t124 68v4q-145 74 -145 258q0 116 77 227q41 58 125 95t210 37t218 -68l242 43l4 -8l-65 -105h-127q35 -47 34 -155q0 -164 -103 -262
t-296 -99q-82 0 -131 21q-72 -33 -72 -74z" />
    <glyph glyph-name="h" unicode="h" horiz-adv-x="1095" 
d="M764 -27q-141 0 -84 211l164 568q18 57 1 95t-63 38q-114 0 -240 -152t-180 -295t-131 -438l-157 -23l299 1338q14 57 7 75t-44 21l-111 12l8 25l338 39l7 -4l-230 -946h8q96 182 238 307t262 125q121 0 149 -84t-14 -197l-157 -524q-35 -106 18 -107q35 1 86 67t88 136
l29 -18q-53 -119 -129 -194t-162 -75z" />
    <glyph glyph-name="i" unicode="i" horiz-adv-x="552" 
d="M464 1315q93 0 93 -88q0 -49 -29 -80q-30 -31 -72 -31t-68 24t-26 66t29 76q29 33 73 33zM309 57q35 1 86 69t88 138l27 -18q-123 -270 -297 -271q-127 0 -80 191l166 620q14 50 6 68t-47 23l-96 8l8 28l328 54l6 -6l-213 -795q-31 -109 18 -109z" />
    <glyph glyph-name="j" unicode="j" horiz-adv-x="491" 
d="M431 1315q97 0 95 -88q0 -49 -28 -80t-73 -31q-44 0 -70 24q-25 24 -25 66t28 76q29 33 73 33zM-139 -514q-72 0 -120 31t-48 67t28 64q59 59 99 -4q49 -92 121 -93q63 0 94 136l246 1093q12 49 8 72t-37 25l-115 8l8 28l324 54l10 -6l-229 -992q-53 -233 -139 -338
q-106 -145 -250 -145z" />
    <glyph glyph-name="k" unicode="k" horiz-adv-x="974" 
d="M694 -27q-66 0 -101 39q-35 38 -101 184t-121 318q403 455 573 455q84 0 84 -56q0 -35 -31 -71t-48 -37t-41 19t-82 20q-56 0 -154 -83t-170 -163q72 -205 153 -377q39 -75 66 -103t59 -28t82 51q51 51 90 129l25 -16q-55 -119 -136 -200t-147 -81zM236 0l-168 -23
l319 1334q12 57 6 74t-43 22l-100 14l8 23l328 43l4 -4z" />
    <glyph glyph-name="l" unicode="l" horiz-adv-x="522" 
d="M195 -25q-131 0 -84 193l284 1147q12 57 5 75t-44 21l-110 12l8 25l346 39l4 -4l-338 -1319q-25 -102 21 -103q33 -1 87 65t89 136l29 -14q-51 -119 -127 -196t-170 -77z" />
    <glyph glyph-name="m" unicode="m" horiz-adv-x="1681" 
d="M877 969q193 0 106 -289l-35 -121h8q231 410 482 410q112 0 142 -83t-9 -198l-152 -524q-36 -100 15 -98q39 0 90 58t88 138l28 -18q-121 -270 -311 -271q-125 0 -72 191l170 588q18 61 -1 97t-68 36q-112 0 -222 -136t-180 -292q-39 -90 -145 -457l-156 -23
q90 333 195 748q45 160 -63 160q-109 1 -227 -147t-181 -304q-29 -74 -133 -434l-156 -23l199 807q14 45 11 68t-38 25l-115 8l9 28l344 54l4 -6l-123 -402h6q100 182 231 296t259 114z" />
    <glyph glyph-name="n" unicode="n" horiz-adv-x="1124" 
d="M876 969q122 0 150 -83t-12 -198l-154 -524q-31 -109 19 -109q68 0 174 199l28 -18q-117 -262 -290 -263q-74 -1 -97 55t4 136l168 586q18 55 3 95t-64 40q-113 1 -229 -141t-174 -281q-60 -139 -154 -463l-158 -23l205 807q14 45 9 68t-38 25l-116 8l6 28l346 54l4 -6
l-125 -424h6q92 180 230 306q137 126 259 126z" />
    <glyph glyph-name="o" unicode="o" horiz-adv-x="1026" 
d="M639 930q-88 0 -164 -76q-124 -124 -186 -410q-25 -111 -25 -196q0 -233 166 -234q96 0 173 86q123 138 179 435q20 106 21 172q0 223 -164 223zM651 969q131 0 229 -79q98 -78 99 -274q0 -196 -123 -391q-156 -250 -424 -250q-174 1 -259 95t-85 245t69 306
q40 91 99 167q60 76 162 128t233 53z" />
    <glyph glyph-name="p" unicode="p" horiz-adv-x="1077" 
d="M868 969q203 0 203 -260q0 -103 -38 -227t-84 -204t-108 -151q-61 -70 -155 -112t-212 -42t-198 58l-120 -525l-160 -22l285 1300q12 43 8 67t-37 26l-119 8l8 28l342 54l4 -4l-112 -431h6q115 207 246 322t241 115zM786 885q-90 0 -196 -124t-187 -296
q-59 -137 -112 -389q61 -47 172 -47t200 83q89 82 136 200q96 240 96 407q0 166 -109 166z" />
    <glyph glyph-name="q" unicode="q" horiz-adv-x="1052" 
d="M356 647q-123 -244 -123 -416t95 -172q129 0 293 220q143 186 237 620q-56 19 -152 19t-194 -79t-156 -192zM57 190q0 206 96 400q52 104 126 187q75 83 189 137t251 54t223 -48l82 90h29l-353 -1489l-174 -37l209 883h-6q-113 -183 -242 -287t-258 -105q-76 1 -124 57
t-48 158z" />
    <glyph glyph-name="r" unicode="r" horiz-adv-x="731" 
d="M735 973q82 0 82 -72q0 -39 -34 -80q-35 -41 -63 -41t-52 25t-54 24q-47 0 -107 -96q-59 -95 -111 -237t-142 -496l-156 -23l158 689q25 106 27 146t-23 44l-131 10l10 47l324 54l4 -6l-86 -371h8q70 160 167 272t179 111z" />
    <glyph glyph-name="s" unicode="s" horiz-adv-x="708" 
d="M514 969q94 0 152 -47q58 -46 57 -88q0 -42 -30 -66q-29 -24 -55 -23q-26 0 -38 27q-61 139 -164 139q-59 0 -91 -37t-32 -96t28 -107q27 -48 125 -128t134 -132t37 -150q0 -97 -99 -191q-100 -94 -240 -94t-204 56q-64 58 -63 118q-1 28 29 58t60 30t44 -37
q27 -80 86 -124t119 -44q133 0 133 147q0 102 -143 228t-162 188q-10 33 -11 74q0 117 90 208q91 91 238 91z" />
    <glyph glyph-name="t" unicode="t" horiz-adv-x="589" 
d="M682 889h-209l-178 -737q-25 -94 29 -95q37 0 99 70t101 137l27 -18q-145 -270 -330 -271q-127 0 -84 191l178 723h-161l18 55h158l45 174l176 101l8 -5l-72 -270h213z" />
    <glyph glyph-name="u" unicode="u" horiz-adv-x="1118" 
d="M360 61q96 -1 213 133t197 314q49 117 143 436l158 23l-209 -805q-29 -104 21 -105q39 0 95 69t87 136l29 -18q-131 -268 -316 -269q-121 0 -63 209l65 238h-4q-92 -180 -234 -313t-272 -134q-193 0 -116 283l135 526q14 45 9 68t-38 25l-104 10l6 26l332 54l4 -6
l-189 -732q-20 -82 -6 -125t57 -43z" />
    <glyph glyph-name="v" unicode="v" horiz-adv-x="937" 
d="M375 61q143 0 292 198q148 198 148 476q0 102 -22 193q68 41 122 41q9 -1 23 -21q38 -53 37 -137q0 -84 -67 -238t-165 -284q-231 -313 -460 -314q-184 0 -131 238l131 571q12 49 7 71t-36 24l-121 8l8 26l340 54v-4l-180 -777q-15 -63 9 -94t65 -31z" />
    <glyph glyph-name="w" unicode="w" horiz-adv-x="1464" 
d="M1425 969q7 -1 23 -21q42 -56 43 -137q0 -83 -60 -233t-153 -285q-215 -317 -418 -318q-160 0 -160 181q0 57 31 206l-4 5q-209 -391 -448 -392q-88 0 -120 68t-5 176l125 545q12 50 7 70t-36 22l-119 10l10 47l340 54l4 -4l-174 -750q-18 -76 2 -115t62 -39
q106 0 241 201q20 31 41 71l35 70q14 31 34 86q19 55 29 82q9 27 27 95t24 87q5 19 24 97q20 78 24 90l156 10l-144 -645q-25 -131 -1 -187t77 -57q133 0 265 201t130 447q0 121 -26 219q68 43 114 43z" />
    <glyph glyph-name="x" unicode="x" horiz-adv-x="933" 
d="M918 969q38 -1 62 -19t24 -48t-33 -62t-47 -33q-14 1 -42 17q-26 16 -57 16t-107 -94t-153 -209q102 -410 137 -453q16 -20 50 -20t64 40q30 41 75 138l31 -21q-100 -246 -265 -246q-59 0 -84 31q-51 63 -118 363h-4q-139 -225 -217 -309t-136 -85q-59 0 -89 24
q-29 25 -29 59t27 66q29 32 53 32t36 -13q27 -35 74 -34q84 0 270 323l-98 363q-10 39 -24 47t-50 6l-125 -4v26l308 97l6 -4l94 -369h4q156 219 226 297q71 78 137 78z" />
    <glyph glyph-name="y" unicode="y" horiz-adv-x="864" 
d="M887 969q16 0 25 -38t10 -71q0 -98 -173 -384t-333 -578q-135 -230 -220 -322t-186 -92q-61 0 -93 29t-32 67t34 70q34 31 61 31q27 1 38 -15q53 -74 87 -75q35 -1 83 53t88 122q40 70 46 113t6 145t-42 428q-42 325 -66 375q-11 25 -42 23l-131 -2l-4 26l311 93l17 -9
q23 -110 55 -390t39 -484h6q227 391 270 569q25 109 21 267q72 49 125 49z" />
    <glyph glyph-name="z" unicode="z" horiz-adv-x="845" 
d="M467 944h233q154 0 185 10l8 -22q-553 -580 -707 -752l2 -2q66 -4 180 -39t214 -35q158 0 254 207l30 -16q-51 -133 -146 -231q-96 -98 -180 -99q-84 0 -202 41q-156 60 -211 60t-94 -64q-7 -12 -17 -12t-10 34t68 111q238 268 639 684v2h-361q-61 0 -107 -46t-100 -140
l-30 18q25 66 79 168q53 102 80 133q78 -10 193 -10z" />
    <glyph glyph-name="braceleft" unicode="{" horiz-adv-x="659" 
d="M389 -385q-102 0 -159 41q-120 88 -21 412l70 217q49 147 11 214t-173 66l10 43q250 -6 281 279l22 221q8 68 17 119t35 111q83 192 313 192h43l-9 -39q-133 -6 -185 -85t-66 -218l-19 -180q-20 -182 -51 -250q-66 -135 -258 -164l-2 -14q126 -21 162 -82q37 -62 22 -141
t-33 -131t-20 -60l-55 -178q-44 -125 -34 -220q5 -50 43 -80t105 -34l-8 -39h-41z" />
    <glyph glyph-name="bar" unicode="|" horiz-adv-x="423" 
d="M178 -481v1925h115v-1925h-115z" />
    <glyph glyph-name="braceright" unicode="}" horiz-adv-x="659" 
d="M369 1528q326 0 180 -451l-62 -190q-49 -147 -12 -213t174 -66l-10 -45q-133 1 -198 -69t-81 -209l-32 -248q-32 -240 -116 -331q-36 -38 -100 -64t-149 -27h-43l10 39q141 8 188 91t62 212l27 209q23 176 45 229q61 154 264 185l4 14q-97 14 -154 66q-30 26 -38 118
q-5 57 59 230l47 149q111 322 -115 334l9 37h41z" />
    <glyph glyph-name="asciitilde" unicode="~" horiz-adv-x="964" 
d="M686 373q-66 0 -194 63q-88 49 -150 49q-102 0 -188 -123l-50 52q100 164 250 164q81 0 187 -66q98 -49 148 -49q50 -1 82 27t81 102l51 -49q-51 -86 -101 -128t-116 -42z" />
    <glyph glyph-name="uni00A0" unicode="&#xa0;" horiz-adv-x="387" 
 />
    <glyph glyph-name="exclamdown" unicode="&#xa1;" horiz-adv-x="468" 
d="M66 -414q-144 0 -82 146l270 815h41l-84 -817q-6 -70 -37 -107q-32 -37 -108 -37zM352 967q90 0 90 -103q0 -51 -32 -86t-80 -35q-92 0 -92 107q0 51 30 84q31 33 84 33z" />
    <glyph glyph-name="cent" unicode="&#xa2;" horiz-adv-x="1005" 
d="M348 551q0 -252 170 -295l189 846q-159 0 -259 -167t-100 -384zM1040 954q0 -41 -30 -61t-60 -21q-43 0 -53 52q-16 84 -57 130t-84 48l-193 -858q111 0 196 38t163 154l30 -24q-145 -240 -405 -244l-41 -174h-49l39 174q-115 4 -214 80q-52 38 -84 112t-32 172
q0 258 152 435q153 176 401 184l31 135h49l-31 -135q108 -4 190 -59t82 -138z" />
    <glyph glyph-name="sterling" unicode="&#xa3;" horiz-adv-x="1005" 
d="M297 664v79q0 565 432 566q143 1 208 -61t64 -134q1 -38 -25 -62t-52 -24q-43 0 -52 47q-23 96 -62 145q-40 48 -128 48q-201 0 -195 -414v-190h291l-16 -52h-275q-16 -150 -77 -264t-201 -198l2 -7h516q41 0 72 25t108 125l25 -19l-131 -274h-793l-8 10l45 78
q147 51 202 172q54 121 52 352h-170l14 52h154z" />
    <glyph glyph-name="currency" unicode="&#xa4;" horiz-adv-x="1005" 
d="M560 942q-112 0 -169 -84t-57 -216t66 -214t171 -82q106 0 169 75q62 75 62 215t-65 223t-177 83zM570 1014q142 0 212 -70l99 125l84 -78l-115 -114q68 -87 68 -227t-72 -234l123 -105l-92 -96l-99 133q-78 -76 -218 -76t-208 68l-94 -121l-84 86l109 98
q-63 109 -63 245t69 226l-119 115l82 84l104 -131q72 72 214 72z" />
    <glyph glyph-name="yen" unicode="&#xa5;" horiz-adv-x="1005" 
d="M201 1284h432l-8 -37l-80 -6q-33 -2 -42 -13t-2 -46q7 -34 53 -222t64 -266h5q246 336 335 482q37 57 -14 61l-90 10l8 37h346l-8 -37l-47 -4q-61 -4 -131 -90t-360 -481h256l-13 -51h-270l-31 -144h281l-15 -51h-278l-70 -324q-12 -51 47 -55l117 -10l-8 -37h-508l10 37
l103 10q51 4 63 55l72 324h-252l16 51h248l29 144h-252l16 51h230q-36 155 -83 322t-48 175q-18 63 -62 70l-70 8z" />
    <glyph glyph-name="brokenbar" unicode="&#xa6;" horiz-adv-x="423" 
d="M178 -338v676h115v-676h-115zM178 1300h115v-673h-115v673z" />
    <glyph glyph-name="section" unicode="&#xa7;" horiz-adv-x="888" 
d="M840 459q0 -211 -201 -408q-12 -131 -96 -210q-85 -79 -225 -79t-206 60t-67 129q0 80 78 80q35 0 43 -45q18 -92 72 -138t127 -45t115 51t42 138q0 127 -203 301q-109 92 -146 164q-38 72 -38 177q0 106 67 212t146 170q2 98 79 181t209 83t190 -52t59 -112
q0 -31 -24 -50t-48 -19q-35 0 -51 47q-41 143 -156 143q-76 0 -116 -43q-40 -42 -40 -108t34 -122q32 -56 145 -152t162 -176q49 -79 49 -177zM238 727q0 -166 149 -297q231 -207 250 -342q43 47 66 130q24 83 24 140q0 168 -152 306q-35 35 -64 62q-69 63 -92 93l-27 36
q-37 53 -44 120q-42 -37 -76 -117t-34 -131z" />
    <glyph glyph-name="dieresis" unicode="&#xa8;" horiz-adv-x="770" 
d="M760 1329q41 1 60 -27t14 -71q-14 -94 -103 -94q-81 0 -74 94q6 43 34 71t69 27zM414 1329q41 1 60 -27t13 -71q-18 -94 -102 -94t-74 94q6 43 34 71t69 27z" />
    <glyph glyph-name="copyright" unicode="&#xa9;" horiz-adv-x="1331" 
d="M993 791h-22q-35 188 -201 188q-106 0 -158 -87t-53 -211q0 -124 54 -220t169 -96q152 0 205 192h23l-27 -174q-96 -43 -219 -43q-176 0 -259 89t-83 242t90 243t262 90q125 0 219 -46v-167zM726 1219q-228 -1 -366 -149q-139 -148 -139 -390t150 -406q149 -162 375 -162
t367 151q140 151 140 391t-149 403q-150 162 -378 162zM739 68q-255 0 -417 169t-162 426t161 430t417 173t417 -173q162 -173 162 -427t-161 -426t-417 -172z" />
    <glyph glyph-name="ordfeminine" unicode="&#xaa;" horiz-adv-x="679" 
d="M618 621q37 0 105 102l22 -14q-76 -152 -184 -152q-47 0 -62 36t5 97l33 96h-7q-44 -66 -74 -106t-91 -81q-61 -42 -125 -42q-102 0 -103 135q0 82 39 177t131 174t211 79q61 0 100 -22l5 14h110l-125 -430q-18 -63 10 -63zM518 1085q-68 1 -134 -71t-96 -162t-30 -160
t47 -69q74 0 178 153q57 88 125 291q-22 18 -90 18z" />
    <glyph glyph-name="guillemotleft" unicode="&#xab;" horiz-adv-x="839" 
d="M844 838l18 -21l-268 -336q-14 -20 -6 -41l123 -336l-27 -22l-254 362q-8 18 8 35zM514 838l18 -21l-266 -336q-16 -20 -8 -41l125 -336l-27 -22l-254 362q-12 16 7 35z" />
    <glyph glyph-name="logicalnot" unicode="&#xac;" horiz-adv-x="964" 
d="M782 225v381h-686v88h791v-469h-105z" />
    <glyph glyph-name="uni00AD" unicode="&#xad;" horiz-adv-x="585" 
d="M127 528h414l-21 -96h-416z" />
    <glyph glyph-name="registered" unicode="&#xae;" horiz-adv-x="378" 
d="M250 1191q0 -61 38 -105t93 -44t94 43t39 105t-39 107q-39 44 -94 44t-93 -44t-38 -106zM382 1022q-66 0 -114 50q-47 50 -47 120t47 120t115 50t114 -49t46 -120t-47 -121q-48 -50 -114 -50zM365 1255v-51h14q37 0 37 32t-35 32q-16 -1 -16 -13zM387 1116h-82v10l14 2
q10 2 11 13v114q0 10 -11 13h-14v10h90q57 0 57 -36t-38 -42v-4q26 -10 32 -37t27 -33v-10h-16q-35 0 -41 16t-15 35q-6 27 -24 27h-12v-53q0 -10 8 -13l14 -2v-10z" />
    <glyph glyph-name="macron" unicode="&#xaf;" horiz-adv-x="770" 
d="M360 1264h441l-21 -97h-440z" />
    <glyph glyph-name="degree" unicode="&#xb0;" horiz-adv-x="563" 
d="M434 1255q-125 0 -125 -174t130 -174t130 174t-135 174zM437 852q-97 0 -158 59t-61 165t62 170q62 62 159 62t159 -60t64 -168q0 -108 -64 -168t-161 -60z" />
    <glyph glyph-name="plusminus" unicode="&#xb1;" horiz-adv-x="935" 
d="M111 0v86h794v-86h-794zM111 539v88h348v354h100v-354h346v-88h-346v-371h-100v371h-348z" />
    <glyph glyph-name="twosuperior" unicode="&#xb2;" 
d="M359 1358q-32 0 -48 17t-16 42q0 61 83 128t205 67t175 -58t53 -152t-61 -158t-178 -116q-247 -109 -302 -194h336q39 0 61 16t76 84l25 -12l-94 -195h-510l-6 7q18 72 106 154t194 146q215 131 215 285q1 155 -112 156q-49 0 -92 -45t-66 -131q-12 -41 -44 -41z" />
    <glyph glyph-name="threesuperior" unicode="&#xb3;" 
d="M408 1278q14 0 47 -8t69 -8q76 0 109 52t33 126q0 137 -98 137t-162 -143q-16 -37 -38 -37t-37 14q-13 14 -14 35q-1 58 67 112t185 54q225 0 226 -187q-1 -75 -57 -123t-148 -59v-8q174 -33 174 -176q0 -102 -79 -174t-243 -72q-115 0 -178 49t-63 107q0 29 17 51t48 22
t49 -47q45 -147 156 -147q147 0 147 231q0 135 -114 135l-105 -14q-29 0 -29 39t38 39z" />
    <glyph glyph-name="acute" unicode="&#xb4;" horiz-adv-x="770" 
d="M729 1370q23 0 43 -20q42 -42 2 -85q-15 -16 -37 -35t-30 -26l-203 -166l-17 17l146 219q35 56 54 76t42 20z" />
    <glyph glyph-name="mu" unicode="&#xb5;" horiz-adv-x="1134" 
d="M799 -23q-137 0 -76 207l63 219h-4q-92 -180 -219 -303t-248 -123q-45 0 -84 33q-8 -37 -49 -225t-49 -254l-6 -4q-37 0 -65 16q-28 15 -40 33t-28 49l8 29q8 29 22 77q13 48 38 144t44 164q19 67 25 96l211 809l168 12l-193 -729q-47 -172 48 -172q115 0 225 132
t173 279q62 147 157 478l157 23l-209 -807q-27 -96 23 -97q37 0 92 67t86 130l31 -22q-55 -113 -134 -187t-167 -74z" />
    <glyph glyph-name="paragraph" unicode="&#xb6;" horiz-adv-x="1062" 
d="M555 201q-195 0 -303 97t-109 300q0 203 131 372t351 169h274q14 80 19 96l88 29q-16 -86 -29 -125h203l-9 -33l-204 -19q-152 -609 -255 -1198q-46 -258 -50 -276h-99q2 6 66 265q63 259 151 678t107 523l-86 -4q-81 -6 -145 -111q-64 -106 -93 -236q-58 -261 3 -400
q32 -72 91 -92l-4 -25q-35 -10 -98 -10z" />
    <glyph glyph-name="periodcentered" unicode="&#xb7;" horiz-adv-x="368" 
d="M203 367q-88 0 -88 102q0 51 29 87q30 36 81 36q92 0 92 -109q0 -49 -31 -83q-32 -33 -83 -33z" />
    <glyph glyph-name="cedilla" unicode="&#xb8;" horiz-adv-x="770" 
d="M506 -257q0 -75 -57 -115t-135 -40t-126 29l11 37q25 -10 61 -10q113 0 113 90q0 48 -33 72t-66 26l-4 14l142 160l53 -2l-98 -106q53 -8 96 -44t43 -111z" />
    <glyph glyph-name="onesuperior" unicode="&#xb9;" 
d="M655 827h-424l11 31l92 10q53 6 61 45l129 586q6 35 -24 37l-109 10v25l281 41l6 -8l-152 -691q-4 -23 5 -31t38 -14l95 -10z" />
    <glyph glyph-name="ordmasculine" unicode="&#xba;" horiz-adv-x="612" 
d="M467 1090q-61 0 -111 -71t-74 -153t-24 -145q0 -131 96 -131q63 0 115 69q51 70 74 152t22 143q0 136 -98 136zM465 1120q217 0 217 -209q0 -150 -92 -251t-238 -101q-213 0 -213 201q0 147 91 254q92 106 235 106z" />
    <glyph glyph-name="guillemotright" unicode="&#xbb;" horiz-adv-x="839" 
d="M377 82l-19 20l267 334q18 23 10 41l-127 338l27 23l253 -365q12 -16 -6 -35zM47 82l-18 20l268 334q16 23 8 41l-125 338l27 23l254 -365q8 -14 -8 -35z" />
    <glyph glyph-name="onequarter" unicode="&#xbc;" horiz-adv-x="1495" 
d="M838 272h252l84 381h-5q-204 -201 -331 -381zM1077 221h-317l-10 23q45 66 193 230t282 298h90l-107 -500h131l-16 -51h-125l-29 -139q-8 -41 33 -45l76 -8l-6 -29h-359l5 29l77 8q43 4 52 45zM336 -41l-37 35l1042 1349l33 -30zM578 524h-426l10 31l96 10q49 6 57 45
l131 588q6 35 -26 37l-109 8l2 27l281 39l6 -9l-151 -690q-4 -24 5 -32t38 -13l94 -10z" />
    <glyph glyph-name="onehalf" unicode="&#xbd;" horiz-adv-x="1495" 
d="M1171 750q-49 0 -91 -46t-66 -135q-12 -39 -44 -39t-48 18t-17 42q0 61 83 129q83 67 205 67t175 -58t53 -153t-61 -160t-178 -115t-196 -102t-105 -92h333q41 0 63 18t77 87l22 -14l-92 -197h-510l-6 8q18 70 108 155t194 147q214 127 214 283q0 157 -113 157zM281 -41
l-35 35l1042 1349l35 -30zM557 524h-424l8 31l95 10q51 6 61 45l129 588q6 35 -27 37l-106 10l2 25l280 39l7 -9l-154 -690q-4 -24 5 -32t38 -13l92 -10z" />
    <glyph glyph-name="threequarters" unicode="&#xbe;" horiz-adv-x="1495" 
d="M879 272h249l84 381h-6q-218 -227 -327 -381zM1116 221h-317l-13 23q49 68 200 234t278 294h92l-107 -500h129l-16 -51h-123l-31 -139q-8 -41 33 -45l78 -8l-6 -29h-361l4 29l78 8q43 4 51 45zM371 -41l-33 35l1042 1349l35 -30zM367 975q16 0 49 -8t67 -9q141 0 142 179
q0 137 -101 137q-94 0 -157 -144q-13 -36 -37 -36t-38 14q-13 14 -13 35q0 57 66 111t183 55q225 0 226 -187q0 -76 -56 -124t-147 -58v-8q174 -33 174 -176q0 -102 -79 -174t-243 -72q-115 0 -177 49t-62 107q0 30 17 52t52 21q29 1 49 -59q44 -134 150 -135q147 0 148 231
q0 135 -117 135l-101 -14q-29 0 -32 31q0 47 37 47z" />
    <glyph glyph-name="questiondown" unicode="&#xbf;" horiz-adv-x="813" 
d="M639 -195q0 -75 -86 -149q-85 -74 -229 -74t-222 67t-78 178t72 188q41 44 69 67q28 24 130 98t141 121t39 88t-23 64q-45 43 -147 10l-6 22q63 74 172 74q74 0 117 -42t43 -122q0 -129 -187 -260q-258 -182 -258 -348t125 -166q137 0 197 225q10 43 46 43q36 -1 60 -23
t25 -61zM565 967q90 0 90 -103q-1 -51 -31 -86t-81 -35q-90 0 -90 107q0 51 29 84q30 33 83 33z" />
    <glyph glyph-name="Agrave" unicode="&#xc0;" horiz-adv-x="1294" 
d="M659 1624q0 22 24 46t42 24q17 0 33 -12t53 -62l135 -184l-14 -21l-189 125q-6 4 -16 10t-15 10q-6 4 -14 9q-8 6 -11 9t-15 13t-13 33zM866 596l-69 608h-2q-244 -449 -328 -608h399zM870 541h-432q-192 -356 -224 -422t34 -72l106 -10l-10 -37h-418l11 37l63 8
q49 6 80 31t78 98q272 444 661 1178h137q96 -877 124 -1069t41 -215t57 -25l73 -6l-10 -37h-489l8 37l104 10q31 3 41 19t8 57q-43 416 -43 418z" />
    <glyph glyph-name="Aacute" unicode="&#xc1;" horiz-adv-x="1294" 
d="M1130 1690q22 0 40 -25q17 -25 18 -52t-25 -38q-8 -4 -12 -7t-14 -8t-23 -13t-29 -13l-254 -109l-12 25l209 170q80 70 102 70zM866 596l-69 608h-2q-244 -449 -328 -608h399zM870 541h-432q-192 -356 -224 -422t34 -72l106 -10l-10 -37h-418l11 37l63 8q49 6 80 31
t78 98q272 444 661 1178h137q96 -877 124 -1069t41 -215t57 -25l73 -6l-10 -37h-489l8 37l104 10q31 3 41 19t8 57q-43 416 -43 418z" />
    <glyph glyph-name="Acircumflex" unicode="&#xc2;" horiz-adv-x="1294" 
d="M1120 1425l-18 -24l-184 117q-23 20 -52 2l-225 -119l-12 24l268 230h37zM866 596l-69 608h-2q-244 -449 -328 -608h399zM870 541h-432q-192 -356 -224 -422t34 -72l106 -10l-10 -37h-418l11 37l63 8q49 6 80 31t78 98q272 444 661 1178h137q96 -877 124 -1069t41 -215
t57 -25l73 -6l-10 -37h-489l8 37l104 10q31 3 41 19t8 57q-43 416 -43 418z" />
    <glyph glyph-name="Atilde" unicode="&#xc3;" horiz-adv-x="1294" 
d="M1018 1442q-16 0 -129 31q-92 31 -125 31t-53 -17q-20 -16 -43 -60l-25 13q41 160 158 159q33 0 127 -32q100 -29 112 -29q72 0 103 76l20 -10q-31 -162 -145 -162zM866 596l-69 608h-2q-244 -449 -328 -608h399zM870 541h-432q-192 -356 -224 -422t34 -72l106 -10
l-10 -37h-418l11 37l63 8q49 6 80 31t78 98q272 444 661 1178h137q96 -877 124 -1069t41 -215t57 -25l73 -6l-10 -37h-489l8 37l104 10q31 3 41 19t8 57q-43 416 -43 418z" />
    <glyph glyph-name="Adieresis" unicode="&#xc4;" horiz-adv-x="1294" 
d="M1093 1622q41 0 63 -27t16 -67t-36 -65q-28 -25 -68 -25t-62 26t-18 66q5 40 34 66t71 26zM740 1622q42 0 64 -27t16 -67t-35 -65t-69 -25t-64 26t-18 66t34 66q30 26 72 26zM866 596q-46 383 -71 608h-2q-43 -80 -169 -313t-159 -295h401zM870 541h-434
q-192 -356 -224 -422t34 -72l106 -10l-10 -37h-418l10 37l64 8q49 6 81 31t77 98q272 444 661 1178h137q134 -1226 167 -1284q13 -23 55 -25l75 -6l-10 -37h-489l8 37l104 10q31 3 41 19t8 57q-43 416 -43 418z" />
    <glyph glyph-name="Aring" unicode="&#xc5;" horiz-adv-x="1294" 
d="M950 1712q74 0 117 -39t28 -125t-71 -125t-132 -39q-75 0 -118 39t-26 125q30 164 202 164zM942 1681q-78 0 -104 -133t57 -133q82 0 106 133q25 133 -59 133zM866 596l-69 608h-2q-244 -449 -328 -608h399zM870 541h-432q-192 -356 -224 -422t34 -72l106 -10l-10 -37
h-418l11 37l63 8q49 6 80 31t78 98q272 444 661 1178h137q96 -877 124 -1069t41 -215t57 -25l73 -6l-10 -37h-489l8 37l104 10q31 3 41 19t8 57q-43 416 -43 418z" />
    <glyph glyph-name="AE" unicode="&#xc6;" horiz-adv-x="1728" 
d="M563 674h332l141 622h-22l-113 -155q-113 -156 -225 -312zM1489 1303h-229q-27 -1 -37 -11t-19 -45l-131 -573h277q154 0 194 60q20 30 51 106h39l-90 -420h-41q10 131 -16 166q-27 35 -150 35h-274l-86 -402q-14 -63 -15 -91q-2 -28 22 -50t69 -25q45 -4 143 -4
q238 0 308 40t157 233h39l-94 -322h-1033l9 37l108 12q37 1 53 21t27 71l113 480h-361q-246 -330 -354 -500q-20 -31 -14 -51t32 -23l113 -10l-10 -37h-424l12 37l68 6q59 4 127 84q225 276 843 1114q25 35 21 47t-37 15l-170 12l14 37h1082l-72 -308h-39q-2 45 1 80t-3 62
t-9 50t-32 41q-41 26 -182 26z" />
    <glyph glyph-name="Ccedilla" unicode="&#xc7;" horiz-adv-x="1288" 
d="M963 1382q262 0 421 -98l-69 -295h-39q6 178 -61 265t-267 87q-123 0 -226 -54t-170 -141q-194 -252 -198 -657q0 -239 104 -359t283 -120q113 0 201 46t142 114t114 176h41l-104 -293q-163 -82 -390 -82l-65 -73q53 -6 97 -42t44 -114t-59 -118q-58 -40 -140 -40
t-126 29l14 37q25 -10 59 -10q117 0 117 90q0 48 -34 74t-64 26l-6 16l112 125q-543 25 -549 559q0 270 142 500q217 352 676 352z" />
    <glyph glyph-name="Egrave" unicode="&#xc8;" horiz-adv-x="1155" 
d="M590 1630q0 24 23 49q24 25 42 25q17 0 33 -12t53 -64l136 -182l-15 -21l-188 125q-8 4 -20 12q-13 9 -39 26q-25 18 -25 42zM903 1303h-219q-25 -1 -35 -11t-18 -43l-121 -518h270q154 0 195 61q20 30 49 103h39l-86 -387h-39q6 102 -20 135q-27 33 -150 33h-266
l-103 -457q-23 -71 -13 -109t56 -50q47 -12 223 -11q176 0 246 40t166 235h39l-108 -324h-1012l10 37l109 12q35 1 51 21t29 73l243 1069q10 52 1 70t-44 21l-119 10l11 39h948l-70 -308h-39q8 186 -23 223q-32 36 -200 36z" />
    <glyph glyph-name="Eacute" unicode="&#xc9;" horiz-adv-x="1155" 
d="M1038 1688q22 0 40 -26q42 -59 -3 -88q-32 -21 -80 -40l-256 -109l-10 23l207 172q80 68 102 68zM903 1303h-219q-25 -1 -35 -11t-18 -43l-121 -518h270q154 0 195 61q20 30 49 103h39l-86 -387h-39q6 102 -20 135q-27 33 -150 33h-266l-103 -457q-23 -71 -13 -109
t56 -50q47 -12 223 -11q176 0 246 40t166 235h39l-108 -324h-1012l10 37l109 12q35 1 51 21t29 73l243 1069q10 52 1 70t-44 21l-119 10l11 39h948l-70 -308h-39q8 186 -23 223q-32 36 -200 36z" />
    <glyph glyph-name="Ecircumflex" unicode="&#xca;" horiz-adv-x="1155" 
d="M1069 1442l-18 -23l-185 115q-23 23 -51 2l-225 -117l-12 23l268 229h37zM903 1303h-219q-25 -1 -35 -11t-18 -43l-121 -518h270q154 0 195 61q20 30 49 103h39l-86 -387h-39q6 102 -20 135q-27 33 -150 33h-266l-103 -457q-23 -71 -13 -109t56 -50q47 -12 223 -11
q176 0 246 40t166 235h39l-108 -324h-1012l10 37l109 12q35 1 51 21t29 73l243 1069q10 52 1 70t-44 21l-119 10l11 39h948l-70 -308h-39q8 186 -23 223q-32 36 -200 36z" />
    <glyph glyph-name="Edieresis" unicode="&#xcb;" horiz-adv-x="1155" 
d="M1023 1622q41 0 63 -27t16 -67t-35 -65t-69 -25t-62 26t-18 66q6 40 34 66t71 26zM671 1622q41 0 63 -27t16 -67t-34 -65t-69 -25t-65 26t-18 66q5 40 35 66t72 26zM903 1303h-219q-25 -1 -35 -11t-18 -43l-121 -518h270q154 0 195 61q20 30 49 103h39l-86 -387h-39
q6 102 -20 135q-27 33 -150 33h-266l-103 -457q-23 -71 -13 -109t56 -50q47 -12 223 -11q176 0 246 40t166 235h39l-108 -324h-1012l10 37l109 12q35 1 51 21t29 73l243 1069q10 52 1 70t-44 21l-119 10l11 39h948l-70 -308h-39q8 186 -23 223q-32 36 -200 36z" />
    <glyph glyph-name="Igrave" unicode="&#xcc;" horiz-adv-x="661" 
d="M342 1630q0 14 24 39t43 25t34 -14t51 -62l137 -182l-15 -21l-190 125q-11 6 -28 17q-17 12 -32 22t-20 24q-4 13 -4 27zM289 1352h532l-10 -37l-109 -10q-61 -6 -79 -95l-242 -1067q-23 -96 43 -98l115 -8l-9 -37h-534l8 37l111 12q60 4 82 94l239 1067q18 86 -45 93
l-112 12z" />
    <glyph glyph-name="Iacute" unicode="&#xcd;" horiz-adv-x="661" 
d="M811 1688q21 0 39 -26t18 -50t-22 -38t-50 -26q-26 -12 -30 -14l-256 -109l-10 23l207 172q84 68 104 68zM289 1352h532l-10 -37l-106 -10q-35 -2 -53 -25t-27 -70l-244 -1067q-23 -96 43 -98l115 -8l-9 -37h-534l8 37l111 12q60 4 82 94l239 1067q18 86 -43 93l-114 12z
" />
    <glyph glyph-name="Icircumflex" unicode="&#xce;" horiz-adv-x="661" 
d="M813 1446l-18 -25l-187 117q-20 20 -49 2l-225 -119l-12 25l268 229h37zM289 1352h532l-10 -37l-106 -10q-35 -2 -53 -25t-27 -70l-244 -1067q-23 -96 43 -98l115 -8l-9 -37h-534l8 37l111 12q60 4 82 94l239 1067q18 86 -43 93l-114 12z" />
    <glyph glyph-name="Idieresis" unicode="&#xcf;" horiz-adv-x="661" 
d="M775 1632q42 0 64 -26q21 -26 15 -67q-6 -39 -35 -65t-69 -26t-62 26q-24 26 -18 66t34 66t71 26zM399 1448q-41 0 -65 26t-18 66q5 40 35 66t72 26q41 0 63 -26t16 -67q-6 -39 -34 -65t-69 -26zM289 1352h532l-10 -37l-109 -10q-61 -6 -79 -95l-242 -1067
q-23 -96 43 -98l115 -8l-9 -37h-534l8 37l109 12q35 2 53 24t31 70l239 1067q18 86 -45 93l-112 12z" />
    <glyph glyph-name="Eth" unicode="&#xd0;" horiz-adv-x="1492" 
d="M842 1313q-114 -1 -151 -17q-38 -16 -50 -65l-113 -500h346l-18 -55h-342l-119 -526q-12 -60 28 -86t124 -25q352 0 545 221t192 586q0 124 -36 212q-36 87 -81 137t-128 84t-197 34zM827 1352q287 0 468 -119q93 -61 145 -171t51 -261q0 -269 -120 -447t-299 -266
t-460 -88h-600l11 37l108 12q35 2 52 24t28 70l119 533h-176l14 55h176l109 479q20 86 -41 93l-117 10l8 39h524z" />
    <glyph glyph-name="Ntilde" unicode="&#xd1;" horiz-adv-x="1460" 
d="M1102 1456q-16 0 -129 31q-92 31 -125 31t-53 -16t-43 -62l-25 14q41 160 158 160q33 0 127 -33q100 -29 112 -29q72 0 103 76l20 -10q-31 -162 -145 -162zM596 1350l559 -1100h8q201 888 210 954t-11 80t-76 21l-82 8l6 37h432l-6 -37l-61 -6q-49 -5 -76 -21t-60 -119
t-268 -1167h-110q-139 310 -325 679q-185 368 -244 488h-7q-209 -905 -221 -1042q-4 -43 19 -60t73 -22l74 -6l-6 -37h-430l6 37l61 6q47 4 73 20t50 89t121 479q96 406 131 579q18 82 -59 90l-119 13l10 37h328z" />
    <glyph glyph-name="Ograve" unicode="&#xd2;" horiz-adv-x="1452" 
d="M719 1662q0 16 31 47t68 3q15 -12 52 -63l138 -183l-17 -20l-188 125q-71 35 -82 69q-2 6 -2 22zM901 1346q-115 0 -210 -60t-157 -158q-186 -290 -190 -679q0 -203 93 -322t251 -119q119 0 217 60t161 157q187 290 187 686q0 207 -93 321t-259 114zM895 1386
q253 0 405 -143t152 -415t-119 -486q-201 -375 -620 -375q-287 0 -427 153q-140 152 -140 412t137 494q217 360 612 360z" />
    <glyph glyph-name="Oacute" unicode="&#xd3;" horiz-adv-x="1452" 
d="M1188 1710q23 0 40 -26t17 -50q0 -35 -88 -73q-8 -4 -12 -7l-256 -108l-10 22l206 172q80 70 103 70zM901 1346q-115 0 -210 -60t-157 -158q-186 -290 -190 -679q0 -203 93 -322t251 -119q119 0 217 60t161 157q187 290 187 686q0 207 -93 321t-259 114zM895 1386
q253 0 405 -143t152 -415t-119 -486q-201 -375 -620 -375q-287 0 -427 153q-140 152 -140 412t137 494q217 360 612 360z" />
    <glyph glyph-name="Ocircumflex" unicode="&#xd4;" horiz-adv-x="1452" 
d="M1182 1466l-19 -22l-184 115q-23 23 -51 2l-226 -117l-12 22l268 230h37zM901 1346q-115 0 -210 -60t-157 -158q-186 -290 -190 -679q0 -203 93 -322t251 -119q119 0 217 60t161 157q187 290 187 686q0 207 -93 321t-259 114zM895 1386q253 0 405 -143t152 -415
t-119 -486q-201 -375 -620 -375q-287 0 -427 153q-140 152 -140 412t137 494q217 360 612 360z" />
    <glyph glyph-name="Otilde" unicode="&#xd5;" horiz-adv-x="1452" 
d="M1096 1483q-18 0 -131 30q-92 31 -124 31t-54 -16t-42 -60l-24 13q41 160 158 159q33 0 128 -30t111 -31q72 0 103 76l20 -10q-31 -162 -145 -162zM901 1346q-115 0 -210 -60t-157 -158q-186 -290 -190 -679q0 -203 93 -322t251 -119q119 0 217 60t161 157
q187 290 187 686q0 207 -93 321t-259 114zM895 1386q253 0 405 -143t152 -415t-119 -486q-201 -375 -620 -375q-287 0 -427 153q-140 152 -140 412t137 494q217 360 612 360z" />
    <glyph glyph-name="Odieresis" unicode="&#xd6;" horiz-adv-x="1452" 
d="M1150 1647q42 0 64 -27t15 -67q-6 -39 -35 -65t-69 -26q-41 0 -63 26t-17 66t34 67q29 26 71 26zM798 1647q42 0 64 -27t15 -67q-6 -39 -34 -65t-69 -26q-40 0 -64 26t-19 66t35 67q30 26 72 26zM912 1346q-152 0 -265 -92t-175 -231q-128 -289 -128 -574q0 -203 93 -322
t251 -119q119 0 217 60t161 157q187 290 187 686q0 207 -94 321q-95 114 -247 114zM895 1386q253 0 405 -143t152 -415t-119 -486q-201 -375 -620 -375q-287 0 -427 153q-140 152 -140 412t137 494q217 360 612 360z" />
    <glyph glyph-name="multiply" unicode="&#xd7;" horiz-adv-x="964" 
d="M868 774l-303 -307l303 -311l-59 -62l-305 309l-305 -309l-58 62l303 311l-303 307l58 66l305 -310l305 310z" />
    <glyph glyph-name="Oslash" unicode="&#xd8;" horiz-adv-x="1452" 
d="M1253 932q0 131 -55 237l-776 -1019q90 -137 266 -138q119 0 217 60t161 156q62 95 106 217q81 225 81 487zM393 201l776 1016q-94 125 -268 124q-115 0 -210 -60q-95 -59 -157 -155q-186 -287 -190 -677q0 -144 49 -248zM1452 809q0 -254 -119 -467q-92 -170 -237 -270
q-144 -100 -374 -100t-366 94l-106 -142l-41 39l104 135q-168 142 -168 418t138 510q215 356 610 356q203 0 336 -88l84 113l39 -33l-82 -108q182 -150 182 -457z" />
    <glyph glyph-name="Ugrave" unicode="&#xd9;" horiz-adv-x="1505" 
d="M762 1628q0 24 23 49q24 25 43 25q18 0 34 -13t51 -63l138 -182l-15 -21l-190 125q-8 4 -20 12t-38 26t-26 42zM707 -33q-580 0 -453 533l168 710q23 86 -43 93l-115 10l10 37h535l-8 -37l-109 -8q-35 -3 -52 -23t-30 -72l-164 -714q-115 -489 269 -490q186 0 284 125
t148 348l168 731q10 47 1 69t-44 24l-113 10l8 37h521l-11 -37l-108 -10q-35 -3 -52 -23t-30 -70l-170 -727q-86 -370 -312 -466q-75 -32 -143 -41t-155 -9z" />
    <glyph glyph-name="Uacute" unicode="&#xda;" horiz-adv-x="1505" 
d="M913 1413l-10 23l207 172q80 70 102 70t41 -26q44 -64 -14 -97q-26 -14 -70 -33zM707 -33q-580 0 -453 533l168 710q23 86 -43 93l-115 10l10 37h535l-8 -37l-109 -8q-35 -3 -52 -23t-30 -72l-164 -714q-115 -489 269 -490q186 0 284 125t148 348l168 731q10 47 1 69
t-44 24l-113 10l8 37h521l-11 -37l-108 -10q-35 -3 -52 -23t-30 -70l-170 -727q-86 -370 -312 -466q-75 -32 -143 -41t-155 -9z" />
    <glyph glyph-name="Ucircumflex" unicode="&#xdb;" horiz-adv-x="1505" 
d="M1223 1464l-19 -22l-184 117q-20 20 -49 2l-228 -119l-10 22l266 232h37zM707 -33q-580 0 -453 533l168 710q23 86 -43 93l-115 10l10 37h535l-8 -37l-109 -8q-35 -3 -52 -23t-30 -72l-164 -714q-115 -489 269 -490q186 0 284 125t148 348l168 731q10 47 1 69t-44 24
l-113 10l8 37h521l-11 -37l-108 -10q-35 -3 -52 -23t-30 -70l-170 -727q-86 -370 -312 -466q-75 -32 -143 -41t-155 -9z" />
    <glyph glyph-name="Udieresis" unicode="&#xdc;" horiz-adv-x="1505" 
d="M1197 1632q42 0 64 -26q21 -26 15 -67q-6 -39 -35 -65t-69 -26t-62 26t-18 66q6 40 34 67q29 25 71 25zM819 1448q-41 0 -65 26t-18 66q5 40 35 66t72 26q41 0 63 -26t16 -67q-6 -39 -34 -65t-69 -26zM707 -33q-580 0 -453 533l168 710q23 86 -43 93l-115 10l10 37h535
l-8 -37l-109 -8q-35 -3 -52 -23t-30 -72l-164 -714q-115 -489 269 -490q186 0 284 125t148 348l168 731q10 47 1 69t-44 24l-113 10l8 37h521l-11 -37l-108 -10q-35 -3 -52 -23t-30 -70l-170 -727q-86 -370 -312 -466q-75 -32 -143 -41t-155 -9z" />
    <glyph glyph-name="Yacute" unicode="&#xdd;" horiz-adv-x="1198" 
d="M1102 1690q20 0 38 -26t19 -52q-1 -26 -27 -41t-34 -19t-41 -18l-256 -109l-10 23l206 172q85 70 105 70zM203 1352h487l-8 -37l-104 -10q-53 -1 -39 -49t186 -629h6q326 436 440 626q33 51 -30 54l-101 8l9 37h403l-8 -37q-82 -5 -117 -23t-88 -78q-127 -141 -446 -598
q-43 -59 -58 -122l-84 -361q-18 -78 47 -84l148 -12l-8 -37h-598l8 37l139 14q37 3 54 21t26 61l84 373q14 57 0 104q-109 369 -193 615q-20 55 -44 68t-117 22z" />
    <glyph glyph-name="Thorn" unicode="&#xde;" horiz-adv-x="1169" 
d="M979 758q0 126 -65 198t-176 72t-138 -14t-37 -58l-117 -520q-13 -65 142 -65q391 0 391 387zM801 1069q193 0 285 -73t94 -251q0 -100 -38 -179q-117 -244 -542 -249q-57 0 -176 23l-43 -197q-24 -90 47 -94l115 -12l-8 -37h-535l8 37l111 12q33 5 51 25t31 69l239 1067
q10 50 1 70t-44 23l-114 12l8 37h528l-10 -37l-107 -10q-37 -3 -54 -23t-27 -72l-31 -141h211z" />
    <glyph glyph-name="germandbls" unicode="&#xdf;" horiz-adv-x="1087" 
d="M731 43q141 0 139 193q-1 101 -134 302q-15 24 -32 48t-25 44q-7 21 -17 49t-11 62q1 115 103 221t217 156q14 57 14 107q0 111 -52 168q-51 57 -117 57q-120 0 -205 -129q-67 -103 -124 -330q-20 -84 -47 -211l-147 -708q-74 -360 -209 -486q-111 -104 -221 -102
q-68 0 -117 30t-49 70t29 71q30 32 62 32t52 -41q63 -90 117 -90q18 0 30 5q29 13 54 115q10 24 192 918l60 295h-168l16 55h166q129 543 522 543q145 0 217 -72t70 -190q0 -57 -22 -99q-144 -41 -222 -124t-77 -181q0 -68 112 -233q35 -49 51 -75q56 -91 58 -179
q0 -135 -112 -247t-265 -112q-82 0 -140 33q-59 33 -61 72q-2 38 23 66t53 28t47 -29q61 -102 170 -102z" />
    <glyph glyph-name="agrave" unicode="&#xe0;" horiz-adv-x="1071" 
d="M553 1370q0 18 32 38q58 37 80 2q11 -19 27 -75l72 -250l-25 -10q-149 220 -167 248q-19 29 -19 47zM854 877q-55 35 -125 34q-109 0 -206 -82q-163 -138 -253 -433q-35 -118 -34 -201q0 -135 86 -136q123 0 264 207t207 400q38 125 61 211zM229 -25q-174 0 -174 234
q0 174 110 392t301 313q110 54 236 55q52 -1 100 -17t64 -34l8 30h152l-211 -782q-27 -106 21 -107q63 0 172 203l30 -18q-123 -268 -299 -269q-133 0 -67 230l57 198h-4q-248 -428 -496 -428z" />
    <glyph glyph-name="aacute" unicode="&#xe1;" horiz-adv-x="1071" 
d="M943 1388q22 -22 22 -42q1 -20 -7 -30q-8 -9 -16 -19t-30 -27q-23 -17 -33 -27l-203 -168l-19 19l146 219q35 53 55 75t42 22t43 -22zM854 877q-55 35 -125 34q-109 0 -206 -82q-163 -138 -253 -433q-35 -118 -34 -201q0 -135 86 -136q123 0 264 207t207 400
q38 125 61 211zM229 -25q-174 0 -174 234q0 174 110 392t301 313q110 54 236 55q52 -1 100 -17t64 -34l8 30h152l-211 -782q-27 -106 21 -107q63 0 172 203l30 -18q-123 -268 -299 -269q-133 0 -67 230l57 198h-4q-248 -428 -496 -428z" />
    <glyph glyph-name="acircumflex" unicode="&#xe2;" horiz-adv-x="1071" 
d="M899 1092l-18 -17l-119 164q-18 18 -41 4l-189 -168l-18 17l242 317h32zM854 877q-55 35 -125 34q-109 0 -206 -82q-163 -138 -253 -433q-35 -118 -34 -201q0 -135 86 -136q123 0 264 207t207 400q38 125 61 211zM229 -25q-174 0 -174 234q0 174 110 392t301 313
q110 54 236 55q52 -1 100 -17t64 -34l8 30h152l-211 -782q-27 -106 21 -107q63 0 172 203l30 -18q-123 -268 -299 -269q-133 0 -67 230l57 198h-4q-248 -428 -496 -428z" />
    <glyph glyph-name="atilde" unicode="&#xe3;" horiz-adv-x="1071" 
d="M834 1128q-31 0 -127 37q-92 31 -123 31t-53 -17t-44 -63l-22 12q37 164 156 164q39 0 123 -32t112 -31q69 0 100 78l23 -7q-35 -172 -145 -172zM854 877q-55 35 -125 34q-109 0 -206 -82q-163 -138 -253 -433q-35 -118 -34 -201q0 -135 86 -136q123 0 264 207t207 400
q38 125 61 211zM229 -25q-174 0 -174 234q0 174 110 392t301 313q110 54 236 55q52 -1 100 -17t64 -34l8 30h152l-211 -782q-27 -106 21 -107q63 0 172 203l30 -18q-123 -268 -299 -269q-133 0 -67 230l57 198h-4q-248 -428 -496 -428z" />
    <glyph glyph-name="adieresis" unicode="&#xe4;" horiz-adv-x="1071" 
d="M911 1329q41 0 61 -27q19 -28 13 -71q-14 -94 -102 -94q-83 0 -74 94q5 43 33 71t69 27zM565 1329q41 0 61 -27q19 -28 13 -71q-18 -94 -100 -94q-43 0 -63 25q-19 26 -13 69q5 43 33 71t69 27zM854 877q-55 35 -125 34q-109 0 -206 -82q-163 -138 -253 -433
q-35 -118 -34 -201q0 -135 86 -136q123 0 264 207t207 400q38 125 61 211zM229 -25q-174 0 -174 234q0 174 110 392t301 313q110 54 236 55q52 -1 100 -17t64 -34l8 30h152l-211 -782q-27 -106 21 -107q63 0 172 203l30 -18q-123 -268 -299 -269q-133 0 -67 230l57 198h-4
q-248 -428 -496 -428z" />
    <glyph glyph-name="aring" unicode="&#xe5;" horiz-adv-x="1071" 
d="M772 1417q76 0 122 -45t30 -132t-74 -126t-136 -39q-77 0 -123 41t-30 129q15 88 75 130t136 42zM764 1384q-80 0 -106 -139t61 -139q82 0 106 139q27 139 -61 139zM852 877q-55 35 -123 34q-109 0 -206 -82q-163 -138 -253 -433q-35 -118 -34 -201q0 -135 86 -136
q86 0 187 113t173 247t110 253t60 205zM229 -25q-174 0 -174 234q0 174 110 392t301 313q110 54 236 55q52 -1 100 -17t62 -34l8 30h152l-209 -782q-27 -106 21 -107q63 0 172 203l30 -18q-123 -268 -299 -269q-133 0 -67 230l57 198h-4q-248 -428 -496 -428z" />
    <glyph glyph-name="ae" unicode="&#xe6;" horiz-adv-x="1454" 
d="M1321 784q0 56 -29 96t-78 40q-116 0 -208 -136t-119 -303q215 25 325 110t109 193zM706 893q-92 0 -186 -79q-159 -133 -251 -422q-36 -116 -36 -199q0 -135 78 -136q68 0 158 87t176 223q119 196 199 497q-47 29 -138 29zM1051 51q170 0 335 225l25 -24
q-172 -276 -444 -277q-99 0 -176 57q-93 69 -93 261q0 6 9 84l-5 -2q-238 -399 -475 -400q-90 0 -132 67t-42 153t24 178q54 208 207 381q76 84 190 139t224 55t172 -41l74 82h55l-45 -139l4 -4q137 123 306 123q219 0 219 -181q0 -86 -67 -154q-109 -112 -363 -170
q-92 -22 -174 -30q0 -80 -5 -115q0 -268 177 -268z" />
    <glyph glyph-name="ccedilla" unicode="&#xe7;" horiz-adv-x="796" 
d="M850 797q0 -41 -33 -65t-72 -23q-47 0 -53 49q-8 90 -30 127q-23 37 -80 37q-84 0 -162 -100t-122 -241q-44 -139 -44 -267t36 -194t136 -67q176 1 332 232l26 -25q-152 -252 -368 -287l-70 -73q53 -8 95 -44t42 -112t-56 -116q-55 -40 -131 -40t-130 29l12 37
q25 -10 60 -10q115 0 114 90q0 48 -33 72t-65 26l-4 14l108 123q-288 -4 -286 316q0 167 68 323t196 259q129 103 287 104q107 0 167 -49t60 -125z" />
    <glyph glyph-name="egrave" unicode="&#xe8;" horiz-adv-x="831" 
d="M432 1348q0 20 32 40t51 21q19 0 29 -19t27 -75l70 -248l-23 -10l-133 196q-53 75 -53 95zM590 920q-109 0 -202 -138t-122 -307q201 27 317 108t115 214q0 53 -28 88q-29 35 -80 35zM643 969q111 -1 163 -53t52 -136q0 -268 -596 -350q-6 -37 -6 -90q0 -280 179 -280
t335 229l27 -25q-92 -150 -210 -220t-225 -69q-107 0 -188 57q-100 71 -98 261q0 123 42 249t118 218q170 209 407 209z" />
    <glyph glyph-name="eacute" unicode="&#xe9;" horiz-adv-x="831" 
d="M823 1313q0 -13 -1 -19t-3 -10t-6 -10t-7 -13t-21 -19l-21 -16q-4 -2 -13 -10t-14 -12l-202 -168l-17 19l146 219q35 53 55 75q20 21 42 21t42 -22t20 -35zM590 920q-109 0 -202 -138t-122 -307q201 27 317 108t115 214q0 53 -28 88q-29 35 -80 35zM643 969
q111 -1 163 -53t52 -136q0 -268 -596 -350q-6 -37 -6 -90q0 -280 179 -280t335 229l27 -25q-92 -150 -210 -220t-225 -69q-107 0 -188 57q-100 71 -98 261q0 123 42 249t118 218q170 209 407 209z" />
    <glyph glyph-name="ecircumflex" unicode="&#xea;" horiz-adv-x="831" 
d="M778 1055l-18 -19l-119 164q-18 18 -41 4l-188 -168l-19 19l242 315h33zM590 920q-109 0 -202 -138t-122 -307q201 27 317 108t115 214q0 53 -28 88q-29 35 -80 35zM643 969q111 -1 163 -53t52 -136q0 -268 -596 -350q-6 -37 -6 -90q0 -280 179 -280t335 229l27 -25
q-92 -150 -210 -220t-225 -69q-107 0 -188 57q-100 71 -98 261q0 123 42 249t118 218q170 209 407 209z" />
    <glyph glyph-name="edieresis" unicode="&#xeb;" horiz-adv-x="831" 
d="M793 1329q41 1 60 -27t13 -71q-14 -94 -102 -94q-81 0 -74 94q6 43 34 71t69 27zM446 1329q41 0 61 -27q19 -28 13 -71q-18 -94 -100 -94q-43 0 -63 25q-19 26 -13 69t34 71t68 27zM590 920q-109 0 -202 -138t-122 -307q201 27 317 108t115 214q0 53 -28 88
q-29 35 -80 35zM643 969q111 -1 163 -53t52 -136q0 -268 -596 -350q-6 -37 -6 -90q0 -280 179 -280t335 229l27 -25q-92 -150 -210 -220t-225 -69q-107 0 -188 57q-100 71 -98 261q0 123 42 249t118 218q170 209 407 209z" />
    <glyph glyph-name="igrave" unicode="&#xec;" horiz-adv-x="550" 
d="M270 1374q0 14 32 34q61 39 81 2q10 -19 27 -75l71 -248l-24 -12l-133 197q-8 12 -26 38t-23 38t-5 26zM309 57q35 1 86 69t88 138l27 -18q-123 -270 -297 -271q-127 0 -80 191l166 620q14 50 6 68t-47 23l-96 8l8 28l328 54l6 -6l-213 -795q-31 -109 18 -109z" />
    <glyph glyph-name="iacute" unicode="&#xed;" horiz-adv-x="550" 
d="M610 1409q20 0 42 -20t22 -43t-18 -41t-39 -37q-21 -18 -29 -25l-203 -168l-18 19l145 219q61 96 98 96zM309 57q35 1 86 69t88 138l27 -18q-123 -270 -297 -271q-127 0 -80 191l166 620q14 50 6 68t-47 23l-96 8l8 28l328 54l6 -6l-213 -795q-31 -109 18 -109z" />
    <glyph glyph-name="icircumflex" unicode="&#xee;" horiz-adv-x="550" 
d="M616 1055l-18 -19l-119 164q-18 18 -41 4l-188 -168l-19 19l242 315h35zM309 57q35 1 86 69t88 138l27 -18q-123 -270 -297 -271q-127 0 -80 191l166 620q14 50 6 68t-47 23l-96 8l8 28l328 54l6 -6l-213 -795q-31 -109 18 -109z" />
    <glyph glyph-name="idieresis" unicode="&#xef;" horiz-adv-x="550" 
d="M649 1329q41 0 61 -27q19 -28 13 -71q-14 -94 -102 -94q-83 0 -74 94q5 43 33 71t69 27zM303 1329q41 0 61 -27q19 -28 13 -71q-18 -94 -101 -94q-43 -1 -62 25t-13 69t33 71q28 27 69 27zM309 57q35 -1 88 69t86 138l27 -18q-123 -270 -297 -271q-127 0 -80 191l166 620
q14 50 6 68t-47 23l-96 8l8 28l328 54l6 -6l-213 -795q-31 -109 18 -109z" />
    <glyph glyph-name="eth" unicode="&#xf0;" horiz-adv-x="1001" 
d="M639 928q-92 0 -169 -76q-131 -129 -188 -410q-24 -113 -24 -198q0 -229 168 -230q92 0 168 77q120 122 179 394q22 98 22 183q1 86 -15 138t-56 87t-85 35zM419 -25q-175 1 -256 93t-81 242t69 306q40 94 100 170q59 76 165 129t208 53t134 -18l4 4q-12 60 -48 138
t-77 129l-246 -103l-22 45l235 101q-74 88 -239 198v13l45 12q182 -84 284 -180l205 88l23 -43l-193 -84q123 -130 183 -272t60 -317t-58 -332t-189 -265t-306 -107z" />
    <glyph glyph-name="ntilde" unicode="&#xf1;" horiz-adv-x="1124" 
d="M860 1128q-29 0 -125 34t-127 34q-30 0 -52 -17t-44 -63l-23 12q37 164 156 164q39 0 126 -32t112 -31q67 0 98 78l23 -7q-35 -172 -144 -172zM876 969q122 0 150 -83t-12 -198l-154 -524q-31 -109 19 -109q68 0 174 199l28 -18q-117 -262 -290 -263q-74 -1 -97 55t4 136
l168 586q18 55 3 95t-64 40q-113 1 -229 -141t-174 -281q-60 -139 -154 -463l-158 -23l205 807q14 45 9 68t-38 25l-116 8l6 28l346 54l4 -6l-125 -424h6q92 180 230 306q137 126 259 126z" />
    <glyph glyph-name="ograve" unicode="&#xf2;" horiz-adv-x="1026" 
d="M510 1367q0 19 32 41t51 22t29 -20t27 -77l70 -248l-23 -10l-133 197q-53 76 -53 95zM639 930q-88 0 -164 -76q-124 -124 -186 -410q-25 -111 -25 -196q0 -233 166 -234q96 0 173 86q123 138 179 435q20 106 21 172q0 223 -164 223zM651 969q131 0 229 -79
q98 -78 99 -274q0 -196 -123 -391q-156 -250 -424 -250q-174 1 -259 95t-85 245t69 306q40 91 99 167q60 76 162 128t233 53z" />
    <glyph glyph-name="oacute" unicode="&#xf3;" horiz-adv-x="1026" 
d="M900 1368q22 -20 22 -44t-20 -42q-20 -20 -40 -36q-22 -16 -28 -23l-203 -166l-17 16l146 219q61 96 98 97q20 -1 42 -21zM639 930q-88 0 -164 -76q-124 -124 -186 -410q-25 -111 -25 -196q0 -233 166 -234q96 0 173 86q123 138 179 435q20 106 21 172q0 223 -164 223z
M651 969q131 0 229 -79q98 -78 99 -274q0 -196 -123 -391q-156 -250 -424 -250q-174 1 -259 95t-85 245t69 306q40 91 99 167q60 76 162 128t233 53z" />
    <glyph glyph-name="ocircumflex" unicode="&#xf4;" horiz-adv-x="1026" 
d="M856 1053l-18 -17l-121 164q-18 18 -41 4l-187 -168l-20 17l244 317h32zM639 930q-88 0 -164 -76q-124 -124 -186 -410q-25 -111 -25 -196q0 -233 166 -234q96 0 173 86q123 138 179 435q20 106 21 172q0 223 -164 223zM651 969q131 0 229 -79q98 -78 99 -274
q0 -196 -123 -391q-156 -250 -424 -250q-174 1 -259 95t-85 245t69 306q40 91 99 167q60 76 162 128t233 53z" />
    <glyph glyph-name="otilde" unicode="&#xf5;" horiz-adv-x="1026" 
d="M811 1128q-33 0 -129 37q-92 31 -123 31t-53 -17t-43 -65l-23 12q37 166 156 166q39 0 124 -32t114 -31q69 0 100 78l20 -7q-35 -172 -143 -172zM639 930q-88 0 -164 -76q-124 -124 -186 -410q-25 -111 -25 -196q0 -233 166 -234q96 0 173 86q123 138 179 435
q20 106 21 172q0 223 -164 223zM651 969q131 0 229 -79q98 -78 99 -274q0 -196 -123 -391q-156 -250 -424 -250q-174 1 -259 95t-85 245t69 306q40 91 99 167q60 76 162 128t233 53z" />
    <glyph glyph-name="odieresis" unicode="&#xf6;" horiz-adv-x="1026" 
d="M889 1329q41 1 60 -27t14 -71q-14 -94 -103 -94q-81 0 -74 94q6 43 34 71t69 27zM543 1329q41 1 60 -27t13 -71q-18 -94 -102 -94t-74 94q6 43 34 71t69 27zM639 930q-88 0 -164 -76q-124 -124 -186 -410q-25 -111 -25 -196q0 -233 166 -234q96 0 173 86q123 138 179 435
q20 106 21 172q0 223 -164 223zM651 969q131 0 229 -79q98 -78 99 -274q0 -196 -123 -391q-156 -250 -424 -250q-174 1 -259 95t-85 245t69 306q40 91 99 167q60 76 162 128t233 53z" />
    <glyph glyph-name="divide" unicode="&#xf7;" horiz-adv-x="964" 
d="M504 109q-35 1 -58 25q-22 24 -22 61t24 63t57 25q33 0 57 -26q24 -27 24 -63t-24 -60t-58 -25zM111 424v86h792v-86h-792zM504 647q-35 0 -58 26q-22 27 -22 63t23 61q24 25 58 25q33 0 57 -26q24 -24 24 -61t-24 -63t-58 -25z" />
    <glyph glyph-name="oslash" unicode="&#xf8;" horiz-adv-x="1021" 
d="M979 620q0 -204 -121 -395q-156 -252 -426 -252q-113 0 -190 43l-70 -102l-37 35l66 94q-111 92 -111 283q0 139 69 296q40 93 99 169q58 76 160 128t212 52t185 -37l55 80l35 -29l-51 -74q125 -87 125 -291zM432 12q123 0 220 157t133 346q37 189 6 300l-496 -725
q39 -78 137 -78zM274 147l496 721q-39 64 -123 64q-83 0 -153 -60t-113 -152q-145 -307 -107 -573z" />
    <glyph glyph-name="ugrave" unicode="&#xf9;" horiz-adv-x="1118" 
d="M555 1360q0 18 32 38t51 21q20 0 30 -19t26 -75l70 -248l-23 -10l-133 195q-8 12 -21 31t-23 34t-9 33zM360 61q96 -1 213 133t197 314q49 117 143 436l158 23l-209 -805q-29 -104 21 -105q39 0 95 69t87 136l29 -18q-131 -268 -316 -269q-121 0 -63 209l65 238h-4
q-92 -180 -234 -313t-272 -134q-193 0 -116 283l135 526q14 45 9 68t-38 25l-104 10l6 26l332 54l4 -6l-189 -732q-20 -82 -6 -125t57 -43z" />
    <glyph glyph-name="uacute" unicode="&#xfa;" horiz-adv-x="1118" 
d="M903 1389q23 -1 43 -21q47 -48 -12 -101q-37 -33 -53 -44l-203 -166l-16 16l145 219q35 53 54 75t42 22zM360 61q96 -1 213 133t197 314q49 117 143 436l158 23l-209 -805q-29 -104 21 -105q39 0 95 69t87 136l29 -18q-131 -268 -316 -269q-121 0 -63 209l65 238h-4
q-92 -180 -234 -313t-272 -134q-193 0 -116 283l135 526q14 45 9 68t-38 25l-104 10l6 26l332 54l4 -6l-189 -732q-20 -82 -6 -125t57 -43z" />
    <glyph glyph-name="ucircumflex" unicode="&#xfb;" horiz-adv-x="1118" 
d="M901 1092l-16 -17l-121 164q-18 18 -41 4l-186 -168l-21 17l242 317h35zM360 61q96 -1 213 133t197 314q49 117 143 436l158 23l-209 -805q-29 -104 21 -105q39 0 95 69t87 136l29 -18q-131 -268 -316 -269q-121 0 -63 209l65 238h-4q-92 -180 -234 -313t-272 -134
q-193 0 -116 283l135 526q14 45 9 68t-38 25l-104 10l6 26l332 54l4 -6l-189 -732q-20 -82 -6 -125t57 -43z" />
    <glyph glyph-name="udieresis" unicode="&#xfc;" horiz-adv-x="1118" 
d="M936 1329q41 1 60 -27t14 -71q-14 -94 -103 -94q-82 0 -73 94q6 43 33 71q28 27 69 27zM590 1329q41 1 60 -27t14 -71q-18 -94 -103 -94t-74 94q6 43 34 71t69 27zM360 61q96 -1 213 133t197 314q49 117 143 436l158 23l-209 -805q-29 -104 21 -105q39 0 95 69t87 136
l29 -18q-131 -268 -316 -269q-121 0 -63 209l65 238h-4q-92 -180 -234 -313t-272 -134q-193 0 -116 283l135 526q14 45 9 68t-38 25l-104 10l6 26l332 54l4 -6l-189 -732q-20 -82 -6 -125t57 -43z" />
    <glyph glyph-name="yacute" unicode="&#xfd;" horiz-adv-x="864" 
d="M778 1370q23 0 43 -20q44 -44 2 -85q-15 -16 -37 -35t-30 -26l-203 -168l-18 19l145 219q61 96 98 96zM887 969q16 0 25 -38t10 -71q0 -98 -173 -384t-333 -578q-135 -230 -220 -322t-186 -92q-61 0 -93 29t-32 67t34 70q34 31 61 31q27 1 38 -15q53 -74 87 -75
q35 -1 83 53t88 122q40 70 46 113t6 145t-42 428q-42 325 -66 375q-11 25 -42 23l-131 -2l-4 26l311 93l17 -9q23 -110 55 -390t39 -484h6q227 391 270 569q25 109 21 267q72 49 125 49z" />
    <glyph glyph-name="thorn" unicode="&#xfe;" horiz-adv-x="1054" 
d="M435 27q110 0 199 86q89 87 137 207q99 249 98 407t-103 158q-78 0 -170 -85t-164 -208q-92 -152 -168 -512q61 -53 171 -53zM1049 707q0 -135 -73 -321q-42 -108 -106 -197t-172 -151q-110 -62 -236 -62t-214 53l-121 -523l-158 -22l400 1827q12 45 6 67t-39 23l-121 10
l6 25l340 53l8 -8l-215 -930h6q125 213 253 315t231 103q205 0 205 -262z" />
    <glyph glyph-name="ydieresis" unicode="&#xff;" horiz-adv-x="864" 
d="M807 1329q41 1 60 -27t14 -71q-14 -94 -103 -94q-82 0 -73 94q6 43 33 71q28 27 69 27zM461 1329q41 1 60 -27t14 -71q-18 -94 -103 -94t-74 94q6 43 34 71t69 27zM887 969q16 0 25 -38t10 -71q0 -98 -173 -384t-333 -578q-135 -230 -220 -322t-186 -92q-61 0 -93 29
t-32 67t34 70q34 31 61 31q27 1 38 -15q53 -74 87 -75q35 -1 83 53t88 122q40 70 46 113t6 145t-42 428q-42 325 -66 375q-11 25 -42 23l-131 -2l-4 26l311 93l17 -9q23 -110 55 -390t39 -484h6q227 391 270 569q25 109 21 267q72 49 125 49z" />
    <glyph glyph-name="dotlessi" unicode="&#x131;" horiz-adv-x="550" 
d="M309 57q35 1 86 69t88 138l27 -18q-123 -270 -297 -271q-127 0 -80 191l166 620q14 50 6 68t-47 23l-96 8l8 28l328 54l6 -6l-213 -795q-31 -109 18 -109z" />
    <glyph glyph-name="Lslash" unicode="&#x141;" horiz-adv-x="1122" 
d="M580 49q129 0 199 3t106 28q37 24 73 69t101 183h41l-103 -332h-983l9 37l102 12q37 3 57 23t31 71l102 449l-157 -70l-19 49l191 86l127 553q20 92 -43 95l-119 10l10 37h543l-6 -37l-119 -8q-61 -2 -84 -97l-104 -460l311 143l18 -53l-346 -156l-102 -467
q-29 -119 3 -143t161 -25z" />
    <glyph glyph-name="lslash" unicode="&#x142;" horiz-adv-x="540" 
d="M213 -27q-125 0 -82 193l152 606l-125 -57l-21 49l160 74l119 477q12 57 5 73t-44 21l-109 12l6 27l349 39l4 -4l-146 -565l148 63l20 -43l-184 -84l-176 -694q-27 -98 18 -99q33 0 86 65t92 136l29 -16q-53 -119 -130 -196t-171 -77z" />
    <glyph glyph-name="OE" unicode="&#x152;" horiz-adv-x="1968" 
d="M1008 1329q-170 1 -299 -65q-232 -118 -319 -426q-38 -135 -38 -291q0 -258 123 -393t324 -136q97 0 149 38t72 126l231 1020q12 51 -26 81q-39 30 -91 38t-126 8zM1004 1372q115 0 221 -10t137 -10h698l-69 -308h-41q10 88 6 146t-56 85q-52 28 -171 28h-228
q-25 -1 -36 -11t-19 -43l-117 -516h277q153 0 194 61q20 30 49 103h41l-92 -408h-39q9 105 -11 136q-19 31 -55 42t-100 11h-276l-105 -459q-26 -71 -16 -109t59 -50t215 -11q166 0 269 52q102 52 172 223h39l-115 -324h-719l-309 -20q-388 0 -531 172q-70 84 -97 182
q-28 98 -27 231q0 367 227 587q228 220 625 220z" />
    <glyph glyph-name="oe" unicode="&#x153;" horiz-adv-x="1495" 
d="M1366 794q0 122 -115 121q-115 0 -203 -125t-112 -305q246 41 338 114t92 195zM636 920q-87 0 -162 -75q-127 -127 -187 -402q-25 -111 -25 -205t45 -154t133 -61q88 0 164 85q76 86 116 204q79 233 81 384q0 98 -39 161t-126 63zM1524 778q0 -118 -116 -191t-214 -96
q-98 -24 -144 -32t-114 -21q-8 -20 -8 -100q0 -283 182 -283q104 0 186 60t162 164l27 -29q-111 -164 -221 -219t-238 -56q-78 0 -148 43t-92 138q-156 -180 -366 -181q-172 -1 -253 93t-81 245t65 308q38 94 96 169q57 74 161 126t214 52q231 1 302 -204q80 94 185 149
t212 56q203 0 203 -191z" />
    <glyph glyph-name="Scaron" unicode="&#x160;" horiz-adv-x="1017" 
d="M530 1675l21 21l182 -117q20 -16 53 0l224 117l14 -21l-270 -231h-35zM484 -33q-124 0 -242 44t-170 118l61 297h39q-10 -198 76 -308t238 -110t222 88t70 194t-51 172t-195 158t-210 168q-64 76 -64 208t91 252q48 62 139 100q173 73 404 10q101 -29 161 -78l-72 -272
h-37q18 156 -50 246t-200 92q-133 0 -205 -80q-71 -80 -71 -174q1 -158 108 -242q41 -32 168 -110t196 -152t68 -195q0 -161 -101 -285q-52 -65 -151 -103q-98 -38 -222 -38z" />
    <glyph glyph-name="scaron" unicode="&#x161;" horiz-adv-x="708" 
d="M532 1221q6 0 23 10l188 168l17 -19l-240 -315h-33l-110 315l18 19l119 -166q12 -12 18 -12zM514 969q94 0 152 -47q58 -46 57 -88q0 -42 -30 -66q-29 -24 -55 -23q-26 0 -38 27q-61 139 -164 139q-59 0 -91 -37t-32 -96t28 -107q27 -48 125 -128t134 -132t37 -150
q0 -97 -99 -191q-100 -94 -240 -94t-204 56q-64 58 -63 118q-1 28 29 58t60 30t44 -37q27 -80 86 -124t119 -44q133 0 133 147q0 102 -143 228t-162 188q-10 33 -11 74q0 117 90 208q91 91 238 91z" />
    <glyph glyph-name="Ydieresis" unicode="&#x178;" horiz-adv-x="1198" 
d="M1066 1632q42 0 64 -26t15 -67q-6 -39 -35 -65t-69 -26q-41 0 -63 26t-16 66t33 67q29 25 71 25zM690 1448q-40 0 -64 26t-19 66t35 66t72 26t64 -26t15 -67q-6 -39 -34 -65t-69 -26zM203 1352h489l-10 -37l-104 -10q-53 -1 -39 -49t186 -629h6q326 436 440 626
q33 51 -30 54l-101 8l9 37h403l-8 -37q-82 -5 -117 -23t-88 -78q-127 -141 -446 -598q-43 -59 -58 -122l-84 -361q-18 -78 47 -84l148 -12l-8 -37h-598l8 37l139 14q37 3 54 21t26 61l84 373q14 57 0 104q-109 369 -193 615q-20 55 -44 68t-117 22z" />
    <glyph glyph-name="Zcaron" unicode="&#x17d;" horiz-adv-x="1185" 
d="M573 1655l19 20l184 -116q18 -16 53 0l224 116l12 -20l-268 -232h-35zM627 49q96 0 145 1q49 0 102 14t76 27t57 53t54 80t59 122h39l-92 -346h-1100l-6 20q702 803 1102 1283h-457q-174 0 -227 -41t-131 -236h-41l69 326h1031l2 -21q-684 -797 -1096 -1282h414z" />
    <glyph glyph-name="zcaron" unicode="&#x17e;" horiz-adv-x="845" 
d="M578 1192q6 0 22 10l188 168l17 -18l-240 -316h-33l-110 316l18 18l119 -166q13 -12 19 -12zM467 944h233q154 0 185 10l8 -22q-553 -580 -707 -752l2 -2q66 -4 180 -39t214 -35q158 0 254 207l30 -16q-51 -133 -146 -231q-96 -98 -180 -99q-84 0 -202 41
q-156 60 -211 60t-94 -64q-7 -12 -17 -12t-10 34t68 111q238 268 639 684v2h-361q-61 0 -107 -46t-100 -140l-30 18q25 66 79 168q53 102 80 133q78 -10 193 -10z" />
    <glyph glyph-name="florin" unicode="&#x192;" horiz-adv-x="1005" 
d="M124 -287q-80 0 -129 34q-48 34 -47 74q2 41 28 65t58 24t54 -45q49 -102 94 -103q68 0 119 240q88 381 156 690h-189l15 51h186q37 135 53 191q44 149 129 274q106 160 285 160q90 0 129 -36t39 -74t-25 -60t-57 -22t-49 36q-25 61 -45 83t-51 22q-63 0 -127 -221
q-47 -152 -88 -353h233l-14 -51h-230q-97 -402 -121 -496t-56 -168t-80 -149q-48 -76 -119 -121t-151 -45z" />
    <glyph glyph-name="circumflex" unicode="&#x2c6;" horiz-adv-x="770" 
d="M727 1055l-18 -17l-119 162q-18 18 -41 4l-189 -166l-18 17l242 315h34z" />
    <glyph glyph-name="caron" unicode="&#x2c7;" horiz-adv-x="770" 
d="M561 1192q6 0 23 10l188 168l16 -18l-239 -316h-33l-110 316l20 18l117 -166q12 -12 18 -12z" />
    <glyph glyph-name="uni02C9" unicode="&#x2c9;" horiz-adv-x="770" 
d="M360 1264h441l-21 -97h-440z" />
    <glyph glyph-name="breve" unicode="&#x2d8;" horiz-adv-x="770" 
d="M520 1044q-78 0 -112 38t-32 98q3 60 17 137h33q-25 -156 123 -156q154 0 180 156h35q-29 -133 -79 -203t-165 -70z" />
    <glyph glyph-name="dotaccent" unicode="&#x2d9;" horiz-adv-x="770" 
d="M559 1137q-41 1 -61 27t-16 68t34 70q29 28 71 27q42 0 61 -29t11 -71q-14 -92 -100 -92z" />
    <glyph glyph-name="ring" unicode="&#x2da;" horiz-adv-x="770" 
d="M601 1397q77 0 123 -44t30 -131t-76 -126t-136 -39q-77 0 -123 41t-30 129q15 88 75 129t137 41zM594 1364q-82 0 -108 -138t61 -139q83 1 109 139t-62 138z" />
    <glyph glyph-name="ogonek" unicode="&#x2db;" horiz-adv-x="770" 
d="M346 -274q0 -98 92 -99q61 0 133 43l17 -26q-106 -131 -234 -131q-86 0 -124 43t-37 104q0 98 96 200t215 156h37q-195 -145 -195 -290z" />
    <glyph glyph-name="tilde" unicode="&#x2dc;" horiz-adv-x="770" 
d="M682 1128q-27 0 -124 34t-128 34q-30 0 -52 -17t-44 -63l-23 12q37 164 156 164q37 0 124 -32t114 -31q69 0 100 78l20 -7q-35 -172 -143 -172z" />
    <glyph glyph-name="hungarumlaut" unicode="&#x2dd;" horiz-adv-x="770" 
d="M795 1370q21 0 41 -17t20 -41t-13 -39t-17 -19t-13 -16q-10 -11 -14 -17l-154 -185l-22 13l96 221q43 100 76 100zM537 1370q21 0 41 -17t20 -41t-13 -39t-17 -19t-13 -16q-10 -11 -14 -17l-154 -185l-22 13l96 221q43 100 76 100z" />
    <glyph glyph-name="uni0394" unicode="&#x394;" horiz-adv-x="1224" 
d="M168 82h655q43 0 58 12q14 13 8 56l-195 1036h-6l-555 -1034q-39 -70 35 -70zM-6 0l6 31q604 1096 719 1321h115l270 -1315l-4 -37h-1106z" />
    <glyph glyph-name="uni03A9" unicode="&#x3a9;" horiz-adv-x="1507" 
d="M225 131h299l-6 10q-150 68 -230 211t-79 316q0 317 176 516t512 198q266 0 416 -148t149 -372q0 -524 -489 -721v-10h256q45 0 88 34t94 132h39l-113 -297h-551l21 84q223 94 340 302t117 493q0 195 -90 329t-267 133q-131 -1 -231 -65t-158 -172q-116 -218 -115 -504
q0 -174 68 -321t170 -195l-23 -84h-555l23 297h35q16 -94 40 -130t64 -36z" />
    <glyph glyph-name="uni03BC" unicode="&#x3bc;" horiz-adv-x="1134" 
d="M313 -23q-43 0 -82 33q-8 -37 -49 -225t-49 -254l-6 -4q-37 0 -65 16q-28 15 -40 33t-28 49l8 29q8 29 22 77q13 48 38 144t44 164q19 67 25 96l211 809l168 12l-193 -729q-47 -172 48 -172q115 0 225 132t173 279q62 147 157 478l157 23l-209 -807q-27 -96 23 -97
q37 0 92 67t86 130l31 -22q-55 -113 -134 -187t-167 -74q-137 0 -76 207l63 219h-4q-92 -180 -219 -303t-250 -123z" />
    <glyph glyph-name="pi" unicode="&#x3c0;" horiz-adv-x="985" 
d="M881 57q-91 -80 -227 -80q-74 1 -99 51t8 201l150 590h-307q-11 -67 -56 -235t-53 -205q-47 -188 -118 -302t-128 -114q-27 0 -46 25q-19 26 -19 50t37 44q170 92 251 410q16 59 41 191t25 136q-133 -4 -248 -45l-12 25q61 45 91 64q31 19 105 44t162 25h541q66 0 100 47
l21 -29l-107 -131h-119l-153 -626q-16 -76 -3 -104t57 -28t97 23z" />
    <glyph glyph-name="uni2010" unicode="&#x2010;" horiz-adv-x="585" 
d="M127 528h414l-21 -96h-416z" />
    <glyph glyph-name="figuredash" unicode="&#x2012;" horiz-adv-x="604" 
d="M152 692h450l-18 -98h-451z" />
    <glyph glyph-name="endash" unicode="&#x2013;" horiz-adv-x="1048" 
d="M121 530h895l-23 -96h-893z" />
    <glyph glyph-name="emdash" unicode="&#x2014;" horiz-adv-x="1697" 
d="M121 530h1544l-20 -96h-1545z" />
    <glyph glyph-name="quoteleft" unicode="&#x2018;" horiz-adv-x="372" 
d="M266 1102q0 156 277 391l22 -23q-150 -166 -149 -307q0 -51 14 -94q-82 -61 -133 -53q-31 37 -31 86z" />
    <glyph glyph-name="quoteright" unicode="&#x2019;" horiz-adv-x="372" 
d="M492 1397q0 -156 -277 -387l-22 20q150 162 149 307q0 51 -12 95q20 18 62 37t71 16q29 -39 29 -88z" />
    <glyph glyph-name="quotesinglbase" unicode="&#x201a;" horiz-adv-x="368" 
d="M-106 -236q170 166 169 342q0 47 -14 87q84 63 148 55q27 -33 26 -88q0 -190 -309 -416z" />
    <glyph glyph-name="quotedblleft" unicode="&#x201c;" horiz-adv-x="622" 
d="M657 1163q0 -57 15 -92q-74 -61 -123 -53q-29 33 -29 86q0 156 268 389l25 -23q-156 -160 -156 -307zM401 1163q0 -51 17 -92q-74 -61 -123 -53q-31 35 -31 86q0 156 273 389l22 -23q-158 -166 -158 -307z" />
    <glyph glyph-name="quotedblright" unicode="&#x201d;" horiz-adv-x="622" 
d="M193 1030q156 168 155 307q0 55 -14 93q76 63 125 55q29 -39 28 -88q0 -160 -272 -387zM600 1337q0 51 -12 93q70 63 123 55q29 -39 28 -88q0 -160 -272 -387l-21 20q154 166 154 307z" />
    <glyph glyph-name="quotedblbase" unicode="&#x201e;" horiz-adv-x="634" 
d="M338 106q0 51 -12 87q76 63 137 55q27 -33 26 -88q0 -112 -94 -222t-209 -194l-18 20q170 170 170 342zM68 106q0 47 -15 87q76 63 137 55q27 -33 27 -88q0 -112 -94 -222t-209 -194l-18 20q172 172 172 342z" />
    <glyph glyph-name="dagger" unicode="&#x2020;" horiz-adv-x="921" 
d="M374 120q60 415 63 428t32 67t53 90q-297 -49 -366 -58q-26 -4 -8 76t32 78q14 -1 74 -13t143 -27q82 -15 131 -24q20 375 17 445q-2 22 92 22t88 -26q-68 -197 -162 -441q215 37 284 47q68 10 81 13q28 4 10 -76t-37 -78q-210 42 -346 62q2 -29 12 -88q10 -60 7 -73
q-2 -13 -118 -434t-122 -446h-31q10 41 71 456z" />
    <glyph glyph-name="daggerdbl" unicode="&#x2021;" horiz-adv-x="929" 
d="M547 791q4 126 4 387q2 25 104 20q82 0 76 -20q-18 -52 -151 -387q195 35 366 59q14 -4 13 -39t-14 -76t-25 -39q-14 0 -72 12t-144 26q-86 15 -131 24q3 -23 9 -57q13 -66 8 -89t-60 -116l-18 -33q322 51 358 59q14 -4 12 -39t-14 -75q-14 -40 -24 -39q-16 0 -340 61
q14 -102 8 -130t-172 -636h-37q6 29 48 321t44 310q18 55 66 135q-239 -42 -363 -61q-14 4 -13 40q1 37 14 77t26 38l346 -61q-4 60 -9 97q-5 36 -3 52t76 146q-332 -53 -361 -60q-14 4 -12 39t15 76t24 39z" />
    <glyph glyph-name="bullet" unicode="&#x2022;" horiz-adv-x="733" 
d="M422 741q110 0 172 -74q61 -75 49 -196t-89 -191q-76 -70 -188 -69q-112 0 -173 72q-61 73 -49 193t91 192q77 72 187 73z" />
    <glyph glyph-name="onedotenleader" unicode="&#x2024;" horiz-adv-x="962" 
d="M420 -25q-90 0 -90 103q0 51 30 86q31 35 82 35q90 0 90 -105q0 -51 -30 -85t-82 -34z" />
    <glyph glyph-name="twodotenleader" unicode="&#x2025;" horiz-adv-x="962" 
d="M655 -25q-88 0 -88 103q0 51 31 86t82 35q90 0 90 -107q0 -51 -31 -84t-84 -33zM164 -25q-90 0 -90 103q0 51 30 86q31 35 82 35q90 0 90 -107q0 -51 -30 -84t-82 -33z" />
    <glyph glyph-name="ellipsis" unicode="&#x2026;" horiz-adv-x="1734" 
d="M1317 -23q-88 0 -88 101q0 51 31 87t81 36q90 0 91 -109q0 -49 -31 -82t-84 -33zM733 -23q-88 0 -88 101q0 51 31 87t80 36q90 0 90 -109q0 -49 -30 -82t-83 -33zM156 -25q-88 0 -88 103q0 51 29 86q30 35 81 35q92 0 92 -107q0 -51 -30 -84t-84 -33z" />
    <glyph glyph-name="perthousand" unicode="&#x2030;" horiz-adv-x="2091" 
d="M1784 643q-56 0 -104 -52t-87 -163t-40 -262q-1 -150 102 -150q78 0 135 94q105 171 102 382q1 151 -108 151zM1796 682q113 0 171 -68t58 -182q0 -184 -98 -319t-280 -136q-227 0 -228 238q1 183 99 325t278 142zM1137 643q-74 0 -130 -89q-100 -159 -100 -374
q0 -164 103 -164q57 0 105 54q80 91 116 287q14 77 14 135q1 151 -108 151zM1149 682q113 0 172 -68t59 -182q0 -184 -99 -319t-282 -136q-115 1 -171 63t-56 175q0 184 98 326q99 141 279 141zM559 1270q-57 0 -104 -53q-80 -91 -114 -285q-13 -76 -13 -133
q0 -156 102 -156q74 0 132 89q58 88 82 190t24 180q0 168 -109 168zM195 848q0 182 98 321t278 140q115 0 181 -66q49 -25 63 -24h346q90 0 144 59l81 94l44 -41l-1262 -1419l-35 41l1077 1214h-411l6 -71q0 -199 -98 -345t-285 -147q-227 0 -227 244z" />
    <glyph glyph-name="guilsinglleft" unicode="&#x2039;" horiz-adv-x="512" 
d="M514 838l18 -21l-266 -336q-16 -20 -8 -41l123 -336l-27 -22l-252 362q-12 16 7 35z" />
    <glyph glyph-name="guilsinglright" unicode="&#x203a;" horiz-adv-x="512" 
d="M47 82l-18 20l268 334q16 23 8 41l-125 338l27 23l254 -365q8 -14 -8 -35z" />
    <glyph glyph-name="fraction" unicode="&#x2044;" horiz-adv-x="192" 
d="M-342 -41l-37 35l1043 1349l34 -30z" />
    <glyph glyph-name="zero.superior" unicode="&#x2070;" 
d="M584 1610q110 0 172 -65t61 -187q0 -122 -36 -242q-36 -119 -123 -211t-194 -92t-161 42q-53 42 -69 96q-15 53 -15 151t39 216t127 205q89 87 199 87zM586 1577q-60 0 -108 -69q-81 -115 -112 -359q-13 -92 -14 -158q0 -145 99 -145q57 0 104 70q78 117 115 362
q14 92 14 152q0 147 -98 147z" />
    <glyph glyph-name="four.superior" unicode="&#x2074;" 
d="M285 1096h250l83 381h-6q-206 -203 -327 -381zM522 1049h-315l-14 20q100 143 477 530h90l-107 -503h131l-16 -47h-127l-29 -142q-8 -41 33 -45l78 -8l-6 -27h-359l7 27l75 8q43 4 52 45z" />
    <glyph glyph-name="five.superior" unicode="&#x2075;" 
d="M438 1485q-18 0 -26 -9t-17 -32l-78 -207l5 -2q109 70 217 70q221 0 221 -213q0 -109 -84 -194t-252 -85q-115 0 -173 46t-58 102q0 29 18 49t49 20t43 -43q33 -141 139 -141q76 0 122 62t46 152t-40 133q-40 42 -105 42q-111 0 -174 -61l-23 20l125 403l8 2h412l4 -8
l-59 -106h-320z" />
    <glyph glyph-name="six.superior" unicode="&#x2076;" 
d="M354 1047q0 -85 34 -143t102 -58t109 70q42 70 42 159q0 88 -40 127q-39 39 -99 39t-111 -59q-37 -49 -37 -135zM616 1612q106 0 153 -45q48 -45 48 -81t-20 -55t-47 -20t-36 21q-3 6 -13 48q-23 95 -106 95t-144 -116t-82 -249h4q37 37 97 65t105 28q87 -1 145 -51
t58 -157t-77 -195t-220 -87q-258 0 -258 279q0 176 89 342q44 80 121 129t183 49z" />
    <glyph glyph-name="seven.superior" unicode="&#x2077;" 
d="M481 872q-1 -55 -73 -59t-72 64q0 77 63 165t209 236t185 205h-363q-41 -1 -59 -15t-72 -84l-25 7l80 208h523l4 -6q-35 -139 -236 -356q-76 -78 -120 -180t-44 -185z" />
    <glyph glyph-name="eight.superior" unicode="&#x2078;" 
d="M684 1448q0 129 -90 129q-70 0 -107 -65t-36 -136q0 -121 96 -121q61 1 99 57t38 136zM578 1612q238 0 237 -185q0 -82 -56 -128t-130 -52l-2 -6q61 -18 99 -65t38 -115q0 -248 -303 -248q-115 0 -187 48q-72 47 -72 145t58 164q57 66 160 79v4q-39 9 -70 49t-31 95
q0 111 74 163t185 52zM500 1221q-66 0 -113 -67t-47 -152q0 -84 32 -120t83 -36q76 0 127 75t47 177q-2 49 -32 86q-31 37 -97 37z" />
    <glyph glyph-name="nine.superior" unicode="&#x2079;" 
d="M553 1577q-55 0 -99 -60t-44 -155q0 -160 129 -160q53 0 98 49q31 41 31 146q0 180 -115 180zM555 1612q244 0 244 -286t-161 -433q-86 -80 -200 -80t-175 46q-60 46 -58 106q0 29 19 47t49 18t40 -57t43 -92t72 -35q158 0 221 373h-6q-31 -33 -82 -56t-98 -22
q-84 0 -137 50q-54 49 -54 159t81 186t202 76z" />
    <glyph glyph-name="parenleft.superior" unicode="&#x207d;" horiz-adv-x="413" 
d="M350 991q0 -121 38 -195t77 -89l-6 -23q-102 6 -164 97q-61 91 -61 221q-1 240 106 439q53 97 144 163t208 73l-4 -18q-166 -66 -252 -244t-86 -424z" />
    <glyph glyph-name="parenright.superior" unicode="&#x207e;" horiz-adv-x="415" 
d="M457 1370q0 121 -38 195t-77 90l6 20q100 -4 162 -96t61 -221q-1 -130 -27 -236t-78 -203t-143 -163t-208 -74l4 23q166 63 252 241t86 424z" />
    <glyph glyph-name="n.superior" unicode="&#x207f;" horiz-adv-x="718" 
d="M653 618q35 0 103 99l20 -17q-78 -141 -182 -141q-93 0 -66 105l99 329q23 70 -37 70t-132 -83q-73 -83 -108 -162t-86 -245l-106 -14l125 449q8 24 3 36t-30 15l-68 8l5 20l225 33l2 -6l-76 -233h4q58 102 144 172t170 69q121 0 65 -174l-84 -264q-16 -66 10 -66z" />
    <glyph glyph-name="zero.inferior" unicode="&#x2080;" 
d="M362 524q112 0 173 -64q61 -66 61 -172q0 -202 -86 -371q-43 -83 -117 -136t-167 -53t-146 42t-69 96q-15 54 -15 152t39 214q39 118 127 205t200 87zM365 492q-59 0 -109 -69q-80 -111 -114 -360q-13 -92 -13 -157q0 -145 98 -146q76 0 133 121t80 249t23 214
q0 148 -98 148z" />
    <glyph glyph-name="one.inferior" unicode="&#x2081;" 
d="M434 -258h-424l10 31l93 10q53 6 61 45l129 586q6 35 -24 37l-109 10v24l281 41l6 -8l-152 -690q-4 -23 5 -32t38 -13l94 -10z" />
    <glyph glyph-name="two.inferior" unicode="&#x2082;" 
d="M338 489q-49 0 -92 -45t-66 -131q-12 -41 -44 -41t-48 18t-16 42q0 61 83 128q83 66 205 66t174 -57q54 -57 54 -153t-62 -158t-178 -114q-248 -110 -301 -196h336q39 0 61 16t76 85l25 -12l-94 -195h-510l-7 6q18 72 106 154t194 146t161 136q55 70 56 158
q0 147 -113 147z" />
    <glyph glyph-name="three.inferior" unicode="&#x2083;" 
d="M301 176q76 0 109 52t32 126q0 138 -97 138t-163 -144q-14 -37 -38 -37q-24 1 -36 15q-13 14 -14 34q0 58 68 112t184 54q225 0 225 -186q0 -76 -56 -124t-146 -58v-8q174 -33 174 -177q0 -102 -79 -174t-243 -71q-115 0 -178 49t-63 106q0 29 17 51t48 23q31 0 49 -47
q45 -147 156 -148q147 0 147 232q0 135 -114 135l-105 -14q-27 0 -31 30q0 47 37 48q16 -1 48 -9t69 -8z" />
    <glyph glyph-name="four.inferior" unicode="&#x2084;" 
d="M63 10h250l84 381h-6q-213 -209 -328 -381zM301 -37h-315l-15 21q100 143 478 530h90l-107 -504h131l-16 -47h-127l-29 -141q-8 -41 33 -45l78 -8l-6 -27h-359l6 27l76 8q43 4 51 45z" />
    <glyph glyph-name="five.inferior" unicode="&#x2085;" 
d="M217 399q-19 0 -27 -9t-16 -32l-78 -204l4 -2q119 70 217 69q221 0 222 -215q0 -110 -84 -194t-252 -84q-115 0 -173 46t-59 101q1 29 19 49t47 21q35 0 45 -43q33 -141 139 -142q76 0 122 62t46 154q0 90 -40 133t-105 43q-111 0 -174 -62l-23 21l125 401l8 2h412l4 -8
l-59 -107h-320z" />
    <glyph glyph-name="six.inferior" unicode="&#x2086;" 
d="M280 158q-60 0 -105 -54q-44 -54 -44 -141t34 -145q35 -58 103 -58t110 71t42 159t-40 128t-100 40zM394 526q106 0 154 -45t48 -81t-20 -54t-42 -18q-20 0 -30 8t-19 33q-16 69 -40 95t-72 25q-84 0 -146 -114q-61 -115 -82 -248h5q37 37 97 65t107 27q88 0 146 -51
q58 -50 57 -158q0 -108 -77 -195t-222 -87q-258 0 -258 278q0 179 89 343q44 79 122 128q77 49 183 49z" />
    <glyph glyph-name="seven.inferior" unicode="&#x2087;" 
d="M258 -211q0 -57 -73 -61t-72 63q0 129 235 365q190 197 221 241h-362q-39 0 -59 -14t-72 -84l-25 6l80 209h522l4 -6q-35 -139 -235 -356q-76 -78 -120 -180t-44 -183z" />
    <glyph glyph-name="eight.inferior" unicode="&#x2088;" 
d="M463 362q-1 130 -103 130q-60 0 -96 -65q-37 -65 -37 -136q0 -121 97 -121q63 0 101 56t38 136zM354 526q240 0 240 -184q0 -82 -56 -128t-132 -52l-3 -6q61 -18 99 -66t39 -115q0 -248 -303 -247q-115 0 -186 48q-70 48 -70 145t56 164t159 79v4q-39 10 -70 49t-31 94
q0 111 74 163t184 52zM278 135q-66 -1 -112 -67q-47 -66 -47 -151q0 -157 112 -157q76 0 127 75t48 177q-2 49 -32 86t-96 37z" />
    <glyph glyph-name="nine.inferior" unicode="&#x2089;" 
d="M332 492q-58 0 -102 -60t-44 -156q0 -160 129 -159q55 0 101 49q31 41 30 145q1 181 -114 181zM422 133q-74 -78 -200 -78q-66 0 -120 50q-53 50 -53 160q0 109 81 185t202 76q246 0 246 -286t-162 -433q-88 -79 -202 -79t-174 46t-58 105q0 29 19 47t48 19q31 1 41 -57
t43 -93t72 -35q160 0 223 373h-6z" />
    <glyph glyph-name="parenleft.inferior" unicode="&#x208d;" horiz-adv-x="413" 
d="M127 -94q0 -121 38 -196t77 -89l-6 -22q-102 6 -164 97t-62 221q0 129 27 235t80 203t144 163t208 74l-4 -19q-166 -65 -252 -243t-86 -424z" />
    <glyph glyph-name="parenright.inferior" unicode="&#x208e;" horiz-adv-x="415" 
d="M236 285q0 121 -38 195t-77 89l6 21q99 -4 161 -96t62 -221q0 -242 -105 -440q-52 -97 -143 -163t-208 -73l4 22q166 63 252 241t86 425z" />
    <glyph glyph-name="colonmonetary" unicode="&#x20a1;" horiz-adv-x="1005" 
d="M864 1221q-25 16 -100 16l-324 -1108q25 -25 95 -47zM397 174l312 1061q-158 -25 -270 -252t-111 -516q-1 -197 69 -293zM1069 1083q0 -37 -19 -55t-43 -18t-32 7q-9 7 -23 67t-43 98l-321 -1102q213 10 342 239l28 -22q-32 -61 -56 -100t-68 -86q-88 -93 -267 -105
l-43 -168h-59l47 168q-24 0 -102 12l-56 -180h-55l59 201q-207 76 -206 422q0 203 67 384q68 181 200 303t300 134l33 115h61l-33 -115q61 -4 99 -12q18 63 32 125h64l-43 -146q137 -45 137 -166z" />
    <glyph glyph-name="Euro" unicode="&#x20ac;" horiz-adv-x="1005" 
d="M797 1309q145 -1 209 -63t63 -134q0 -42 -25 -64q-26 -22 -52 -22t-36 11t-14 42q-25 188 -164 189q-128 0 -228 -136t-149 -358h488l-21 -51h-481q-4 -18 -16 -141h434l-23 -54h-420q-23 -131 24 -301q20 -73 72 -119t148 -46t170 56q72 58 144 183l28 -22
q-80 -156 -170 -228t-254 -71q-216 0 -296 163q-71 145 -50 385h-137l18 54h127q4 18 12 70q7 52 11 71h-98l20 51h90q174 535 576 535z" />
    <glyph glyph-name="uni2113" unicode="&#x2113;" horiz-adv-x="751" 
d="M692 1268q0 49 -19 81t-48 31q-47 0 -79 -57t-75 -254l-94 -440q315 328 315 639zM623 1415q153 0 153 -188t-122 -352q-122 -163 -292 -314l-57 -282q-23 -109 8 -159t97 -50t124 43q56 43 117 168l25 -9q-59 -166 -136 -230t-208 -65t-166 97t6 252q0 31 25 104
q-19 -14 -75 -45t-61 -33l-12 27q25 18 75 51t79 55l104 496q53 244 125 339t191 95z" />
    <glyph glyph-name="trademark" unicode="&#x2122;" horiz-adv-x="528" 
d="M668 1303v-138q0 -16 10 -16l22 -4v-10h-94v10l12 4q10 0 11 16v140h-4l-58 -168h-12l-66 168h-2v-103q0 -53 13 -53l18 -4v-10h-82v10l23 4q10 0 10 53v101q0 12 -12 16h-21v12h86l49 -123h4l11 31q12 31 24 61l11 31h79v-12l-20 -2q-12 0 -12 -14zM307 1165v154h-24
q-23 0 -31 -45h-12v57h182v-57h-12q-8 45 -31 45h-27v-154q0 -14 13 -16l24 -4v-10h-117v10l21 4q14 4 14 16z" />
    <glyph glyph-name="Omega" unicode="&#x2126;" horiz-adv-x="1507" 
d="M225 131h299l-6 10q-150 68 -230 211t-79 316q0 317 176 516t512 198q266 0 416 -148t149 -372q0 -524 -489 -721v-10h256q45 0 88 34t94 132h39l-113 -297h-551l21 84q223 94 340 302t117 493q0 195 -90 329t-267 133q-131 -1 -231 -65t-158 -172q-116 -218 -115 -504
q0 -174 68 -321t170 -195l-23 -84h-555l23 297h35q16 -94 40 -130t64 -36z" />
    <glyph glyph-name="estimated" unicode="&#x212e;" horiz-adv-x="1605" 
d="M1374 672v336q0 20 -16 41q-90 106 -219 163t-265 58q-272 0 -487 -217q-16 -16 -16 -45v-336q0 -12 8 -13h989q6 1 6 13zM1614 627h-1235q-8 0 -8 -9v-335q0 -25 14 -41q88 -98 223 -162q272 -128 530 -4q124 59 212 162h108q-100 -121 -255 -190t-331 -68
q-305 0 -522 194t-217 470q0 275 217 470t523 195q305 0 523 -195t218 -471v-16z" />
    <glyph glyph-name="onethird" unicode="&#x2153;" horiz-adv-x="1495" 
d="M987 410q0 38 35 39q18 1 51 -7t68 -8q77 0 109 52t32 126q0 138 -97 138t-163 -148q-18 -35 -40 -35q-22 -1 -34 15t-12 36q0 57 65 112q66 54 183 54q225 0 225 -188q0 -74 -55 -123t-148 -59v-8q174 -33 174 -175q0 -104 -78 -176t-243 -71q-115 0 -177 50t-63 107
q-1 29 17 51t51 21q33 1 51 -59q42 -135 149 -136q147 0 148 234q0 133 -115 133l-104 -14q-29 1 -29 39zM276 -41l-32 35l1040 1349l35 -30zM539 524h-424l10 31l94 10q49 6 57 45l134 588q6 35 -27 37l-109 10l2 25l283 39l4 -9l-151 -690q-4 -24 5 -32t38 -13l92 -10z
" />
    <glyph glyph-name="twothirds" unicode="&#x2154;" horiz-adv-x="1495" 
d="M1163 434q141 0 142 178q-1 138 -99 138t-159 -146q-17 -37 -39 -37q-22 -1 -36 15t-14 36q0 58 66 112t182 54q225 0 226 -188q0 -74 -54 -123t-147 -59v-8q172 -33 172 -175q0 -104 -79 -176t-243 -71q-115 0 -177 50t-62 107q0 29 17 51t50 21q33 1 53 -59t53 -98
q34 -38 95 -38q150 0 150 234q0 133 -117 133l-103 -14q-30 1 -30 39t34 39q16 1 50 -7t69 -8zM332 -41l-35 35l1040 1349l35 -30zM291 1055q-33 0 -49 17t-17 42q0 61 83 128t205 67q122 1 175 -57t53 -153t-61 -160t-177 -115t-196 -102t-106 -91h334q41 0 63 16t76 84
l22 -12l-90 -195h-512l-6 6q18 72 106 154t194 146q216 130 216 285q0 156 -112 157q-50 0 -92 -45t-66 -131q-10 -41 -43 -41z" />
    <glyph glyph-name="oneeighth" unicode="&#x215b;" horiz-adv-x="1495" 
d="M610 524h-424l11 31l92 10q51 6 59 45l133 588q6 35 -26 37l-111 10l4 25l281 39l6 -9l-154 -690q-8 -39 43 -45l94 -10zM348 -41l-37 35l1045 1349l37 -30zM1284 750q-60 0 -96 -65t-37 -136q0 -121 96 -121q63 0 102 56q38 56 37 137q0 129 -102 129zM1278 784
q240 0 240 -184q0 -82 -58 -128t-135 -54v-2q139 -47 139 -183q0 -248 -303 -247q-115 0 -187 48t-71 145t59 165t162 78v2q-40 12 -72 50t-32 93q0 111 74 164t184 53zM1200 393q-66 -1 -113 -67t-47 -151t32 -121t83 -36q76 0 127 75t47 177q-2 49 -32 86q-31 37 -97 37z
" />
    <glyph glyph-name="threeeighths" unicode="&#x215c;" horiz-adv-x="1495" 
d="M360 936q0 39 37 39q16 0 48 -8t69 -9q76 0 110 52t33 127q0 137 -100 137q-57 0 -93 -37t-67 -107q-15 -36 -39 -36q-46 1 -48 53q0 53 66 107t183 55q225 0 225 -187q0 -76 -55 -124t-149 -58v-8q174 -33 174 -176q0 -102 -79 -174t-243 -72q-115 0 -178 49t-64 107
q0 30 18 52t51 22t53 -62q20 -60 54 -96t95 -37q147 0 147 231q0 135 -114 135l-105 -14q-29 0 -29 39zM375 -41l-33 35l1042 1349l35 -30zM1284 750q-60 0 -96 -65t-37 -136q0 -121 96 -121q63 0 102 55q38 55 37 138q0 129 -102 129zM1278 784q240 0 240 -184
q0 -82 -58 -128t-135 -54v-2q139 -47 139 -183q0 -248 -303 -247q-115 0 -185 48t-71 145q1 97 59 165t160 78v2q-40 12 -72 51t-32 94q0 111 74 163t184 52zM1202 393q-66 -1 -112 -67t-48 -151q-1 -157 113 -157q76 0 127 75t47 177q-2 49 -32 86q-29 37 -95 37z" />
    <glyph glyph-name="fiveeighths" unicode="&#x215d;" horiz-adv-x="1495" 
d="M455 1182q-29 0 -43 -41l-74 -205l2 -2q119 70 217 70q219 0 219 -216q0 -110 -83 -194t-251 -84q-115 0 -174 46t-59 103q0 29 18 49t50 19q32 0 42 -41q33 -143 140 -143q78 0 124 61q46 60 46 152t-41 135t-107 43q-109 0 -172 -62l-24 21l127 401l8 2h411l5 -8
l-60 -106h-321zM381 -41l-35 35l1043 1349l34 -30zM1284 750q-60 0 -96 -65t-37 -136q0 -121 96 -121q63 0 102 55q38 55 37 138q0 129 -102 129zM1278 784q240 0 240 -184q0 -82 -58 -128t-135 -54v-2q139 -47 139 -183q0 -248 -303 -247q-115 0 -185 48t-71 145
q1 97 59 165t160 78v2q-40 12 -72 51t-32 94q0 111 74 163t184 52zM1202 393q-66 -1 -112 -67t-48 -151q-1 -157 113 -157q76 0 127 75t47 177q-2 49 -32 86q-29 37 -95 37z" />
    <glyph glyph-name="seveneighths" unicode="&#x215e;" horiz-adv-x="1495" 
d="M510 571q0 -57 -72 -61t-71 63q0 129 235 365q180 182 219 242h-358q-43 0 -61 -14t-72 -85l-25 6l82 209h520l4 -6q-35 -141 -233 -356q-76 -80 -122 -181t-46 -182zM334 -41l-35 35l1038 1349l37 -30zM1368 621q0 129 -90 129q-70 0 -107 -65t-36 -136q0 -121 96 -121
q61 0 99 56t38 137zM1262 784q238 0 237 -184q0 -82 -57 -128t-133 -54v-2q139 -47 139 -183q0 -248 -303 -247q-115 0 -187 48t-72 145t59 165q58 68 163 78v2q-41 12 -73 51t-31 94q0 111 73 163q74 52 185 52zM1184 393q-66 -1 -113 -67t-47 -151t32 -121t83 -36
q76 0 127 75t47 177q-2 49 -32 86q-31 37 -97 37z" />
    <glyph glyph-name="arrowleft" unicode="&#x2190;" horiz-adv-x="987" 
d="M936 428h-711l330 -295l-55 -72l-449 410v2l449 410l55 -72l-330 -295h711v-88z" />
    <glyph glyph-name="arrowright" unicode="&#x2192;" horiz-adv-x="987" 
d="M51 516h711l-328 295l55 72l447 -410v-2l-447 -410l-55 72l328 295h-711v88z" />
    <glyph glyph-name="partialdiff" unicode="&#x2202;" horiz-adv-x="980" 
d="M248 227q0 -103 44 -161t110 -58q135 0 228 190q70 145 128 365q-18 25 -76 51t-123 27q-151 0 -231 -125t-80 -289zM532 1405q182 0 298 -155q116 -156 116 -428t-124 -540q-62 -134 -177 -220t-266 -85q-291 0 -291 285q0 190 122 318t312 127q94 0 158 -38t84 -77h2
q61 227 61 442q0 295 -239 295q-74 0 -168 -41t-150 -92q-20 -24 -34 0t-10 65q4 39 38 67q33 28 106 52t162 25z" />
    <glyph glyph-name="Delta" unicode="&#x2206;" horiz-adv-x="1224" 
d="M168 82h655q43 0 58 12q14 13 8 56l-195 1036h-6l-555 -1034q-39 -70 35 -70zM-6 0l6 31q604 1096 719 1321h115l270 -1315l-4 -37h-1106z" />
    <glyph glyph-name="product" unicode="&#x220f;" horiz-adv-x="1368" 
d="M1098 1282h-410q-56 0 -76 -18t-32 -78l-279 -1313q-18 -82 2 -98t141 -25l-8 -39h-502l9 39q117 10 141 26t41 97l274 1298q16 79 -3 97t-142 26l8 37h1251l-8 -37q-117 -8 -143 -25t-41 -98l-277 -1298q-16 -82 4 -98t142 -25l-8 -39h-510l8 39q116 8 144 26t46 97
l283 1329q8 40 -1 60t-54 20z" />
    <glyph glyph-name="summation" unicode="&#x2211;" horiz-adv-x="1079" 
d="M575 -156q178 0 232 31q53 31 129 178h39l-127 -342h-909l6 31l569 735l-272 830l4 24h878l-55 -313h-39q-2 12 -4 37q-14 139 -39 174q-37 51 -205 52t-354 1l229 -690l-571 -748h489z" />
    <glyph glyph-name="minus" unicode="&#x2212;" horiz-adv-x="964" 
d="M111 424v86h792v-86h-792z" />
    <glyph glyph-name="uni2215" unicode="&#x2215;" horiz-adv-x="192" 
d="M-342 -41l-37 35l1043 1349l34 -30z" />
    <glyph glyph-name="uni2219" unicode="&#x2219;" horiz-adv-x="368" 
d="M203 367q-88 0 -88 102q0 51 29 87q30 36 81 36q92 0 92 -109q0 -49 -31 -83q-32 -33 -83 -33z" />
    <glyph glyph-name="radical" unicode="&#x221a;" horiz-adv-x="1048" 
d="M1137 1620l-500 -1952h-59l-265 940l-151 -57l-8 41l292 125l150 -592q41 -162 51 -221h4q2 16 51 225l373 1491h62z" />
    <glyph glyph-name="infinity" unicode="&#x221e;" horiz-adv-x="1320" 
d="M1010 274q72 0 118 60t48 139q0 79 -46 137t-124 58q-77 0 -137 -56q-61 -56 -124 -139q89 -111 141 -155t124 -44zM365 668q-74 0 -122 -56t-48 -142q0 -84 52 -140t117 -56t97 20q33 20 53 32q20 13 70 73q51 60 53 64q-94 125 -146 165t-126 40zM1268 477
q0 -125 -77 -212t-200 -87q-154 0 -303 213q-57 -71 -94 -107t-97 -71t-124 -35q-109 0 -189 82t-80 208t80 208t188 82t178 -53q69 -53 148 -156q4 4 30 36t58 67t53 48q21 12 59 35t106 23q112 0 188 -78t76 -203z" />
    <glyph glyph-name="integral" unicode="&#x222b;" horiz-adv-x="653" 
d="M260 -311q79 0 63 326q-11 230 -51 798q-53 770 273 770q55 -1 89 -27t34 -69q0 -70 -84 -70q-39 0 -73 51q-56 84 -94 33t-26 -201q37 -520 58 -1032q13 -374 -112 -558q-69 -99 -173 -99q-133 0 -133 92q-1 37 23 59t68 23q44 0 79 -48t59 -48z" />
    <glyph glyph-name="approxequal" unicode="&#x2248;" horiz-adv-x="964" 
d="M905 684q-89 -170 -215 -170q-62 0 -125 32t-71 35t-28 12q-74 34 -122 34q-92 0 -188 -125l-52 53q37 49 64 78t79 57q53 28 117 29q64 0 175 -56q111 -57 159 -57t78 28q31 28 78 101zM690 211q-64 0 -196 61q-88 49 -150 50q-102 0 -188 -123l-52 51q106 164 252 164
q70 0 151 -44q82 -44 94 -48q11 -4 31 -13t65 -8q44 -1 76 27t81 102l51 -49q-51 -86 -101 -128t-114 -42z" />
    <glyph glyph-name="notequal" unicode="&#x2260;" horiz-adv-x="964" 
d="M903 690v-90h-295l-121 -270h416v-88h-457l-84 -183l-69 35l67 148h-249v88h286l125 270h-411v90h450l90 197l70 -37l-70 -160h252z" />
    <glyph glyph-name="lessequal" unicode="&#x2264;" horiz-adv-x="948" 
d="M76 0v86h790v-86h-790zM864 276v-102l-782 354v109l782 352v-100l-682 -305l-2 -2z" />
    <glyph glyph-name="greaterequal" unicode="&#x2265;" horiz-adv-x="948" 
d="M111 0v86h792v-86h-792zM119 989l782 -352v-109l-782 -354v102l688 304l-2 4l-686 305v100z" />
    <glyph glyph-name="uni25A0" unicode="&#x25a0;" horiz-adv-x="583" 
d="M92 684h400v-410h-400v410z" />
    <glyph glyph-name="uni25B6" unicode="&#x25b6;" horiz-adv-x="837" 
d="M102 152q2 635 0 634h2l664 -313v-2l-664 -321z" />
    <glyph glyph-name="uni25B7" unicode="&#x25b7;" horiz-adv-x="837" 
d="M102 791h2l664 -314v-2l-664 -321l-2 2q2 635 0 635zM176 674l2 -404l424 205z" />
    <glyph glyph-name="uni25C0" unicode="&#x25c0;" horiz-adv-x="837" 
d="M735 784q-2 -635 0 -634h-2l-663 313v2l663 321z" />
    <glyph glyph-name="uni25C1" unicode="&#x25c1;" horiz-adv-x="837" 
d="M735 788q-2 -635 0 -634h-2l-663 313v2l663 322zM659 270v404l-426 -205z" />
    <glyph glyph-name="uni25C6" unicode="&#x25c6;" horiz-adv-x="686" 
d="M59 483l281 281l287 -289l-281 -280z" />
    <glyph glyph-name="uni25C9" unicode="&#x25c9;" horiz-adv-x="677" 
d="M340 604q43 0 71 -32q27 -32 27 -76t-28 -75q-28 -32 -70 -32q-43 0 -72 32q-28 32 -28 76q0 43 28 75t72 32zM339 696q-79 0 -130 -58t-51 -140t52 -140t130 -59q78 0 129 58q51 59 51 141t-51 140t-130 58zM72 498q0 116 78 194t190 78q114 0 190 -80t76 -192t-78 -193
q-78 -80 -190 -80t-188 79q-78 79 -78 194z" />
    <glyph glyph-name="lozenge" unicode="&#x25ca;" horiz-adv-x="1024" 
d="M881 641l-248 518q-20 47 -55 133h-7q-6 -14 -26 -63t-31 -70l-246 -508l248 -520q37 -76 49 -131h10q14 53 56 127zM1008 645l-371 -729h-135l-363 729l371 731h135z" />
    <glyph glyph-name="uni2610" unicode="&#x2610;" horiz-adv-x="1406" 
d="M180 1030v-983h959v983h-959zM1227 1110v-1036l-78 -74h-1014v1042l72 68h1020z" />
    <glyph glyph-name="uni2611" unicode="&#x2611;" horiz-adv-x="1406" 
d="M874 899q18 25 68 47t94 25v-4q-104 -112 -189 -267q-174 -318 -298 -577h-2q-37 31 -130 197t-93 202q10 20 40 48t48 32h2q10 -51 60 -175t83 -185q194 491 317 657zM180 1030v-983h959v983h-959zM1227 1110v-1036l-78 -74h-1014v1042l72 68h1020z" />
    <glyph glyph-name="Euro.fitted" unicode="&#xe000;" horiz-adv-x="1005" 
d="M797 1309q145 -1 209 -63t63 -134q0 -42 -25 -64q-26 -22 -52 -22t-36 11t-14 42q-25 188 -164 189q-128 0 -228 -136t-149 -358h488l-21 -51h-481q-4 -18 -16 -141h434l-23 -54h-420q-23 -131 24 -301q20 -73 72 -119t148 -46t170 56q72 58 144 183l28 -22
q-80 -156 -170 -228t-254 -71q-216 0 -296 163q-71 145 -50 385h-137l18 54h127q4 18 12 70q7 52 11 71h-98l22 51h88q174 535 576 535z" />
    <glyph glyph-name="Euro.oldstyle" unicode="&#xe001;" horiz-adv-x="966" 
d="M514 -23q-235 0 -300 150q-58 130 -50 322h-121l18 49h107q10 86 22 133h-77l14 47h76q145 449 514 448q139 0 198 -57t60 -127q0 -31 -24 -51t-52 -21q-33 0 -39 37q-31 182 -149 183q-88 0 -159 -69q-70 -69 -108 -154t-63 -189h448l-18 -47h-444q-3 -17 -11 -69
t-10 -64h387l-16 -49h-373q-23 -399 213 -400q199 0 313 215l27 -20q-51 -113 -155 -190q-102 -77 -228 -77z" />
    <glyph glyph-name="cent.fitted" unicode="&#xe003;" horiz-adv-x="1005" 
d="M348 551q0 -252 170 -295l189 846q-159 0 -259 -167t-100 -384zM1040 954q0 -41 -30 -61t-60 -21q-43 0 -53 52q-16 84 -57 130t-84 48l-193 -858q111 0 196 38t163 154l30 -24q-145 -240 -405 -244l-41 -174h-49l39 174q-115 4 -214 80q-52 38 -84 112t-32 172
q0 258 152 435q153 176 401 184l31 135h49l-31 -135q108 -4 190 -59t82 -138z" />
    <glyph glyph-name="colonmonetary.fitted" unicode="&#xe004;" horiz-adv-x="1005" 
d="M864 1221q-25 16 -100 16l-324 -1108q25 -25 95 -47zM397 174l312 1061q-158 -25 -270 -252t-111 -516q-1 -197 69 -293zM1069 1083q0 -37 -19 -55t-43 -18t-32 7q-9 7 -23 67t-43 98l-321 -1102q213 10 342 239l28 -22q-32 -61 -56 -100t-68 -86q-88 -93 -267 -105
l-43 -168h-59l47 168q-24 0 -102 12l-56 -180h-55l59 201q-207 76 -206 422q0 203 67 384q68 181 200 303t300 134l33 115h61l-33 -115q61 -4 99 -12q18 63 32 125h64l-43 -146q137 -45 137 -166z" />
    <glyph glyph-name="colonmonetary.oldstyle" unicode="&#xe005;" horiz-adv-x="931" 
d="M481 66l279 991q-45 20 -86 20l-287 -979q53 -28 94 -32zM344 133l277 942q-145 -27 -247 -213t-104 -410q0 -224 74 -319zM981 953q0 -38 -22 -58q-23 -21 -47 -21t-33 27q-33 98 -74 133l-275 -973q207 0 316 218l28 -23q-51 -116 -154 -184t-212 -70l-51 -168h-51
l53 170q-80 4 -101 10l-57 -180h-51l63 197q-90 29 -141 99t-64 140q-51 283 69 521q154 300 456 317l41 135h51l-41 -133q49 0 94 -6l43 139h51l-45 -149q68 -14 111 -58t43 -83z" />
    <glyph glyph-name="currency.taboldstyle" unicode="&#xe006;" horiz-adv-x="966" 
d="M490 793q-112 0 -172 -85q-58 -85 -58 -220q0 -134 67 -218t175 -84t172 76q63 76 63 219t-67 228q-68 84 -180 84zM502 868q144 0 219 -73l96 127l84 -80l-115 -115q68 -85 68 -231t-74 -238l125 -108l-92 -97l-100 133q-81 -78 -223 -78t-211 72l-97 -123l-84 86
l109 101q-63 114 -63 248t69 233l-119 115l82 86l107 -133q75 75 219 75z" />
    <glyph glyph-name="dollar.fitted" unicode="&#xe007;" horiz-adv-x="1005" 
d="M745 309q0 83 -45 141t-141 113l-117 -524q131 -4 217 69t86 201zM1008 1062q0 -80 -74 -81q-41 0 -49 43q-35 186 -170 215l-115 -494q170 -91 238 -161t67 -199q0 -169 -126 -277t-347 -108l-39 -186h-53l45 192q-147 8 -241 85q-93 77 -93 165q2 43 26 70q24 26 49 26
t37 -8t19 -41q27 -117 85 -180t128 -76l119 541q-164 78 -220 156t-56 178q0 168 118 269q119 101 320 95l33 146h49l-33 -150q115 -10 199 -75t84 -145zM385 991q0 -80 40 -129t128 -96l111 477q-131 5 -205 -61t-74 -191z" />
    <glyph glyph-name="egrave.superior" unicode="&#xe008;" horiz-adv-x="563" 
d="M274 831q260 41 261 177q0 78 -56 77q-67 0 -129 -75t-76 -179zM311 557q-156 0 -155 193q0 154 98 264t247 108q149 0 148 -125q0 -135 -366 -194q-8 -2 -13 -2q-2 -8 -2 -52t26 -83t85 -39q125 0 217 129l20 -21q-51 -84 -134 -131t-171 -47zM362 1336q0 24 23 40
q50 36 69 3q7 -13 17 -56l37 -139l-19 -13l-94 109q-33 33 -33 56z" />
    <glyph glyph-name="florin.fitted" unicode="&#xe009;" horiz-adv-x="1005" 
d="M124 -287q-80 0 -130 34q-49 34 -48 74q0 41 28 65t60 24t54 -45q47 -102 94 -103q63 0 119 240q88 381 156 690h-189l15 51h186q37 135 53 191q44 149 129 274q106 160 285 160q90 0 129 -36t39 -74t-25 -60t-57 -22t-49 36q-25 61 -45 83t-51 22q-63 0 -127 -221
q-47 -152 -88 -353h233l-14 -51h-230q-117 -476 -131 -532t-45 -132t-79 -150q-48 -75 -120 -120t-152 -45z" />
    <glyph glyph-name="florin.oldstyle" unicode="&#xe00a;" horiz-adv-x="966" 
d="M117 -287q-82 0 -128 35t-46 74q1 40 25 62t52 22t46 -39q57 -117 106 -117q63 0 100 160q59 254 142 711h-181l11 49h178l33 135q94 432 385 432q90 0 132 -35t42 -69q0 -33 -26 -57t-56 -24t-43 33q-25 66 -45 90q-20 23 -56 23t-67 -58t-64 -218l-53 -252h240l-13 -49
h-235l-94 -453q-94 -455 -385 -455z" />
    <glyph glyph-name="g.superior" unicode="&#xe00b;" horiz-adv-x="653" 
d="M213 410q1 -58 61 -108t145 -50t133 35t48 103t-94 95q-14 3 -83 21t-91 26q-45 -6 -82 -34q-37 -30 -37 -88zM512 1092q-72 0 -111 -71t-39 -144q0 -135 95 -136q65 0 105 65t40 155q0 131 -90 131zM707 934q-1 -104 -63 -162t-187 -59q-27 0 -76 8q-49 -14 -49 -39
q0 -35 59 -51q29 -9 90 -23t88 -22q129 -35 129 -152q0 -86 -80 -152t-210 -67q-130 0 -208 52t-77 134q0 51 42 91t128 59v2q-61 27 -61 93t108 91v2q-88 43 -88 143t59 171q59 70 195 69q72 0 139 -41l150 27l2 -6l-39 -62h-86q35 -39 35 -106z" />
    <glyph glyph-name="numbersign.fitted" unicode="&#xe00c;" horiz-adv-x="1005" 
d="M961 770h-175l-71 -217h172l-31 -96h-172l-125 -365h-55l123 365h-240l-121 -365h-63l127 365h-178l32 96h176l72 217h-176l33 96h174l112 330h58l-109 -330h238l112 330h56l-113 -330h174zM731 770h-239l-72 -217h235z" />
    <glyph glyph-name="numbersign.oldstyle" unicode="&#xe00d;" horiz-adv-x="966" 
d="M905 639h-176l-76 -223h176l-28 -99h-178l-123 -368h-58l125 368h-243l-123 -368h-60l125 368h-178l31 99h180l74 223h-180l30 98h180l113 334h55l-112 -334h246l110 334h55l-110 -334h176zM672 639h-242l-76 -223h246z" />
    <glyph glyph-name="bullet.001" unicode="&#xe00e;" horiz-adv-x="1345" 
d="M907 133q-127 0 -213 -33q-117 -111 -84 -376l-8 -7q-16 53 -82 95q-26 18 -14 56t65 124t99 135q147 61 331 61q252 1 318 -163l-6 -9q-170 117 -406 117zM324 498q72 0 123 -24t97 -83t63 -90q51 -93 60 -111t11 -20l-21 -10q-158 238 -376 237q-112 0 -140 -12
t-65 -31l-4 8q36 64 108 100t144 36zM698 186q18 63 -8 107q-55 102 -79 176t-23 170q0 156 87 256t255 131q248 47 305 80l6 -12q-103 -133 -251 -387t-240 -469q172 4 306 105t154 288q2 16 9 150q6 134 23 219t56 149h19q-41 -168 -26 -295t16 -223q0 -171 -115 -271
t-311 -137q-141 -27 -166 -47z" />
    <glyph glyph-name="bullet.002" unicode="&#xe00f;" horiz-adv-x="1433" 
d="M655 596q-73 0 -117 -30t-44 -79t40 -81t119 -33q186 0 379 112v7q-240 104 -377 104zM412 606q0 66 59 110t195 44t381 -119t352 -135v-6q-103 -78 -327 -177t-429 -99t-205 157q0 6 29 80q-72 -4 -217 -29t-199 -37l-6 15l82 63l-14 51q184 -25 338 -32q-39 48 -39 114
z" />
    <glyph glyph-name="bullet.003" unicode="&#xe010;" horiz-adv-x="1509" 
d="M887 145q-151 0 -261 72t-110 184q0 55 23 81t84 38q-199 94 -297 94q-160 0 -248 -88l-15 19q25 55 103 115t158 60t151 -36q72 -37 178 -117q-10 51 -10 68q0 61 47 108t122 47t106 -18l40 -24t30 -28t40 -39q19 -17 64 -73q135 -154 301 -153q59 0 110 51l13 -10
q-16 -74 -119 -125q-12 -4 -25 -17q-133 -209 -485 -209z" />
    <glyph glyph-name="bullet.024" unicode="&#xe011;" horiz-adv-x="641" 
d="M444 492q50 -82 92 -208t54 -202h-2q-236 229 -520 407v3q289 182 520 409l2 -2q-64 -286 -146 -407z" />
    <glyph glyph-name="bullet.025" unicode="&#xe012;" horiz-adv-x="641" 
d="M213 492q-51 80 -92 206t-53 201l2 2q231 -227 520 -409v-3q-285 -178 -520 -407h-2q63 285 145 410z" />
    <glyph glyph-name="bullet.028" unicode="&#xe013;" horiz-adv-x="890" 
d="M829 936l-139 -447l139 -448h-2l-766 448v3l766 446zM741 154l-108 335h-467z" />
    <glyph glyph-name="bullet.029" unicode="&#xe014;" horiz-adv-x="890" 
d="M61 43l140 446l-140 449h2l766 -449v-2l-766 -446zM150 825l110 -336h465z" />
    <glyph glyph-name="bullet.030" unicode="&#xe015;" horiz-adv-x="1370" 
d="M1327 440l-645 27l279 -424l-3 -2l-909 446v2l909 449l3 -2l-281 -424l647 25v-97zM596 489l227 326l-663 -326h436z" />
    <glyph glyph-name="bullet.031" unicode="&#xe016;" horiz-adv-x="1370" 
d="M49 539l647 -27l-280 424l2 2l909 -446v-3l-909 -448l-2 2l280 424l-647 -25v97zM780 489l-227 -325l664 325h-437z" />
    <glyph glyph-name="bullet.032" unicode="&#xe017;" horiz-adv-x="1146" 
d="M813 561q186 14 277 47l2 -4l-37 -98l-217 16zM834 352q0 -76 -81 -142t-155 -65q-74 0 -120 23q-48 23 -124 94q-61 61 -159 142t-142 110v2q23 23 64 35q246 276 430 276q193 0 192 -225h-22q-53 117 -187 117q-100 0 -177 -32t-173 -132q98 4 574 4q80 -98 80 -207z
" />
    <glyph glyph-name="bullet.033" unicode="&#xe018;" horiz-adv-x="1146" 
d="M332 412q-186 -14 -277 -47l-2 4l37 98l215 -16zM311 605q0 91 80 157q81 66 155 66t122 -22t114 -88q68 -66 166 -148t144 -111v-2q-23 -23 -64 -35q-248 -276 -436 -276t-189 225h23q57 -117 186 -117q104 0 180 32t171 132q-94 -4 -574 -4q-78 100 -78 191z" />
    <glyph glyph-name="bullet.034" unicode="&#xe019;" horiz-adv-x="729" 
d="M166 629v-344h330v344h-330zM627 762v-424l-113 -117h-412v424l119 117h406z" />
    <glyph glyph-name="bullet.035" unicode="&#xe01a;" horiz-adv-x="1048" 
d="M469 938h111l-33 -397l258 305l78 -80l-305 -258l399 35v-113l-399 35l305 -258l-78 -80l-258 305l33 -397h-111l33 397l-258 -305l-80 80l305 258l-397 -35v113l397 -35l-305 258l80 80l258 -305z" />
    <glyph glyph-name="bullet.036" unicode="&#xe01b;" horiz-adv-x="1013" 
d="M508 633q61 0 103 -43q42 -42 42 -104t-42 -105t-103 -43t-104 43q-42 43 -42 104t42 105q43 43 104 43zM170 207l164 162l55 -56l-162 -163zM625 659l161 164l58 -57l-164 -162zM786 150l-163 161l57 58l162 -164zM332 602l-162 162l57 57l162 -162zM72 526h229v-80
h-229v80zM713 526h229v-80h-229v80zM465 51v230h80v-230h-80zM465 692v230h80v-230h-80z" />
    <glyph glyph-name="bullet.037" unicode="&#xe01c;" horiz-adv-x="978" 
d="M502 915l43 -297l239 181l19 -19l-182 -239l297 -41v-27l-297 -41l182 -239l-19 -19l-239 180l-43 -297h-25l-45 295l-235 -178l-19 19l176 235l-293 45v27l297 41l-180 239l19 19l239 -181l41 297h25z" />
    <glyph glyph-name="bullet.038" unicode="&#xe01d;" horiz-adv-x="1155" 
d="M848 981q20 27 99 61t128 45l8 -10q-375 -408 -786 -1077h-21q-49 41 -126 195q-78 154 -78 204q8 15 50 53t64 46h4q31 -170 111 -361q74 135 256 424t291 420z" />
    <glyph glyph-name="sterling.fitted" unicode="&#xe01e;" horiz-adv-x="1005" 
d="M297 664v79q0 565 432 566q143 1 208 -61t64 -134q1 -38 -25 -62t-52 -24q-39 0 -52 47q-20 93 -61 143t-129 50q-201 0 -195 -414v-190h291l-16 -52h-275q-16 -150 -77 -264t-201 -198l2 -7h516q41 0 72 25t108 125l25 -19l-131 -274h-793l-8 10l45 78q147 51 202 172
q54 121 52 352h-170l14 52h154z" />
    <glyph glyph-name="sterling.oldstyle" unicode="&#xe01f;" horiz-adv-x="966" 
d="M254 578v81q0 177 72 310q84 159 324 159q128 0 190 -58t63 -130q-1 -37 -23 -55q-22 -19 -51 -19t-39 7t-23 62q-14 55 -36 91q-37 59 -117 59q-186 0 -174 -366v-141h283l-12 -54h-271q0 -116 -56 -228t-171 -159v-8h463q43 0 73 25t109 137l33 -19l-129 -272h-756
l-6 12l45 58q111 40 154 104t52 156t5 194h-160l10 54h148z" />
    <glyph glyph-name="yen.fitted" unicode="&#xe025;" horiz-adv-x="1005" 
d="M201 1284h432l-8 -37l-80 -6q-33 -2 -43 -13t-2 -50q8 -38 56 -228t62 -256h5q246 336 335 482q35 55 -14 61l-90 10l8 37h346l-8 -37l-47 -4q-61 -4 -131 -90t-360 -481h256l-13 -51h-270l-31 -144h281l-15 -51h-278l-70 -324q-10 -49 47 -55l117 -10l-8 -37h-508l10 37
l103 10q51 4 63 55l72 324h-252l16 51h248l29 144h-252l16 51h230q-76 317 -131 497q-14 63 -62 70l-70 8z" />
    <glyph glyph-name="yen.oldstyle" unicode="&#xe026;" horiz-adv-x="966" 
d="M649 0h-516l10 39q127 6 155 19t40 75l45 203h-238l11 51h237l29 143h-234l9 50h227q-57 176 -139 421q-18 57 -70 64l-47 6l8 39h404l-9 -39l-88 -8q-43 -2 -29 -44q77 -240 121 -409h3q70 96 156 228t118 175q31 44 -10 48l-99 10l9 39h333l-8 -39l-55 -8
q-62 -9 -114 -69t-302 -414h234l-11 -50h-243l-31 -143h244l-11 -51h-243l-41 -203q-14 -61 8 -75q23 -13 145 -19z" />
    <glyph glyph-name="acute.cap" unicode="&#xf6c9;" horiz-adv-x="782" 
d="M851 1710q21 0 39 -26t19 -42q0 -16 -4 -29t-31 -26q-27 -14 -44 -21t-23 -12l-256 -108l-10 22l207 172q82 70 103 70z" />
    <glyph glyph-name="caron.cap" unicode="&#xf6ca;" horiz-adv-x="782" 
d="M414 1675l18 21l186 -117q18 -16 52 0l223 117l14 -21l-270 -231h-35z" />
    <glyph glyph-name="dieresis.cap" unicode="&#xf6cb;" horiz-adv-x="782" 
d="M835 1663q41 0 63 -27q22 -26 16 -66t-36 -66q-28 -26 -68 -26t-62 26t-18 67q5 41 34 67t71 25zM482 1663q42 0 64 -27q22 -26 16 -66t-35 -66t-69 -26t-64 26t-18 67t34 67q30 26 72 25z" />
    <glyph glyph-name="grave.cap" unicode="&#xf6ce;" horiz-adv-x="782" 
d="M401 1660q0 14 24 40q40 42 78 11q15 -13 50 -62l137 -183l-14 -20l-191 125q-8 4 -20 12q-13 8 -19 12q-6 5 -15 11t-13 11t-8 11t-6 12t-3 20z" />
    <glyph glyph-name="hungarumlaut.cap" unicode="&#xf6cf;" horiz-adv-x="782" 
d="M848 1722q18 0 40 -17t22 -41t-62 -91l-127 -129l-19 14l70 166q37 98 76 98zM479 1446l-20 12l71 166q23 53 38 77q15 23 37 23t42 -17q21 -17 21 -44t-64 -90z" />
    <glyph glyph-name="macron.cap" unicode="&#xf6d0;" horiz-adv-x="782" 
d="M426 1585h446l-20 -98h-446z" />
    <glyph glyph-name="R_p" unicode="&#xf6dd;" horiz-adv-x="1984" 
d="M932 0q-93 0 -129 41q-13 17 -23 27t-16 36t-9 36q-7 26 -7 86v89q0 158 -32 215t-149 58h-102l-96 -461q-23 -84 34 -86l101 -6l-6 -35h-473l6 35l94 8q31 2 46 19t26 65l211 969q16 82 -39 84l-101 8l13 35h471q324 0 323 -289q0 -117 -92 -207t-264 -113v-10
q209 -61 215 -303q2 -53 -1 -119t17 -94q34 -49 150 -53l145 686q12 53 6 69t-34 17l-82 6l10 33l293 41l4 -4l-86 -351h6q92 180 203 268t211 87q182 0 182 -246q0 -145 -67 -308q-38 -95 -94 -172t-153 -129t-210 -52t-183 43l-90 -429l-166 -22l99 428h-162zM1694 803
q-68 0 -145 -79t-147 -206t-136 -448q53 -35 144 -35t168 74q77 73 118 181q80 209 82 380q0 133 -84 133zM580 629q160 0 238 83t79 213q0 130 -56 193q-56 64 -131 64t-97 -14t-29 -50l-109 -489h105z" />
    <glyph glyph-name="cent.inferior" unicode="&#xf6df;" 
d="M41 72q0 162 98 259t254 97l25 90h35l-23 -92q70 -4 118 -40t46 -87q0 -27 -16 -43t-43 -16t-37 45q-25 100 -74 110l-119 -506q137 -4 221 121l23 -16q-41 -74 -113 -116t-147 -40l-27 -119h-39l29 119q-211 8 -211 234zM174 70q0 -156 92 -172l119 501q-99 0 -155 -105
t-56 -224z" />
    <glyph glyph-name="cent.superior" unicode="&#xf6e0;" 
d="M264 1157q0 162 98 259t254 97l25 91h35l-23 -93q70 -4 118 -40t46 -87q0 -27 -16 -43t-42 -16t-38 45q-25 100 -74 111l-119 -506q137 -4 222 121l22 -17q-40 -73 -112 -115t-148 -40l-27 -119h-39l29 119q-211 8 -211 233zM489 983l119 502q-100 1 -155 -105t-56 -225
q0 -156 92 -172z" />
    <glyph glyph-name="comma.inferior" unicode="&#xf6e1;" horiz-adv-x="239" 
d="M-10 -180q0 39 -15 71q19 13 59 29t62 12q25 -30 25 -76t-47 -115t-83 -101t-97 -86l-19 14q115 123 115 252z" />
    <glyph glyph-name="comma.superior" unicode="&#xf6e2;" horiz-adv-x="239" 
d="M211 905q0 37 -14 74q18 13 58 29t62 12q25 -29 25 -76t-47 -117q-47 -71 -83 -103t-97 -85l-19 14q115 127 115 252z" />
    <glyph glyph-name="dollar.inferior" unicode="&#xf6e3;" 
d="M401 -78q0 41 -17 71q-16 31 -34 43t-53 30l-70 -289q174 -4 174 145zM528 -42q0 -91 -87 -156t-220 -60l-28 -117h-43l26 119q-88 8 -148 56t-61 106q0 31 22 49t48 18q31 0 41 -47q31 -127 108 -147l72 301q-104 43 -144 87t-40 134q0 91 78 153t210 62l23 98h43
l-25 -102q55 -4 115 -42t58 -97q-1 -59 -60 -60q-31 0 -37 35q-20 102 -86 125l-63 -280q122 -53 160 -99t38 -136zM193 340q0 -88 98 -129l61 270q-66 4 -112 -36t-47 -105z" />
    <glyph glyph-name="dollar.superior" unicode="&#xf6e4;" 
d="M623 1008q1 40 -17 70t-36 42t-52 31l-69 -289q174 -4 174 146zM737 1399q-31 0 -37 35q-20 102 -86 125l-63 -281q121 -53 160 -98t39 -136t-87 -156t-221 -61l-28 -116h-43l26 118q-88 9 -148 57t-61 105q0 31 22 49t48 19q31 0 41 -47q31 -127 109 -148l71 301
q-104 43 -144 87t-40 134t78 153t211 63l22 98h43l-24 -103q55 -4 114 -42t58 -95q0 -61 -60 -61zM414 1425q0 -88 98 -129l61 271q-67 4 -113 -36t-46 -106z" />
    <glyph glyph-name="hyphen.inferior" unicode="&#xf6e5;" horiz-adv-x="397" 
d="M29 158h313l-23 -82h-315z" />
    <glyph glyph-name="hyphen.superior" unicode="&#xf6e6;" horiz-adv-x="397" 
d="M250 1243h313l-22 -82h-316z" />
    <glyph glyph-name="period.inferior" unicode="&#xf6e7;" horiz-adv-x="239" 
d="M36 -106q40 0 60 -23t20 -61t-22 -66q-24 -27 -64 -27t-62 22q-22 23 -22 61t25 66t65 28z" />
    <glyph glyph-name="period.superior" unicode="&#xf6e8;" horiz-adv-x="239" 
d="M259 977q40 0 60 -23q21 -24 21 -62t-23 -65t-63 -27t-63 22q-21 22 -21 61t24 67t65 27z" />
    <glyph glyph-name="b.superior" unicode="&#xf6ea;" horiz-adv-x="702" 
d="M637 1122q121 0 121 -150t-102 -281q-102 -132 -261 -132q-106 0 -157 76l-54 -62h-22l174 701q8 31 4 41t-29 12l-65 6l4 25l221 28l4 -6l-131 -479h2q66 104 143 163q78 58 148 58zM393 590q72 0 130 78t84 166t26 160t-55 71q-40 0 -98 -50q-58 -51 -94 -107t-55 -126
t-20 -110q0 -82 82 -82z" />
    <glyph glyph-name="d.superior" unicode="&#xf6eb;" horiz-adv-x="675" 
d="M629 623q27 -1 55 27t45 71l23 -16q-31 -66 -84 -107t-101 -41q-94 2 -59 123l33 108l-6 -2q-59 -92 -137 -160t-158 -69q-47 0 -72 26q-25 25 -29 51t-4 86t39 152t134 171t224 79q41 0 86 -18l54 190q6 20 2 26t-25 9l-67 4l4 25l213 26l2 -8l-189 -712q-10 -41 17 -41
zM549 1085q-123 0 -211 -142t-88 -255q0 -70 51 -70q80 0 182 146q86 129 129 303q-29 18 -63 18z" />
    <glyph glyph-name="e.superior" unicode="&#xf6ec;" horiz-adv-x="563" 
d="M274 831q260 41 261 177q0 78 -56 77q-67 0 -129 -75t-76 -179zM311 557q-156 0 -155 193q0 154 98 264t247 108q149 0 148 -125q0 -135 -366 -194q-8 -2 -13 -2q-2 -8 -2 -52t26 -83t85 -39q125 0 217 129l20 -21q-51 -84 -134 -131t-171 -47z" />
    <glyph glyph-name="i.superior" unicode="&#xf6ed;" horiz-adv-x="358" 
d="M379 1350q59 0 59 -58q0 -82 -73 -82q-27 0 -43 16t-16 46t20 54t53 24zM299 637q39 0 102 98l21 -14q-33 -66 -87 -114q-53 -48 -101 -48t-62 30t-2 75l104 356q12 37 -22 41l-66 8l9 18l213 33l2 -6l-119 -414q-18 -63 8 -63z" />
    <glyph glyph-name="l.superior" unicode="&#xf6ee;" horiz-adv-x="366" 
d="M244 557q-88 0 -62 105l162 622q10 39 -20 41l-76 8l4 23l225 28l2 -4l-180 -700q-16 -63 10 -64q35 0 103 99l18 -15q-78 -143 -186 -143z" />
    <glyph glyph-name="m.superior" unicode="&#xf6ef;" horiz-adv-x="1026" 
d="M979 1122q115 0 68 -157l-89 -281q-18 -66 11 -66q35 0 104 103l14 -12q-33 -66 -81 -108t-96 -42t-63 30t-3 75l100 327q10 31 0 50t-35 20q-57 0 -129 -78t-106 -155t-88 -255l-111 -14l143 438q20 63 -36 64q-61 0 -129 -76t-107 -160t-90 -252l-111 -14l123 451
q14 47 -22 51l-68 8l4 21l221 32l7 -6l-74 -237h4q59 104 140 174t161 69q46 0 59 -15t18 -25t3 -28q-2 -17 -4 -37t-21 -65q-20 -44 -22 -49l4 -2q158 221 301 221z" />
    <glyph glyph-name="r.superior" unicode="&#xf6f1;" horiz-adv-x="479" 
d="M614 1059q0 -27 -19 -53t-41 -25t-43 23q-22 22 -42 22q-57 0 -121 -203q-2 -8 -72 -250l-108 -14l108 455q6 20 3 30q-4 10 -25 13l-74 6l8 27l207 32l2 -4l-43 -170h6q42 76 96 125t91 48t52 -18t15 -44z" />
    <glyph glyph-name="s.superior" unicode="&#xf6f2;" horiz-adv-x="442" 
d="M378 1122q74 0 111 -28t37 -60q0 -58 -47 -57q-23 0 -37 31q-41 80 -92 79q-29 0 -47 -20t-18 -59q0 -57 92 -123q102 -70 102 -146t-53 -128q-54 -52 -146 -52t-130 33t-39 65q0 32 17 49q18 17 40 17t37 -33q45 -92 117 -92q66 0 65 78q-1 40 -23 68t-71 67
q-92 67 -92 139t52 122q51 50 125 50z" />
    <glyph glyph-name="t.superior" unicode="&#xf6f3;" horiz-adv-x="425" 
d="M444 721l19 -16q-76 -145 -199 -146q-98 0 -63 129l98 383h-98l14 37h94l25 96l129 80l4 -6l-49 -170h151l-12 -37h-149l-95 -369q-23 -84 11 -84q48 1 120 103z" />
    <glyph glyph-name="dollar.oldstyle" unicode="&#xf724;" horiz-adv-x="966" 
d="M508 459l-92 -418q125 -6 204 46t78 163q0 76 -48 121t-142 88zM352 831q0 -127 162 -186l86 389q-102 4 -175 -49t-73 -154zM922 881q0 -29 -26 -52t-50 -22q-41 0 -55 49q-23 86 -58 123t-84 49l-94 -403q177 -66 237 -128t60 -173q0 -154 -125 -242t-326 -82l-39 -172
h-53l41 172q-139 16 -221 80t-82 139q0 41 24 65t52 23q37 0 51 -53q28 -108 83 -149t110 -58l102 432q-162 61 -213 123t-51 177q0 114 109 205q110 91 298 89l35 139h49l-32 -141q92 -4 175 -54t83 -136z" />
    <glyph glyph-name="zero.oldstyle" unicode="&#xf730;" horiz-adv-x="1013" 
d="M797 678q0 266 -179 266q-81 0 -150 -72q-120 -125 -172 -387q-22 -103 -22 -217t41 -184t146 -70t186 118q150 215 150 546zM629 981q356 0 356 -373q0 -129 -49 -269t-141 -226q-153 -135 -343 -135t-277 90t-87 284q0 132 55 272t152 228q146 129 334 129z" />
    <glyph glyph-name="one.oldstyle" unicode="&#xf731;" horiz-adv-x="632" 
d="M188 918l361 63l6 -6l-199 -869q-12 -55 43 -59l146 -14l-8 -33h-555l8 33l129 14q51 6 63 59l174 709q14 57 -24 62l-148 12z" />
    <glyph glyph-name="two.oldstyle" unicode="&#xf732;" horiz-adv-x="917" 
d="M662 718q0 222 -146 222q-80 0 -130 -59t-93 -201q-12 -51 -54 -51t-66 19t-23 54q0 98 107 189q108 90 284 90q309 0 309 -279q0 -128 -84 -206t-291 -154q-88 -33 -205 -95t-153 -110l438 2q250 0 293 15l2 -9l-92 -145h-764l-2 10q68 199 397 361q143 73 208 157
t65 190z" />
    <glyph glyph-name="three.oldstyle" unicode="&#xf733;" horiz-adv-x="890" 
d="M629 739q0 205 -144 205q-137 0 -213 -217q-16 -47 -49 -47q-69 0 -69 65q0 84 101 160t241 76t225 -63q86 -62 86 -194t-88 -208t-221 -96v-8q264 -57 264 -262q0 -186 -124 -284t-305 -99q-181 0 -272 69q-90 70 -90 166q0 34 24 58q25 24 53 24t37 -11t15 -40
q63 -229 234 -230q227 0 227 349q0 92 -43 164t-139 71l-119 -12q-41 0 -41 33q0 49 47 49l127 -17q115 0 175 81t61 218z" />
    <glyph glyph-name="four.oldstyle" unicode="&#xf734;" horiz-adv-x="935" 
d="M115 207h409l144 618h-4q-399 -421 -549 -618zM510 139h-485l-15 35q322 375 727 784h113l-158 -751h185l-17 -68h-182l-78 -360h-170z" />
    <glyph glyph-name="five.oldstyle" unicode="&#xf735;" horiz-adv-x="899" 
d="M367 809q-31 0 -41 -7t-19 -30l-121 -381l4 -2q125 98 283 98q311 0 311 -299q0 -186 -130 -304t-337 -117q-157 1 -233 65t-76 154q0 30 24 54t50 24t34 -13q8 -12 17 -43q29 -113 78 -159t131 -46q108 -1 178 97t70 276q0 112 -55 178t-152 66q-141 0 -238 -131l-24 30
l184 635l8 4h363q184 0 207 23l10 -12l-92 -160h-434z" />
    <glyph glyph-name="six.oldstyle" unicode="&#xf736;" horiz-adv-x="1003" 
d="M575 672q-133 0 -210 -90t-76 -271q0 -297 200 -297q109 0 188 117t79 301q0 108 -50 174t-131 66zM879 1163q-199 1 -355 -155t-207 -412l7 -2q63 68 153 111t168 43q295 0 295 -318q0 -178 -123 -316t-344 -139q-362 0 -362 418q0 306 194 557q93 119 239 192t322 72
q119 1 166 -34l-10 -33q-72 16 -143 16z" />
    <glyph glyph-name="seven.oldstyle" unicode="&#xf737;" horiz-adv-x="847" 
d="M256 -233q-84 0 -84 96q0 162 344 547q223 250 309 403h-506q-67 1 -90 -25q-24 -26 -30 -33q-7 -7 -27 -47t-27 -49l-36 5l100 294h723l6 -10q-57 -176 -375 -563q-96 -117 -161 -269t-68 -268q-2 -45 -20 -63t-58 -18z" />
    <glyph glyph-name="eight.oldstyle" unicode="&#xf738;" horiz-adv-x="948" 
d="M496 618q-115 0 -184 -93t-68 -249q0 -262 186 -262q125 0 196 112t70 267q1 225 -200 225zM616 1180q-110 0 -164 -109t-55 -225q0 -190 142 -191q89 -1 159 93t70 237q0 79 -34 137t-118 58zM604 1217q334 0 334 -275q0 -127 -82 -203t-205 -96v-6q221 -68 221 -256
t-112 -296t-316 -108q-377 0 -376 314q0 152 89 244t236 118v6q-162 55 -162 215q-1 160 105 252q106 91 268 91z" />
    <glyph glyph-name="nine.oldstyle" unicode="&#xf739;" horiz-adv-x="935" 
d="M530 944q-96 0 -169 -108t-73 -234t45 -202q43 -76 151 -76t171 68t64 235q-1 317 -189 317zM406 244q-144 0 -218 82t-73 221q0 178 122 306t304 128q350 0 350 -418q0 -203 -68 -380t-216 -297t-353 -119q-149 0 -227 57l10 26q84 -25 182 -24q180 0 308 148t173 407
l-4 4q-146 -141 -290 -141z" />
    <glyph glyph-name="cent.oldstyle" unicode="&#xf7a2;" horiz-adv-x="966" 
d="M905 762q1 -25 -21 -43q-22 -19 -48 -19t-34 10q-9 10 -18 35q-35 135 -110 140l-193 -760q213 -10 346 184l23 -24q-72 -119 -177 -175t-208 -57l-45 -182h-47l45 182q-123 6 -212 83t-89 245q0 215 145 377q146 162 377 166l27 120h45l-29 -120q98 -4 160 -47t63 -115z
M291 376q0 -202 147 -243l189 752q-141 2 -239 -152q-98 -155 -97 -357z" />
    <glyph glyph-name="fi" unicode="&#xfb01;" horiz-adv-x="1099" 
d="M811 1487q147 1 216 -59t69 -146q0 -45 -30 -71q-30 -25 -78 -25t-48 43q0 159 -64 199q-34 22 -85 22q-193 0 -297 -424l-19 -82h209q152 0 365 23l6 -6l-215 -795q-31 -109 18 -109q86 0 189 203l30 -22q-117 -262 -295 -263q-150 0 -102 191l170 635q16 49 4 68
t-70 20h-321q-57 -270 -168 -799q-70 -322 -173 -464t-255 -142q-78 0 -123 31t-47 74t29 71q32 28 64 29q32 0 52 -41q63 -106 113 -107q59 0 108 250q20 102 109 517q88 415 121 581h-170l16 55h168l27 105q115 438 477 438z" />
    <glyph glyph-name="fl" unicode="&#xfb02;" horiz-adv-x="1099" 
d="M799 1487q150 0 237 -74l125 74l10 -4l-319 -1319q-23 -106 20 -107q74 0 177 207l32 -20q-113 -268 -293 -269q-139 0 -92 193l267 1110q-11 78 -61 125t-132 47q-190 0 -281 -422l-18 -84h250l-16 -55h-244q-59 -281 -168 -803q-63 -308 -167 -456t-263 -148
q-68 0 -118 33t-51 73t31 69q33 28 61 28t56 -39q70 -104 115 -105q57 0 106 248q16 80 104 503q87 423 122 597h-170l14 55h168l25 96q45 197 158 322q114 125 315 125z" />
    <glyph glyph-name="one.superior" 
d="M655 827h-424l11 31l92 10q53 6 61 45l129 586q6 35 -24 37l-109 10v25l281 41l6 -8l-152 -691q-4 -23 5 -31t38 -14l95 -10z" />
    <glyph glyph-name="two.superior" 
d="M359 1358q-32 0 -48 17t-16 42q0 61 83 128t205 67t175 -58t53 -152t-61 -158t-178 -116q-247 -109 -302 -194h336q39 0 61 16t76 84l25 -12l-94 -195h-510l-6 7q18 72 106 154t194 146q215 131 215 285q1 155 -112 156q-49 0 -92 -45t-66 -131q-12 -41 -44 -41z" />
    <glyph glyph-name="three.superior" 
d="M408 1278q14 0 47 -8t69 -8q76 0 109 52t33 126q0 137 -98 137t-162 -143q-16 -37 -38 -37t-37 14q-13 14 -14 35q-1 58 67 112t185 54q225 0 226 -187q-1 -75 -57 -123t-148 -59v-8q174 -33 174 -176q0 -102 -79 -174t-243 -72q-115 0 -178 49t-63 107q0 29 17 51t48 22
t49 -47q45 -147 156 -147q147 0 147 231q0 135 -114 135l-105 -14q-29 0 -29 39t38 39z" />
    <glyph glyph-name="zero.slash" horiz-adv-x="1005" 
d="M311 115q39 -98 142 -99q135 0 240 230t144 493q38 264 7 400zM689 1270q-97 0 -186 -134q-156 -235 -208 -673q-20 -178 -4 -275l528 1014q-33 68 -130 68zM1030 887q0 -119 -33 -282t-105 -313q-151 -316 -437 -315q-119 0 -193 46l-59 -111l-43 29l59 110
q-113 104 -113 344q0 152 39 319t105 290q160 305 436 305q104 0 172 -37l47 88l39 -25l-45 -88q131 -98 131 -360z" />
    <glyph glyph-name="percent.oldstyle" horiz-adv-x="1314" 
d="M1018 551q-66 0 -114 -78q-77 -125 -85 -321q0 -135 88 -136q95 0 149 144t54 267q0 124 -92 124zM899 -20q-102 0 -158 56q-55 56 -55 163q0 157 89 273t245 118q104 0 162 -60t57 -165q0 -161 -89 -273t-251 -112zM496 1092q-68 0 -117 -79q-89 -144 -84 -327
q4 -127 86 -127q68 0 118 79q81 128 89 327q0 127 -92 127zM721 920q0 -162 -88 -280t-256 -118q-103 0 -159 60t-56 161q0 156 91 271t249 114q102 0 162 -55q23 -23 69 -22h299q78 0 123 51l74 84l41 -37l-1112 -1225l-27 41l942 1034h-364q12 -74 12 -79z" />
    <glyph glyph-name="perthousand.oldstyle" horiz-adv-x="1904" 
d="M1606 551q-68 0 -116 -78q-83 -135 -83 -321q-4 -135 86 -136q94 0 148 142q53 142 55 268q2 125 -90 125zM1487 -20q-102 0 -158 56q-55 56 -55 163q0 157 89 273t247 116q102 0 160 -60t59 -163q0 -161 -90 -273t-252 -112zM1018 551q-66 0 -114 -78q-77 -125 -85 -321
q0 -135 88 -136q95 0 149 144t54 267q0 124 -92 124zM899 -20q-102 0 -158 56q-55 56 -55 163q0 157 89 273t245 116q104 0 162 -60t57 -163q0 -161 -89 -273t-251 -112zM496 1092q-68 0 -117 -79q-89 -144 -84 -327q4 -127 86 -127q68 0 118 79q81 128 89 327
q0 127 -92 127zM721 920q0 -162 -88 -280t-256 -118q-103 0 -159 60t-56 161q0 156 91 271t249 114q102 0 162 -55q23 -23 69 -22h297q80 0 125 51l72 84l43 -37l-1112 -1225l-27 41l942 1034h-364q12 -74 12 -79z" />
    <glyph glyph-name="zero.fitted" horiz-adv-x="1005" 
d="M688 1309q342 0 342 -422q0 -121 -32 -284t-104 -311q-151 -315 -437 -315q-350 0 -351 418q0 152 39 319t105 290q159 305 438 305zM696 1270q-178 0 -311 -398q-98 -307 -98 -565q0 -291 166 -291q76 0 139 70t100 157q100 235 139 511q23 156 23 264t-33 180t-125 72z
" />
    <glyph glyph-name="one.fitted" horiz-adv-x="1005" 
d="M121 0l8 37l172 16q49 6 64 66l231 1018q16 63 -23 65l-182 12l10 27l400 68l6 -9l-260 -1181q-8 -33 0 -48t43 -20l166 -14l-6 -37h-629z" />
    <glyph glyph-name="two.fitted" horiz-adv-x="1005" 
d="M821 1001q0 269 -192 269q-100 0 -168 -66t-115 -229q-12 -53 -57 -53q-35 0 -61 24t-25 66q0 98 122 197t307 99t284 -79q100 -80 100 -244t-96 -261t-336 -224q-216 -119 -314 -194t-155 -159h602q37 1 57 7q42 14 148 143l28 -18l-131 -279h-811l-6 4q27 104 133 234
t307 269q201 138 290 254t89 240z" />
    <glyph glyph-name="three.fitted" horiz-adv-x="1005" 
d="M512 664q-47 0 -100 -6t-60 -7q-41 0 -41 31q0 53 37 53q12 0 72 -8t110 -8q264 0 265 325q0 225 -166 226q-93 0 -147 -60t-95 -170q-20 -45 -54 -45q-33 0 -55 22t-22 56q0 86 109 161t259 75t256 -68t107 -215t-107 -231t-239 -95v-6q115 -20 198 -95t83 -200
q0 -211 -144 -316t-344 -105q-201 0 -297 77q-96 78 -96 164q0 47 28 75q27 28 57 28t41 -12t19 -42q35 -133 84 -192q49 -60 170 -60t199 100t78 308q0 90 -47 165t-158 75z" />
    <glyph glyph-name="four.fitted" horiz-adv-x="1005" 
d="M147 434h457l164 723l-4 2q-478 -508 -617 -725zM948 371h-188l-53 -260q-8 -35 2 -49t41 -15l106 -10l-10 -37h-502l12 37l113 10q53 4 66 64l55 260h-514l-17 37q88 124 340 418t426 460h127l-178 -852h193z" />
    <glyph glyph-name="five.fitted" horiz-adv-x="1005" 
d="M768 1286q156 0 202 5t68 22l15 -15l-99 -161h-503q-29 -1 -42 -9t-22 -38l-127 -428l4 -3q58 45 156 84t170 39q172 0 265 -89t93 -255q0 -207 -147 -334t-373 -127q-182 0 -273 72t-92 160q0 41 28 71t63 29q35 0 49 -51q61 -242 256 -242q121 0 204 106t82 288
q0 132 -62 206t-171 74q-178 0 -276 -119l-37 29l178 680l10 6h381z" />
    <glyph glyph-name="six.fitted" horiz-adv-x="1005" 
d="M776 475q0 109 -56 177t-162 69q-104 0 -179 -76q-98 -102 -98 -321q0 -307 206 -308q117 0 203 127t86 332zM719 1309q170 0 248 -67t77 -138q0 -35 -30 -64t-62 -28q-47 0 -57 55q-19 90 -65 146t-115 57q-137 0 -245 -175t-167 -466h2q158 166 324 166q166 -1 252 -93
t86 -230q0 -283 -212 -422q-112 -73 -263 -73q-211 0 -304 118q-92 117 -92 313t67 396t171 320q160 185 385 185z" />
    <glyph glyph-name="seven.fitted" horiz-adv-x="1005" 
d="M442 1137q-66 0 -98 -27t-96 -135l-39 2l110 309h801l8 -10q-56 -153 -226 -376q-60 -79 -173 -216q-248 -307 -272 -627q-5 -47 -23 -63t-67 -17q-94 0 -95 78q0 117 86 264t332 413t318 405h-566z" />
    <glyph glyph-name="eight.fitted" horiz-adv-x="1005" 
d="M262 308q0 -292 225 -292q115 0 190 124t75 262q0 268 -201 268q-133 0 -211 -111t-78 -251zM668 1270q-111 0 -173 -116t-63 -236q0 -211 168 -211q96 0 164 103t67 249q1 91 -39 151t-124 60zM256 952q0 174 118 266t292 91q174 0 258 -86t84 -203q0 -270 -289 -320v-6
q87 -28 155 -102t68 -193q0 -188 -120 -305t-336 -117q-216 -1 -315 93t-99 250t101 262t247 123v8q-164 65 -164 239z" />
    <glyph glyph-name="nine.fitted" horiz-adv-x="1021" 
d="M362 866q0 -114 54 -188t175 -74q122 0 179 92t57 187q0 170 -33 269q-39 116 -169 116q-103 0 -183 -113t-80 -289zM489 522q-145 0 -227 87t-82 239q0 211 129 336t324 125q391 0 377 -486q-10 -406 -199 -649q-156 -197 -389 -197q-166 0 -249 66t-83 143q0 41 28 68
t56 27q28 -1 37 -11q10 -10 18 -41q57 -211 197 -211q294 0 383 650l-4 2q-74 -74 -147 -111t-169 -37z" />
    <glyph glyph-name="zero.taboldstyle" horiz-adv-x="966" 
d="M594 944q-80 0 -148 -72q-114 -120 -162 -387q-20 -104 -20 -220q0 -115 36 -183t126 -68t157 69q112 115 159 379q19 105 20 193q0 169 -44 229t-124 60zM606 981q344 0 344 -373q0 -131 -49 -272t-141 -227q-146 -131 -332 -131t-268 88q-82 90 -82 286q0 130 54 272
t151 228q147 129 323 129z" />
    <glyph glyph-name="one.taboldstyle" horiz-adv-x="966" 
d="M348 918l361 63l6 -6l-199 -869q-12 -55 43 -59l146 -14l-9 -33h-557l8 33l132 14q53 6 63 59l174 709q10 57 -27 62l-145 12z" />
    <glyph glyph-name="two.taboldstyle" horiz-adv-x="966" 
d="M674 718q0 222 -146 222q-80 0 -130 -59t-93 -201q-12 -51 -54 -51t-66 19t-23 54q0 98 107 189q108 90 284 90q309 0 309 -279q0 -128 -84 -206t-291 -154q-89 -33 -205 -95t-153 -110l438 2q250 0 293 15l2 -9l-92 -145h-764l-2 10q68 199 397 361q143 73 208 157
t65 190z" />
    <glyph glyph-name="three.taboldstyle" horiz-adv-x="966" 
d="M676 739q0 205 -144 205q-137 0 -213 -217q-16 -47 -49 -47q-69 0 -69 65q0 84 101 160q100 76 240 76t226 -63q86 -62 86 -194t-88 -208t-221 -96v-8q264 -57 264 -262q0 -186 -124 -284t-305 -99t-271 69t-91 166q0 34 24 58t52 24t38 -11q9 -11 15 -40
q63 -229 234 -230q227 0 227 349q0 92 -43 164t-139 71l-119 -12q-41 0 -41 33q0 49 47 49l127 -17q116 0 176 81t60 218z" />
    <glyph glyph-name="four.taboldstyle" horiz-adv-x="966" 
d="M115 207h409l144 618h-4q-399 -421 -549 -618zM510 139h-485l-15 35q322 375 727 784h113l-158 -751h185l-17 -68h-182l-78 -360h-170z" />
    <glyph glyph-name="five.taboldstyle" horiz-adv-x="966" 
d="M383 809q-31 0 -41 -7t-18 -30l-121 -381l4 -2q125 98 282 98q311 0 312 -299q0 -186 -130 -304t-337 -117q-158 1 -234 65t-75 154q-1 30 23 54t50 24t34 -13q8 -12 18 -43q30 -113 78 -159t130 -46q109 -1 179 97t69 276q0 112 -55 178t-152 66q-141 0 -237 -131
l-25 30l185 635l8 4h362q184 0 207 23l10 -12l-92 -160h-434z" />
    <glyph glyph-name="six.taboldstyle" horiz-adv-x="966" 
d="M561 672q-133 0 -210 -90t-77 -271q0 -297 201 -297q109 0 188 117t78 301q0 108 -49 174t-131 66zM864 1163q-198 1 -354 -155t-207 -412l6 -2q63 68 153 111t169 43q295 0 295 -318q0 -178 -123 -316t-344 -139q-362 0 -363 418q0 307 195 557q92 119 238 192t323 72
q119 1 166 -34l-10 -33q-66 16 -144 16z" />
    <glyph glyph-name="seven.taboldstyle" horiz-adv-x="966" 
d="M307 -233q-84 0 -84 96q0 162 344 547q223 250 310 403h-506q-68 1 -91 -25q-24 -26 -30 -33t-26 -47t-27 -49l-37 5l100 294h723l6 -10q-57 -176 -375 -563q-96 -117 -160 -269t-69 -268q-2 -45 -19 -63t-59 -18z" />
    <glyph glyph-name="eight.taboldstyle" horiz-adv-x="966" 
d="M506 618q-116 0 -184 -93t-68 -249q0 -262 186 -262q125 0 196 112t71 267q0 225 -201 225zM625 1180q-109 0 -164 -109t-55 -225q0 -190 141 -191q92 -1 162 93t69 237q0 79 -34 137t-119 58zM612 1217q336 0 336 -275q0 -127 -82 -203t-204 -96v-6q221 -68 221 -256
t-112 -296t-316 -108q-377 0 -377 314q0 152 88 244t235 118v6q-161 55 -161 215t105 252q105 91 267 91z" />
    <glyph glyph-name="nine.taboldstyle" horiz-adv-x="966" 
d="M541 944q-96 0 -168 -108t-72 -234q0 -279 193 -278q109 0 172 68t63 235q0 317 -188 317zM418 244q-144 0 -217 82q-74 82 -74 221q0 178 121 306t303 128q350 0 350 -418q1 -203 -67 -380t-216 -297t-352 -119q-149 0 -227 57l10 26q84 -25 182 -24q180 0 308 148
q127 148 172 407l-4 4q-145 -141 -289 -141z" />
    <glyph glyph-name="a.superior" horiz-adv-x="679" 
d="M618 621q37 0 105 102l22 -14q-76 -152 -184 -152q-47 0 -62 36t5 97l33 96h-7q-44 -66 -74 -106t-91 -81q-61 -42 -125 -42q-102 0 -103 135q0 82 39 177t131 174t211 79q61 0 100 -22l5 14h110l-125 -430q-18 -63 10 -63zM518 1085q-68 1 -134 -71t-96 -162t-30 -160
t47 -69q74 0 178 153q57 88 125 291q-22 18 -90 18z" />
    <glyph glyph-name="o.superior" horiz-adv-x="612" 
d="M467 1090q-61 0 -111 -71t-74 -153t-24 -145q0 -131 96 -131q63 0 115 69q51 70 74 152t22 143q0 136 -98 136zM465 1120q217 0 217 -209q0 -150 -92 -251t-238 -101q-213 0 -213 201q0 147 91 254q92 106 235 106z" />
    <glyph glyph-name="h.superior" horiz-adv-x="698" 
d="M643 616q41 0 105 99l16 -13q-72 -145 -180 -145q-94 0 -64 105l98 329q23 72 -32 72q-63 0 -137 -83t-107 -156t-88 -253l-111 -14l199 723q14 39 -18 41l-78 8l4 27l229 28l2 -6l-147 -497h2q59 102 144 172t171 69q123 0 68 -174l-84 -266q-18 -66 8 -66z" />
    <glyph glyph-name="zero.numerator" 
d="M502 1307q112 0 174 -65t61 -171q1 -105 -21 -197q-51 -216 -181 -311q-74 -53 -167 -53t-147 42q-53 42 -68 96t-15 152t38 215q39 118 127 205q87 87 199 87zM506 1274q-58 0 -108 -69t-76 -168q-50 -195 -51 -344q-1 -150 98 -150q76 0 133 121q57 120 80 248t22 214
q0 148 -98 148z" />
    <glyph glyph-name="one.numerator" 
d="M575 524h-423l10 31l92 10q53 6 61 45l129 588q6 33 -24 35l-109 10v27l281 39l6 -9l-152 -690q-4 -24 6 -32t37 -13l95 -10z" />
    <glyph glyph-name="two.numerator" 
d="M592 1124q0 147 -113 148q-49 0 -91 -45t-66 -131q-12 -41 -44 -41t-49 17q-16 17 -16 42q0 61 83 128t205 67q122 1 175 -57t53 -153t-61 -159t-178 -114q-247 -109 -302 -195h336q39 0 61 16t77 84l24 -12l-94 -195h-510l-6 6q18 72 106 154t194 146t161 136
q55 71 55 158z" />
    <glyph glyph-name="three.numerator" 
d="M326 975q16 0 48 -8t68 -9q141 0 142 179q0 137 -98 137t-162 -144q-16 -36 -38 -36t-37 14q-13 14 -13 35q0 57 67 111t184 55q225 0 226 -187q-1 -76 -57 -124t-146 -58v-8q174 -33 174 -176q0 -102 -79 -174t-243 -72q-115 0 -178 49t-63 107q0 30 17 52t48 22t50 -48
q45 -147 155 -147q147 0 148 231q0 135 -115 135l-105 -14q-27 0 -30 31q0 47 37 47z" />
    <glyph glyph-name="four.numerator" 
d="M205 793h250l84 381h-7q-206 -203 -327 -381zM442 745h-315l-14 21q100 143 477 530h90l-107 -503h132l-17 -48h-127l-29 -141q-8 -41 33 -45l78 -8l-6 -27h-358l6 27l75 8q43 4 52 45z" />
    <glyph glyph-name="five.numerator" 
d="M358 1182q-18 0 -26 -10t-17 -31l-77 -205l4 -2q119 70 217 70q221 0 221 -216q0 -110 -84 -194t-252 -84q-115 0 -173 46t-58 101q0 29 18 49t47 21q35 0 45 -43q33 -141 139 -141q76 0 122 62q46 63 46 153t-40 133t-105 43q-111 0 -174 -62l-23 21l125 401l9 2h411
l4 -8l-59 -106h-320z" />
    <glyph glyph-name="six.numerator" 
d="M420 940q-60 0 -104 -53t-44 -141t34 -146t102 -57t111 71q42 70 42 158t-40 128q-41 40 -101 40zM536 1309q106 0 153 -45q48 -46 48 -82t-20 -55t-48 -19t-36 21q-2 5 -12 47q-22 96 -106 96q-83 0 -145 -115t-83 -248h4q37 37 97 65t108 27q88 0 145 -51t57 -158
t-76 -195q-77 -87 -223 -87q-258 0 -258 278q0 180 89 344q44 79 122 128t184 49z" />
    <glyph glyph-name="seven.numerator" 
d="M399 571q-1 -57 -73 -61t-72 63q0 129 235 365q186 193 222 242h-363q-41 0 -60 -14t-71 -85l-24 6l79 209h523l4 -6q-35 -139 -236 -356q-76 -78 -120 -180t-44 -183z" />
    <glyph glyph-name="eight.numerator" 
d="M604 1145q0 129 -102 129q-60 0 -96 -65t-37 -136q0 -121 96 -121q63 0 101 56t38 137zM496 1309q240 0 239 -185q0 -82 -56 -128t-132 -52l-2 -6q61 -18 99 -66t38 -114q0 -248 -303 -248q-115 0 -185 48t-71 146q0 98 56 164t159 78v4q-39 10 -70 49t-30 95
q0 111 74 163t184 52zM420 918q-66 0 -113 -67t-47 -152q0 -156 113 -156q76 1 127 75t47 177q-2 49 -32 86q-29 37 -95 37z" />
    <glyph glyph-name="nine.numerator" 
d="M473 1274q-57 0 -101 -60t-44 -155q0 -160 129 -160q55 0 100 49q31 41 31 146q0 180 -115 180zM473 1309q246 0 246 -287t-162 -432q-87 -80 -201 -80t-175 46q-60 46 -58 106q0 29 19 47t49 18t40 -57t43 -92t72 -35q160 0 223 370l-6 2q-31 -33 -82 -55t-100 -22
q-84 0 -137 50q-54 50 -54 160t81 185q81 76 202 76z" />
    <glyph glyph-name="period.numerator" horiz-adv-x="239" 
d="M177 676q81 0 81 -84q0 -38 -22 -66q-22 -26 -64 -26q-40 0 -62 22t-22 60t24 66t65 28z" />
    <glyph glyph-name="comma.numerator" horiz-adv-x="239" 
d="M131 602q0 37 -14 74q18 14 58 30t63 11q60 -70 -23 -193q-47 -70 -83 -102t-97 -86l-19 14q115 127 115 252z" />
    <glyph glyph-name="dollar.numerator" 
d="M543 705q-1 41 -19 71t-34 40q-16 12 -52 32l-69 -289q174 -4 174 146zM670 741q0 -91 -87 -156t-221 -61l-28 -116h-43l26 118q-88 8 -148 56t-60 106q0 31 21 49q22 18 48 19q31 0 41 -47q31 -127 109 -148l71 301q-104 43 -144 86t-40 134q0 92 77 154t212 62l22 99
h43l-24 -103q55 -4 114 -42t59 -96t-61 -62q-31 0 -36 36q-20 102 -86 125l-64 -280q121 -53 160 -98t39 -136zM334 1122q0 -88 98 -129l62 271q-66 4 -113 -36t-47 -106z" />
    <glyph glyph-name="cent.numerator" 
d="M182 854q0 160 98 257t255 99l24 88h35l-23 -90q70 -4 118 -41t46 -88q0 -27 -16 -43t-42 -16t-38 47q-25 98 -74 109l-119 -504q137 -4 222 121l22 -17q-41 -74 -112 -116q-72 -41 -148 -39l-27 -119h-38l28 119q-211 8 -211 233zM408 680l118 500q-100 0 -155 -106
t-56 -224q1 -154 93 -170z" />
    <glyph glyph-name="hyphen.numerator" horiz-adv-x="397" 
d="M170 940h313l-22 -82h-316z" />
    <glyph glyph-name="parenleft.numerator" horiz-adv-x="413" 
d="M268 688q0 -122 38 -196t77 -89l-6 -22q-102 6 -164 96q-61 90 -61 220q0 245 106 441q53 96 144 162t208 74l-4 -18q-166 -66 -252 -244t-86 -424z" />
    <glyph glyph-name="parenright.numerator" horiz-adv-x="415" 
d="M377 1067q0 119 -38 194t-77 91l6 22q100 -4 162 -96t62 -242t-44 -287q-44 -138 -152 -249q-107 -111 -261 -121l4 22q166 63 252 241t86 425z" />
    <glyph glyph-name="zero.denominator" 
d="M420 782q112 0 174 -64q61 -66 61 -172q1 -106 -21 -197q-51 -216 -181 -310q-74 -53 -166 -53q-231 0 -232 268q0 118 39 236t127 205q87 87 199 87zM424 750q-58 0 -108 -69t-76 -168q-50 -195 -51 -344q-1 -150 98 -151q76 0 133 121t80 249t22 214q0 148 -98 148z
" />
    <glyph glyph-name="one.denominator" 
d="M494 0h-424l10 31l92 10q53 6 61 45l129 586q6 35 -24 37l-109 10v26l281 39l6 -8l-151 -690q-4 -23 5 -32t38 -13l94 -10z" />
    <glyph glyph-name="two.denominator" 
d="M510 600q0 147 -113 148q-49 0 -92 -46t-65 -131q-12 -41 -44 -41t-49 18q-16 18 -16 42q0 61 83 128q83 66 205 66t175 -57t53 -152t-61 -159t-179 -116q-245 -109 -301 -194h336q41 0 63 16t75 85l24 -12l-94 -195h-510l-6 6q18 72 106 154t194 146t161 135t55 159z
" />
    <glyph glyph-name="three.denominator" 
d="M207 412q0 38 37 39q16 -1 48 -9t68 -8q76 0 109 52t33 126q0 138 -98 138t-162 -144q-16 -37 -38 -37q-22 1 -36 15t-14 34q0 57 67 112q68 54 185 54q225 0 225 -186q-1 -76 -57 -124t-148 -58v-8q174 -33 174 -177q0 -102 -79 -174t-242 -71q-115 0 -179 49
q-63 49 -63 106q0 29 17 52t48 23t50 -48q24 -72 58 -110t97 -38q147 0 148 232q0 135 -115 135l-104 -14q-29 1 -29 39z" />
    <glyph glyph-name="four.denominator" 
d="M123 268h250l84 381h-6q-207 -203 -328 -381zM360 221h-315l-14 21q100 143 477 530h90l-106 -504h131l-17 -47h-127l-28 -141q-8 -41 32 -45l78 -8l-6 -27h-358l6 27l76 8q43 4 51 45z" />
    <glyph glyph-name="five.denominator" 
d="M276 657q-18 0 -26 -9t-17 -32l-77 -204l4 -2q119 70 217 69q221 0 221 -215q0 -110 -84 -194t-252 -84q-115 0 -173 46t-58 103q0 29 18 48t50 19t42 -40q33 -143 140 -144q75 0 121 62t46 154q0 90 -39 133q-40 43 -106 43q-111 0 -174 -62l-23 21l125 401l9 2h411
l4 -8l-59 -107h-320z" />
    <glyph glyph-name="six.denominator" 
d="M338 416q-60 0 -104 -54t-44 -141t34 -145t104 -58q68 0 110 71t41 159q0 88 -40 128q-41 40 -101 40zM454 784q106 0 154 -45t47 -81q0 -36 -20 -54q-21 -18 -47 -18t-32 13t-17 55q-23 94 -107 94t-145 -115t-82 -248h4q37 37 97 65t108 27q88 0 145 -51t57 -159
q0 -109 -76 -195t-223 -86q-258 0 -258 280q0 177 89 341q44 79 122 128t184 49z" />
    <glyph glyph-name="seven.denominator" 
d="M317 47q-1 -57 -73 -61t-72 63q0 129 236 365q190 197 221 241h-363q-41 0 -60 -14t-71 -84l-24 6l79 209h523l4 -6q-35 -139 -236 -356q-76 -78 -120 -180t-44 -183z" />
    <glyph glyph-name="eight.denominator" 
d="M522 621q0 129 -102 129q-60 0 -96 -65t-37 -136q0 -121 96 -121q63 0 101 56t38 137zM414 784q240 0 239 -184q0 -82 -56 -128t-132 -52l-2 -6q61 -18 99 -66t38 -115q0 -248 -303 -247q-115 0 -187 48t-71 145q0 97 57 164t160 79v4q-39 10 -70 49t-30 94q0 111 73 163
q74 52 185 52zM336 393q-66 -1 -113 -67t-47 -151t32 -121t83 -36q76 0 127 75t47 177q-2 49 -32 86q-31 37 -97 37z" />
    <glyph glyph-name="nine.denominator" 
d="M391 750q-57 0 -101 -60t-44 -155q0 -160 129 -160q55 0 100 49q31 41 31 145q0 181 -115 181zM481 391q-73 -78 -199 -78q-66 1 -120 51q-53 50 -53 160t80 185q81 75 202 75q246 0 246 -286t-162 -432q-87 -80 -201 -80t-175 46q-60 46 -58 105q0 29 19 47t49 19
q31 1 41 -57t43 -93t71 -35q160 0 223 373h-6z" />
    <glyph glyph-name="period.denominator" horiz-adv-x="239" 
d="M6 56q0 40 24 67t65 27t61 -23t20 -55q0 -98 -88 -99q-38 0 -60 22q-22 21 -22 61z" />
    <glyph glyph-name="comma.denominator" horiz-adv-x="239" 
d="M49 78q0 37 -14 74q18 14 58 29t63 12q60 -70 -23 -193q-47 -70 -83 -102t-97 -86l-19 14q115 127 115 252z" />
    <glyph glyph-name="dollar.denominator" 
d="M461 180q0 41 -18 71q-17 29 -35 43t-54 30l-69 -289q176 -4 176 145zM588 216q0 -91 -87 -156t-222 -60l-29 -117h-43l26 117q-88 8 -148 56t-60 106q0 33 21 50q22 17 50 17t39 -45q31 -129 109 -149l71 303q-104 43 -144 86t-40 134q0 92 78 154t213 62l22 98h43
l-24 -102q55 -4 115 -42t57 -95q0 -61 -60 -62q-31 0 -36 35q-20 102 -86 125l-64 -280q121 -53 160 -99t39 -136zM250 598q0 -88 100 -129l62 270q-68 4 -115 -36t-47 -105z" />
    <glyph glyph-name="cent.denominator" 
d="M100 330q0 162 98 259t255 97l24 90h35l-23 -92q70 -4 118 -40t46 -87q0 -27 -16 -43t-42 -16t-38 45q-25 100 -74 110l-118 -506q137 -4 221 121l22 -16q-40 -74 -112 -116t-148 -40l-26 -119h-39l28 119q-211 8 -211 234zM326 156l118 501q-100 0 -155 -105t-56 -224
q1 -156 93 -172z" />
    <glyph glyph-name="hyphen.denominator" horiz-adv-x="397" 
d="M88 416h313l-22 -82h-316z" />
    <glyph glyph-name="parenleft.denominator" horiz-adv-x="413" 
d="M186 164q0 -121 38 -196t77 -89l-6 -22q-102 6 -164 97q-61 91 -61 221q0 129 26 235q63 249 225 366q90 66 207 74l-4 -19q-166 -65 -252 -243t-86 -424z" />
    <glyph glyph-name="parenright.denominator" horiz-adv-x="415" 
d="M293 543q0 121 -38 195t-77 89l6 21q100 -4 162 -96t62 -221q1 -239 -106 -440q-52 -97 -143 -163t-208 -73l4 22q166 63 252 241t86 425z" />
    <glyph glyph-name="at.cap" horiz-adv-x="1638" 
d="M778 317q88 0 199 160q111 161 156 315t55 207q-39 33 -101 33q-109 0 -201 -108t-137 -244q-47 -135 -47 -249t76 -114zM1249 295q135 0 240 149q104 150 104 408t-159 402q-160 144 -402 145q-336 0 -527 -245t-192 -619q0 -246 122 -431q65 -96 186 -152t291 -56
t287 55q116 55 239 190l16 -24q-217 -297 -608 -297q-285 0 -474 156q-98 82 -152 222t-54 328q0 414 252 667t618 253q305 0 468 -156t163 -422t-142 -451t-360 -186q-98 0 -122 67t30 251l-6 2q-190 -319 -397 -320q-125 0 -125 203q0 155 79 315q95 197 250 276
q90 46 184 46t148 -31l6 21h136q-82 -295 -154 -600q-39 -166 55 -166z" />
    <glyph glyph-name="emdash.cap" horiz-adv-x="1697" 
d="M162 725h1544l-20 -96h-1545z" />
    <glyph glyph-name="endash.cap" horiz-adv-x="1048" 
d="M162 725h895l-23 -96h-893z" />
    <glyph glyph-name="exclamdown.cap" horiz-adv-x="468" 
d="M336 944h39l-82 -817q-6 -70 -37 -107q-31 -36 -109 -36t-93 42t12 103zM434 1364q90 0 90 -102q0 -51 -32 -86t-80 -35q-92 0 -93 106q0 51 31 84t84 33z" />
    <glyph glyph-name="guillemotleft.cap" horiz-adv-x="839" 
d="M883 991l18 -20l-268 -336q-14 -20 -6 -41l123 -336l-27 -22l-254 362q-8 18 8 35zM553 991l18 -20l-264 -336q-16 -20 -8 -41l123 -336l-27 -22l-252 362q-12 16 7 35z" />
    <glyph glyph-name="guillemotright.cap" horiz-adv-x="839" 
d="M418 236l-19 20l265 334q18 23 10 41l-125 338l26 22l252 -364q12 -16 -6 -35zM88 236l-18 20l268 334q16 23 8 41l-125 338l27 22l254 -364q8 -14 -8 -35z" />
    <glyph glyph-name="guilsinglleft.cap" horiz-adv-x="512" 
d="M555 991l18 -20l-266 -336q-16 -20 -8 -41l123 -336l-27 -22l-252 362q-12 16 7 35z" />
    <glyph glyph-name="guilsinglright.cap" horiz-adv-x="512" 
d="M88 236l-18 20l268 334q16 23 8 41l-125 338l27 22l254 -364q8 -14 -8 -35z" />
    <glyph glyph-name="hyphen.cap" horiz-adv-x="585" 
d="M168 723h414l-21 -96h-416z" />
    <glyph glyph-name="questiondown.cap" horiz-adv-x="813" 
d="M405 -18q-143 0 -221 66t-78 178q0 111 72 189q41 45 69 67t130 96t141 122q39 46 39 88q1 42 -23 64q-44 43 -147 10l-6 23q61 74 172 73q74 0 117 -43t43 -120q0 -129 -185 -260q-260 -179 -260 -347t125 -168q139 0 197 228q10 41 46 41t60 -23t25 -61q0 -72 -86 -148
q-87 -75 -230 -75zM647 1366q90 0 90 -102q-1 -51 -31 -86t-81 -35q-90 0 -90 106q0 51 29 84q30 33 83 33z" />
    <glyph glyph-name="braceleft.cap" horiz-adv-x="659" 
d="M428 -283q-102 0 -159 41q-120 88 -21 412l69 217q49 147 12 214q-38 67 -173 67l10 43q250 -6 280 278l23 221q8 68 17 119t35 111t63 100q38 39 102 66t148 26h43l-9 -39q-133 -6 -185 -85t-67 -218l-18 -180q-20 -182 -51 -250q-66 -135 -258 -164l-2 -14
q126 -21 162 -82q37 -62 26 -122q-19 -100 -37 -151q-18 -50 -20 -59l-56 -178q-43 -123 -33 -220q5 -50 43 -80t105 -34l-8 -39h-41z" />
    <glyph glyph-name="braceright.cap" horiz-adv-x="659" 
d="M428 1630q326 0 180 -450l-61 -191q-49 -147 -12 -213t174 -65l-11 -43q-135 2 -198 -70t-80 -211l-33 -248q-10 -74 -19 -120t-35 -109t-62 -101q-37 -38 -101 -65t-147 -27h-43l10 39q142 8 191 98q42 74 59 205l26 209q23 176 45 230q63 152 264 184l5 14
q-100 15 -155 67q-31 26 -38 118q-4 50 59 229l48 150q109 322 -115 333l8 37h41z" />
    <glyph glyph-name="bracketleft.cap" horiz-adv-x="604" 
d="M588 1473l-338 -1594q-14 -68 10 -84t152 -22l-6 -41h-302l400 1888h301l-8 -39q-131 -8 -163 -24t-46 -84z" />
    <glyph glyph-name="bracketright.cap" horiz-adv-x="604" 
d="M182 -125l338 1595q14 68 -10 84q-25 16 -152 23l9 43h299l-400 -1888h-301l8 37q131 8 163 24t46 82z" />
    <glyph glyph-name="parenleft.cap" horiz-adv-x="702" 
d="M344 359q0 -258 66 -421t157 -186l-12 -39q-121 11 -203 107q-149 175 -149 526q0 217 51 436q115 494 384 714q148 122 325 132l-7 -37q-186 -51 -329 -249t-213 -462t-70 -521z" />
    <glyph glyph-name="parenright.cap" horiz-adv-x="702" 
d="M616 984q0 257 -65 420q-66 163 -158 187l10 37q177 -14 265 -195t88 -418q0 -477 -194 -861q-93 -186 -240 -308t-326 -133l8 39q186 51 330 248q143 197 213 462q69 265 69 522z" />
    <glyph glyph-name="periodcentered.cap" horiz-adv-x="368" 
d="M262 553q-88 0 -88 102q0 51 30 87t81 36q92 0 92 -108q0 -49 -32 -83t-83 -34z" />
    <glyph glyph-name="breve.cap" horiz-adv-x="782" 
d="M607 1466q-131 0 -159 56t-4 161h29q-17 -118 160 -116q102 -1 143 27t62 89h30q-23 -105 -77 -161t-184 -56z" />
    <glyph glyph-name="cedilla.cap" horiz-adv-x="770" 
d="M506 -256q0 -76 -57 -115t-139 -39t-122 29l11 37q25 -10 61 -10q113 0 113 88q0 46 -34 72t-63 26l-6 14l142 160h51l-96 -106q53 -8 96 -44t43 -112z" />
    <glyph glyph-name="circumflex.cap" horiz-adv-x="782" 
d="M862 1466l-18 -22l-187 115q-20 20 -49 2l-225 -117l-12 22l268 230h37z" />
    <glyph glyph-name="dotaccent.cap" horiz-adv-x="782" 
d="M649 1663q41 0 64 -26q23 -27 17 -67t-35 -66q-31 -26 -71 -26t-63 26t-18 67t35 67t71 25z" />
    <glyph glyph-name="ogonek.cap" horiz-adv-x="770" 
d="M346 -274q0 -98 92 -99q61 0 133 43l17 -26q-106 -131 -234 -131q-86 0 -124 43t-37 104q0 98 96 200t215 156h37q-195 -145 -195 -290z" />
    <glyph glyph-name="ring.cap" horiz-adv-x="782" 
d="M657 1712q74 0 117 -39t28 -125q-16 -86 -72 -125t-131 -39t-118 39t-26 125q30 164 202 164zM649 1681q-77 0 -103 -133t56 -133t107 133q24 133 -60 133z" />
    <glyph glyph-name="tilde.cap" horiz-adv-x="782" 
d="M762 1483q-27 0 -124 32q-97 31 -130 31t-53 -16t-43 -60l-25 13q41 160 158 159q41 0 127 -34q96 -29 112 -29q72 0 103 76l20 -10q-31 -162 -145 -162z" />
    <glyph glyph-name="emdash.alt" horiz-adv-x="1378" 
d="M121 530h1225l-23 -96h-1223z" />
    <glyph glyph-name="arrowleft.alt1" horiz-adv-x="1368" 
d="M1317 438l-899 21q68 -61 112 -167t48 -204l-3 -2q-211 281 -524 395v4q326 121 524 396l3 -2q0 -174 -160 -373l899 20v-88z" />
    <glyph glyph-name="arrowright.alt1" horiz-adv-x="1368" 
d="M51 528l899 -20q-68 62 -112 168t-47 203l2 2q211 -281 524 -396v-4q-326 -121 -524 -395l-2 2q0 174 159 373l-899 -21v88z" />
    <glyph glyph-name="arrowleft.alt2" horiz-adv-x="870" 
d="M819 432h-356v-328l-2 -2l-410 367v2l410 371l2 -2v-328h356v-80z" />
    <glyph glyph-name="arrowright.alt2" horiz-adv-x="870" 
d="M51 512h359v330l409 -367v-2l-409 -371v330h-359v80z" />
    <glyph glyph-name="slash.frac" horiz-adv-x="192" 
d="M-342 -41l-37 35l1043 1349l34 -30z" />
    <glyph glyph-name="space.frac" horiz-adv-x="202" 
 />
    <glyph glyph-name="uni00A0.frac" horiz-adv-x="202" 
 />
    <glyph glyph-name="Euro.taboldstyle" horiz-adv-x="966" 
d="M512 -23q-234 0 -298 150q-58 130 -50 322h-121l18 49h107q10 86 22 133h-77l14 47h76q145 449 514 448q139 0 198 -57t60 -127q0 -31 -24 -51t-52 -21q-33 0 -39 37q-31 182 -149 183q-88 0 -159 -69q-70 -69 -108 -154t-63 -189h448l-20 -47h-442q-3 -17 -11 -69
t-10 -64h387l-16 -49h-373q-23 -399 213 -400q199 0 313 215l25 -20q-49 -111 -153 -189t-230 -78z" />
    <glyph glyph-name="cent.taboldstyle" horiz-adv-x="966" 
d="M905 762q1 -25 -21 -43q-22 -19 -48 -19t-34 10q-9 10 -18 35q-35 135 -110 140l-193 -760q213 -10 346 184l23 -24q-72 -119 -177 -175t-208 -57l-45 -182h-47l45 182q-123 6 -212 83t-89 245q0 215 145 377q146 162 377 166l27 120h45l-29 -120q98 -4 160 -47t63 -115z
M291 376q0 -202 147 -243l189 752q-141 2 -239 -152q-98 -155 -97 -357z" />
    <glyph glyph-name="colonmonetary.taboldstyle" horiz-adv-x="966" 
d="M487 66l279 991q-47 20 -86 20l-287 -979q53 -28 94 -32zM350 133l277 942q-145 -27 -247 -213t-104 -410q0 -224 74 -319zM987 953q1 -38 -21 -58q-22 -21 -46 -21t-35 27q-33 98 -74 133l-274 -973q207 0 315 218l29 -23q-51 -116 -155 -184t-212 -70l-51 -168h-51
l53 170q-80 4 -100 10l-58 -180h-51l63 197q-90 29 -141 97t-64 140q-60 324 114 601q62 99 170 165t241 74l41 135h51l-41 -133q47 0 94 -6l43 139h52l-45 -149q68 -14 110 -58t43 -83z" />
    <glyph glyph-name="dollar.taboldstyle" horiz-adv-x="966" 
d="M508 459l-92 -418q125 -6 204 46t78 163q0 76 -48 121t-142 88zM352 831q0 -127 162 -186l86 389q-102 4 -175 -49t-73 -154zM922 881q0 -29 -26 -52t-50 -22q-41 0 -55 49q-23 86 -58 123t-84 49l-94 -403q177 -66 237 -128t60 -173q0 -154 -125 -242t-326 -82l-39 -172
h-53l41 172q-139 16 -221 80t-82 139q0 41 24 65t52 23q37 0 51 -53q28 -108 83 -149t110 -58l102 432q-162 61 -213 123t-51 177q0 114 109 205q110 91 298 89l35 139h49l-32 -141q92 -4 175 -54t83 -136z" />
    <glyph glyph-name="florin.taboldstyle" horiz-adv-x="966" 
d="M117 -287q-82 0 -128 35t-46 74q1 40 25 62t52 22t46 -39q57 -117 106 -117q63 0 100 160q59 254 142 711h-181l11 49h178l33 135q94 432 385 432q90 0 132 -35t42 -69q0 -33 -26 -57t-56 -24t-43 33q-25 66 -45 90q-20 23 -56 23t-67 -58t-64 -218l-53 -252h240l-13 -49
h-235l-94 -453q-94 -455 -385 -455z" />
    <glyph glyph-name="numbersign.taboldstyle" horiz-adv-x="966" 
d="M905 639h-176l-76 -223h176l-28 -99h-178l-123 -368h-58l125 368h-243l-123 -368h-60l125 368h-178l31 99h180l74 223h-180l30 98h180l113 334h55l-112 -334h246l110 334h55l-110 -334h176zM672 639h-242l-76 -223h246z" />
    <glyph glyph-name="sterling.taboldstyle" horiz-adv-x="966" 
d="M254 578v81q0 177 72 310q84 159 324 159q128 0 190 -58t63 -130q-1 -37 -23 -55q-22 -19 -51 -19t-39 7t-23 62q-14 55 -36 91q-37 59 -117 59q-186 0 -174 -366v-141h283l-12 -54h-271q0 -116 -56 -228t-171 -159v-8h463q43 0 73 25t109 137l33 -19l-129 -272h-756
l-6 12l45 58q111 40 154 104t52 156t5 194h-160l10 54h148z" />
    <glyph glyph-name="yen.taboldstyle" horiz-adv-x="966" 
d="M649 0h-516l10 39q127 6 155 19t40 75l45 203h-238l11 51h237l29 143h-234l9 50h227q-57 176 -139 421q-18 57 -70 64l-47 6l8 39h404l-9 -39l-88 -8q-43 -2 -29 -44q77 -240 121 -409h3q70 96 156 228t118 175q31 44 -10 48l-99 10l9 39h333l-8 -39l-55 -8
q-62 -9 -114 -69t-302 -414h234l-11 -50h-243l-31 -143h244l-11 -51h-243l-41 -203q-14 -61 8 -75q23 -13 145 -19z" />
    </font>
</defs>
</svg>
