<?xml version="1.0" encoding="utf-8"?>
<!-- Generator: Adobe Illustrator 17.1.0, SVG Export Plug-In . SVG Version: 6.00 Build 0)  -->
<!DOCTYPE svg PUBLIC "-//W3C//DTD SVG 1.1//EN" "http://www.w3.org/Graphics/SVG/1.1/DTD/svg11.dtd">
<svg version="1.1" id="Layer_1" xmlns="http://www.w3.org/2000/svg" xmlns:xlink="http://www.w3.org/1999/xlink" x="0px" y="0px"
	 viewBox="0 0 1224 792" enable-background="new 0 0 1224 792" xml:space="preserve">
<path fill="#020202" d="M556.5,489.2c4.3-3.7-1.9-6.4-1.2-10.2c0.2-1.3-3.7,0.1-5.5,0.8c-3,1.2-5.1,1.7-7.6-1.6
	c-1.9-2.5-6.2-3-8.7-1.3c-4.2,2.8-6,0.3-8.3-2.2c-1.1-1.2-1.7-3-4-2.9c-0.3,0.1-1.1,0.4-1.1,0.6c0.1,3.8-9.3,4.2-3.6,10
	c0.1,0.1-0.3,0.5-0.5,0.8c-2.8,4.4,0.2,4.6,3.4,4.7c4.5,0.3,9.4-1.6,13.4,2.5c0.8,0.9,3.7,1,4.7,0.3c5.4-4,7.9,0.2,11,3.3
	c1.1,1,2.4,1.8,3.6,2.6c0.9,0.6,1.9,1.5,3.1,0.4c1-0.9,1.8-1.6,1-3.3C555.8,492.5,554.9,490.7,556.5,489.2z M519.9,480.3
	c-1.2-1.9,2.1-1,2-2.6c3.1,0.5,4.2,3.2,6.4,5.5C523.9,485.2,521.7,483,519.9,480.3z M540.8,483.5c-0.3,2.4-1.9,3.8-4.4,3.6
	c-2.6,0.2-4.3-1.1-4.2-3.3c0.1-3.6,3.6-2.8,5.7-3.3C539.7,479.9,541,481.6,540.8,483.5z M551.7,492c-3.2-1.2-5.9-3.8-5.2-6.3
	c0.5-2,4.8-4.6,5.8,0.6C552.5,487.4,552.2,489.9,551.7,492z"/>
<path fill="#020202" d="M712.5,501.9c-0.8-1-2.1-1.8-1.7-3.4c1.2-5.2-5.9-4.8-6.2-9.2c-0.1-0.8-1.7,0.2-2.3,0.9
	c-0.9,1.2-1.7,2.4-2.5,3.7c-1.5,2.4-2.2,5.4-6.5,3.8c-1.9-0.7-4.3,0.3-5.9,3.1c-1.9,3.4-3.8,9-9.2,6.1c-1.3,0-1.8-0.1-2.3,0
	c-2.6,0.5-8-1-3.5,4.8c0.2,0.2,0.3,0.8,0.2,0.9c-5.5,6,4.2,7.1,3.8,11.7c-0.1,0.9,1.9,0.5,2.7-0.5c1.7-2.2,3.4-4.5,5-6.8
	c0.8-1.1,1.2-1.9,3-1.2c5.8,2.2,8.8,1.4,11.4-3.9c1.8-3.7,3.7-4.9,7.5-3.3c0.7,0.3,1.6,0.3,2.5,0.3c1.7-0.1,3.7,0.6,4.8-1.5
	C714.5,505.3,713.8,503.6,712.5,501.9z M682.9,512.1c-0.3,1.8-1.4,4.4-3.7,4.6c-0.8,0.1-3.2-1.2-2.3-3.3c0.1-1.7-0.4-3.9,2.3-3.3
	C680.7,510.4,683.3,510.4,682.9,512.1z M690.9,513.1c-3.1,0.4-3.3-2.7-4.1-4.8c-0.6-1.5,4.9-7.4,6.6-7.2c3.9,0.4,3.2,4.1,3.3,6.2
	C696.8,510.2,695.1,512.9,690.9,513.1z M700.2,503.1c-2.1-1.9,0.9-4.6,2.2-6.8c3.7,1.5,4.1,5.9,7.7,8.1
	C706.1,505.8,702.4,505,700.2,503.1z"/>
<path fill="#010101" d="M683,455.7c-1.8-6.9,1.1-13.7,1.1-20.6c0-4.3-2.6-8-2.6-11.8c-0.1-12.1-1.7-23.9-4-35.6
	c-0.2-1.2-0.5-2.1,0.4-3.2c1.7-2,1.1-4.3,0.6-6.6c-1.7-8.1-8.7-11.1-14.6-15.1c-1.5-1.1-3.5-2.2-5.5-1.8c-6.9,1.3-13.7,0-20.5-1.1
	c-7-1.1-13.6-2.4-20.8,0.5c-2.3,0.9-6.6-3-10-4.8c-0.2-0.1-0.1-0.6-0.2-0.9c-1.6-4.9-2.7-9.8-1.1-15.1c1.2-4.2-0.6-8.1-1.9-12.3
	c-1.4-4.6-0.9-9.9-2.8-14.8c-2.2-5.4-2.8-11.5-5.1-17c-1.2-3-2.8-6.3-5.7-7.1c-3.4-0.9-5-3.5-7.6-5.1c-7.1-4.4-10.7-12.9-19.6-15.5
	c-4.3-1.2-5.6,0.5-5.9,3.3c-0.5,4-1.7,5-5.7,4.1c-5.2-1.2-7.6,2.2-5.7,7.2c1.7,4.5,3.5,8.8,5.9,13c1.7,3,1.7,4.6-2.5,5.8
	c-8.3,2.4-16,6.6-24.4,8.7c-3.1,0.8-5.1,3.2-5.8,6.3c-2.4,10.5,0.1,20.1,4.9,29.4c1,2,2.8,3.1,4.7,3.2c4.1,0.3,8.4,2.3,12.2,1.5
	c7.4-1.5,6.7,3,6.1,7c-1.6,10.8,1.4,21.8-0.9,32.6c-0.2,1,0,2.1,1,2.6c2.2,1.2,2.1,3.3,1.9,5.2c-0.6,7-1.6,14.1,1.4,20.9
	c3,6.8,1.8,14,2.4,21c1.1,12.5,5.6,24.5,4.4,37.2c0,0.3,0.2,0.7,0.4,0.9c2.9,2.8,2.6,6.4,2.5,9.8c-0.1,4.9,2.6,7.9,7,8.1
	c6.1,0.2,11.1,2.2,16.3,5.4c6.7,4.1,16.3-1,17.9-8.6c0.5-2.3,0.9-4.6,3.1-6.4c2.1-1.7,2.8-4.9,2.4-7.3c-1.7-9.5,1.1-18.8,0.5-28.2
	c-0.2-2.5-0.2-5.8,1.6-7.1c2.4-1.8,2-3.7,2.6-5.9c0.7-2.7,0.5-6.4,3.7-7.6c5.9-2.2,12.4-2,18.1-0.5c3.2,0.8,1.8,6.5,2.1,10
	c0,0.2,0,0.3,0,0.5c3.1,12.5,3.9,25.4,4.9,38.2c0.8,10.6,6.2,14.4,16.5,10.7c1.7,7.3,3.2,8.6,11.1,9.8c5.3,0.8,8.8-1.6,11.5-6
	c4.4-7.1-0.1-15.6,4-23.1C685.2,465.8,684.2,460.4,683,455.7z M593.1,304.6c-0.5,2.3-0.8,4.4-3.4,4.4c-3.6,0.1-1.7-3.2-2.5-4.8
	c-0.9-1.8,0.4-3,2.4-3.3C592.8,300.6,591.8,303.6,593.1,304.6z M585,316c0.8-2.8,2.5-3.7,5.5-2.6c-9.2,18.1-21.1,33.8-39.2,44
	c5.8-7.7,13.2-13.8,19.9-20.5C577.1,330.9,582.6,324.3,585,316z M583.9,301.7c0,1-0.7,1.5-1.6,0.9c-4.3-2.6-9.6-3.2-14.1-6.9
	c2.4-0.8,14.9,2.2,16,3.4C585.2,300.2,583.9,300.8,583.9,301.7z M569.2,275.1c6.4,6.9,12.9,13.8,21.1,18.8c0.9,0.6,1.9,1.4,2.1,2.8
	c-6.9-0.3-13.2-2.5-18.8-6.1c-2.2-1.4-3.2-4.8-4.9-7.2c-2.5-3.6-5.1-7.2-7.8-11.1C564.6,271.5,567.1,272.9,569.2,275.1z
	 M551.2,287.5c-1.1-2.6-1.9-5.2-2.9-8.2c2.6-0.6,4.6-0.6,6.4,1.1c1.1,1,2.1,2.2,3.5,0c0.9-1.4,2.4-0.7,3.4,0.3
	c0.9,0.9,1.8,1.9,2.6,3c1.6,2.2,5.2,5.5,4.2,6.6c-2.7,3.1-5.7,6.5-10.1,7.6c-1.8,0.5-2.4-1.5-3-2.6
	C553.7,292.9,552.4,290.2,551.2,287.5z M522,325.2c-0.5-2.7,0.4-5.8,1.1-8.8c0.8-3.3,4.9-4.5,6.7-2c4.5,6.1,6.8,13.3,10,20.1
	c0.6,1.2-0.8,1.6-1.7,1.9c-1.1,0.3-2.1-0.4-3.3-0.1C523.4,338.5,522,337.2,522,325.2z M543.6,346c-0.7,0.9-1.6,1-2.6,0.6
	c-3.5-0.6-7.1-1.2-10.6-1.8c-0.9-0.2-2-0.6-2.2-1.7c-0.2-1.4,1.2-1.4,2-1.7c6.3-2.4,11.1-1.5,12.9,2.4
	C543.4,344.5,544.2,345.2,543.6,346z M548.5,345.7c-2.8-1.8-3.8-4.6-4.6-7.4c-2.5-8.2-6.3-15.8-10-23.5c-1-2-0.8-3.2,0.9-4
	c2.6-1.3,1.9,1.4,2.4,2.4c3.9,8.8,8,17.5,10.9,26.8C548.5,341.7,549.5,343.3,548.5,345.7z M544.4,320.8c-0.6-1.5-1.3-3-1.9-4.5
	c-3-7.4-2.7-8.3,5-11c4.6-1.7,9.4-2.7,14-4.3c2-0.7,6.4-2.4,9.4,0.8c1.1,1.2,3.2,1.6,4.9,2.3c9.6,4.2,9.8,4.6,4.6,14.1
	c-5.3,9.7-12.2,18-21.2,24.5c-1.9,1.3-3.4,3.1-5.3,4.8C551.4,338.1,547.9,329.5,544.4,320.8z M576.2,485.7c-0.5,2.2,1.1,5.2-2.1,6.1
	c-5.4,1.6-9.9,0-10.4-4.2c-0.6-5.3-2.4-10.4-1.8-15.8c0.3-2.2,0.1-4.5-1.4-6.6c3.5-0.5,6.6,0.3,9.6-1.1c1.1-0.5,2.8-0.4,2.7,1.7
	C572.2,472.7,577.7,478.6,576.2,485.7z M601.7,481.4c-3.5,2-3.4,4.8-3.6,7.7c-0.5,6.7-7.6,11.2-13.7,8.5c-4.1-1.8-4-5.9-4.4-9.5
	c-0.5-5.5-0.9-11.1-1.3-16.7c6.3-1.4,12.8,1.8,19.3-0.3c1.3-0.4,4.6-1.4,4.9,1.5C603.1,475.5,604.5,479.7,601.7,481.4z M651.7,486
	c-4.1,1-6.5-1.1-7.6-4.4c-0.9-2.8-0.9-5.9-1.1-8.8c-0.1-1.2-0.8-3.1,0.8-3.4c1.4-0.3,3.3-1.1,4.6,0.6c1.1,1.4,2.6,2.6,4,0.7
	c1.3-1.8-1.2-2.3-1.8-3.5c-0.2-0.4-0.6-0.9-1.1-1c-7.8-1.6-8.6-7.9-9.1-14.1c-0.6-7-3-13.9-2.4-21.4c10.4,1.3,9.6,1.5,11.2,11.7
	c1.1,6.6,1.7,13.6,4.5,20c0.3,0.7,0.1,1.6,0.2,2.4c0.3,4.9-0.8,9.8,1.8,14.6C657.4,482.4,655.6,485.1,651.7,486z M642.8,420.1
	c1.6,1,4.3,0.3,4.9,2.2c0.7,2.2-1.6,1.3-2.6,1.6c-2.5,0.7-3.4-0.6-3.8-2.7C641.1,420,642.3,419.7,642.8,420.1z M676.7,489.2
	c-0.8,3.5-3.9,6.1-8.2,5.8c-4-0.3-7.3-1.2-8-6.2c-0.7-4.5,0.1-9.2-2.1-13.6c-1.1-2.2,1.1-2.1,2.6-2.1c5.6,0,11.1,0,17,0
	C677.5,478.1,677.8,483.8,676.7,489.2z M680,462.1c0,1.5,0.1,3,0,4.5c-0.2,2.3,0.3,4.3-3.9,2.8c-4.1-1.5-9.2-0.6-13.9-0.4
	c-3.1,0.1-4.6-0.4-4.2-4c0.3-2.8,0.2-5.2-2.3-8c-1.8-2-0.6-6.7-0.7-10.2c3.5-1.1,6.8-1.1,10.2,0c-0.9-1-1.5-2.6-1.7-4.6
	c0,1.5-0.6,2.6-2.1,3.2c-1.7,0.8-3.2,0.3-4.4-1.2c-0.2,0.3-0.2-1.8-0.6-0.1c-0.3,1.4-1,2-2.4,2c-2.2-4.1-0.1-8.8-2.1-13
	c-1-2.1-1.3-4.5-4.5-4.9c3.7-0.1,5-1.9,4.5-5.2c-0.1-0.6,0.1-1.6,0.4-1.8c7.2-3.4,4.2-9,3.4-14.3c-2.3,0.3-3.1,1.9-2.5,3.2
	c1.3,2.5-0.9,3.7-1.4,5.4c-0.6,2.1-2.6,1.6-4.1,1.5c-1.8-0.1-1.7-1.7-1.8-3c-0.1-1-0.1-2-0.1-3c0-1.6-0.1-3.5-2.2-2.9
	c-1.4,0.4-1.8,1.9-1.5,3.7c0.9,4.8,0.1,5.6-4.3,5c-1.3-0.2-1.1-0.5-1.2-1.7c-0.3-2.6-1.3-5.1-2.1-7.6c-0.3-0.8-0.8-2-2.1-1.5
	c-1,0.4-1.9,1.4-1.2,2.3c2.5,3.8,0.1,10.1,6.6,12.1c1.2,0.4,1.4,3.9,2.2,6.4c-7.1-1.7-13.9-1.8-20.6-2c-2.7-0.1-5.4,0.4-7.8,1.4
	c-2.4,1-4.4,2.3-3.7,5.9c0.8,4.4,0.3,4.5-3.5,6.4c-0.4-1.7-0.8-3.4-1.2-5.2c-0.3-1.2-0.9-1.7-2.1-1.5c-1.4,0.3-1.1,1.4-1,2.4
	c0.1,0.5,0.5,0.9,0.6,1.4c0.2,1.7,1.3,4.1-0.9,4.6c-2,0.4-4.1-1-4.7-3.5c-0.4-1.8-0.4-5-2.5-4.5c-3.1,0.7-1,3.5-0.7,5.4
	c0.2,0.8,0.2,1.7,0.5,2.4c0.3,0.9,0.6,1.6-0.7,1.8c-0.9,0.1-1.7-0.1-1.7-1.2c-0.1-2,0-4-0.1-6c-0.1-1.2-0.5-2.5-1.9-2.5
	c-1.4-0.1-1.1,1.5-1.4,2.3c-1.2,3-1.2,6.5-0.3,9.3c1.3,4.2,6.1,2.9,8,1.7c3.2-2,6.1-0.7,9.6-1.6c-0.8,3.4-0.5,6.5,0.2,9.4
	c1.2,4.8-4.4,8.2-2.3,13.1c0.2,0.6-1.6,0.7-2.5,0.9c-5.7,1.5-11.6,0.5-17.4,0.8c-1.9,0.1-3.9-0.8-6.1,2.1c1.7-8.1-1.3-14.5-1.5-21.4
	c-0.2-7.9-0.8-16.3-2.3-24.3c-0.2-1.2-0.8-2.4-2.2-2.2c-1.2,0.2-1.8,1.5-1.6,2.8c0.9,8.3,1.7,16.6,2.8,24.8c0.5,3.6-1.6,7.1-0.4,11
	c-2.8-0.2-5.6-1.8-8.4,0.4c-1.5,1.2-2.9-0.1-3.2-2.1c-1.8-10.9-3.1-21.8-3.4-32.9c-0.1-4.6-0.2-9.6-3-13.8c-0.3-0.5-0.7-1.4-0.5-1.8
	c2.2-5.1,0.5-10.4-0.3-15.1c-1.2-7.1,0.2-14.2-1.6-21.1c-0.8-3,0.4-6.2,0.6-9.3c0.2-4.6,4-4.1,6.3-5.9c12.1-9.8,23.8-20,31-34.3
	c0.4-0.9,0.9-1.8,1.5-2.5c3.6-4.3,6.4-8.9,5.6-14.9c2.1,6.2,4.8,12.2,4.7,18.9c0,2.5-0.4,4.9,2.4,7c1.7,1.3,1.2,4.4,0.1,6.5
	c-3.7,6.8,0.4,13,1.5,19.4c0.5,2.7,4.1,1.3,5.3,2.9c4.3,5.5,8.8,3.1,13.3,0.8c2.8-1.5,5.8-1.5,8.6-0.7c8.7,2.6,17.6,2.6,26.5,2.8
	c5.2,0.1,15.4,7,17.2,11.9c0.3,0.8,0.5,1.7,0.3,2.4c-1.3,4.7,0.2,9.7-0.4,14.1c-0.7,5.4,2.9,9.2,2.6,13.9c-0.2,4.8,1,9.7-0.9,14.3
	c-0.4,1.1-0.4,1.8,0.4,2.7c3.8,4,4.5,8.8,3.2,13.8C677.9,446.1,679.8,454.1,680,462.1z"/>
<path fill="#020202" d="M566.3,307c-7.1-0.2-12.3,4.4-12.3,10.7c0,4.9,4.8,9.2,10.3,9.3c6.3,0.1,10.5-4.2,10.7-10.9
	C575.1,310.4,572,307.1,566.3,307z M570.9,318.9c-1,3-3,4.6-6.7,3.7c2.3-2.3,5-4.2,3.3-8.1c-1.6-3.6-4.2-1.2-6.8-1.7
	c3.1-2.5,6.5-2.8,9.3-1.1C572.3,313.2,571.7,316.4,570.9,318.9z"/>
<path fill="#020202" d="M654,446.3c2-2.7,0.5-5.8,0.9-8.6c0.1-1.1-0.5-2.6,1.4-2.6c1.5,0,1.6,1.3,1.7,2.6c0,1.5,0.2,3,0.1,4.5
	c0,1.3,0,2.4,1.8,2.1c1.6-0.3,2.5-1,1.7-2.7c-1-2.1-0.6-4.2-0.6-6.4c0-1,0.8-1.5,1.6-1.6c1-0.1,1.3,0.8,1.4,1.7c0.3,2.4,1,4.9,1,7.3
	c0,3.1,1.4,4.1,4.2,3.6c2.3-0.5,4-1.1,3-4.5c-0.6-1.9-3.3-5.6-0.2-6.5c3.6-1,2.6,3.6,3.4,5.7c0.7,1.8,3.4,4.1,0.1,5.9
	c-2.9,1.6-5.5,4.9-9.4,2.3c-2-1.3-4.3-1.8-6.1-0.8c-2.5,1.3-3.6-0.3-5.1-1.3C654.6,446.7,654.3,446.5,654,446.3z"/>
<path fill="#040404" d="M604.1,370.6c1.4-1.4-1.5-4.9,1.5-5.3c3.3-0.3,1.9,3.5,2.9,5.4c0.4,0.8,0.4,2,0.4,2.9
	c-0.1,2.2,1.2,2.3,2.9,2.4c1.7,0.1,2.2-0.7,2.4-2.3c0.3-2.3-0.9-6.4,2.2-6.1c3.9,0.3,1.1,4.3,1.4,6.6c0.7,4.5-1.7,6.3-6.2,6
	c-3.4-0.2-6.7-1-10.2-0.6c-2.2,0.2-4.6-0.8-4.5-4c0-1.6-0.9-3.2-0.8-4.8c0.1-1.9-1.4-5.3,1.5-5.5c2.9-0.2,0.9,3.1,1.5,4.8
	c0.4,1.1,0.7,2.2,0.9,3.4c0.3,1.8,1.4,2.7,3.2,2.4c2-0.3,1.4-1.8,1.1-3.1C604,372.2,604.1,371.5,604.1,370.6z"/>
<path fill="#020202" d="M573.6,379c-6.4,0-9.8-3.7-9.6-10.3c0-0.7,0.1-1.4,0.8-1.6c1.1-0.3,1.9,0,2.3,1.2c0.5,1.6,1,3.1,1.6,4.6
	c0.5,1.4,1.4,2.3,3,2c2.1-0.4,1-2.1,1.2-3.2c0.1-0.3,0-0.7,0-1c0-1.4-2.2-3.5,0.6-3.9c2.5-0.3,2.4,2.1,2.4,4c0,1.6-0.1,4.1,1.9,3.9
	c2-0.2,1.8-2.5,1.2-4.4c-0.4-1.3-0.4-2.9,1.4-3.1c2-0.3,2.3,1.2,2.5,2.8C583.9,377.5,582.5,379,573.6,379z"/>
<path fill="#030303" d="M659.2,397c-1.9-0.4-4.2,0.5-6.5-0.7c-3.1-1.5-5-5.6-3.5-8.5c0.3-0.5,0.9-1.1,1.4-1.1
	c0.6-0.1,1.3,0.4,1.3,1.2c0.1,0.8,0.1,1.7,0.1,2.5c-0.1,2,1.6,2.1,2.7,2.2c2.1,0.2,1.3-1.5,1.1-2.4c-0.3-1.2-0.6-2.5,0.9-2.8
	c1.8-0.4,2.1,1,2.3,2.4c0.1,0.6,0.1,1.4,0.5,1.9c0.6,1,0.6,2.8,2.6,2.3c1.7-0.4,1.3-1.5,1.1-2.7c-0.3-1.5,0.4-2.9,1.8-3
	c1.6-0.1,1.7,1.8,2,2.9C667.7,395.5,665.6,397.1,659.2,397z"/>
<path fill="#020202" d="M665,418.5c0.7-1.8-1.5-5.8,1.7-5.9c2.5-0.1,0.8,3.9,1.2,6c0.2,1.1,0,2.3,0.2,3.4c0.3,1.2,1.1,2.1,2.5,2
	c1.7-0.2,1.5-1.7,1.3-2.7c-0.4-1.7-1.1-3.4-1.6-5.1c-0.3-1.2,0.5-2.5,1.4-2.8c1.3-0.4,2,0.7,2.2,2c0.3,2.1,0.8,4.2,1,6.3
	c0.4,3.2,1,6.4-4,6.7c-4.9,0.3-5.8-2.7-6-6.4C664.9,420.8,665,419.8,665,418.5z"/>
<path fill="#040404" d="M635,373.4c0-0.3,0-0.7,0-1c0.2-1.5-0.6-3.9,1.7-3.9c1.9,0,1.6,2.6,2,4c0.3,1-0.8,2.1,0,3.3
	c0.7,1,1.6,1.1,2.6,1c1.5-0.2,1.9-1.3,1.6-2.5c-0.4-1.4-1-2.8-1.5-4.2c-0.4-1,0.1-1.6,0.9-2c0.7-0.4,1.9-0.6,2.2,0.1
	c1.2,3.2,2.5,6.7,1.2,10.1c-0.9,2.4-3.7,2.6-6,2.6C635.9,380.9,635,379.3,635,373.4z"/>
<path fill="#050505" d="M619.7,412.1c0.7,3.9,0.1,6.1-3.2,6.5c-3,0.4-5.9-0.2-7.2-3c-1.5-3.1-2.1-6.6-3.1-9.9
	c-0.3-1,0.1-1.6,1.1-1.7c1.2-0.2,2,0.5,2.3,1.4c0.6,2,0.8,4.2,1.5,6.2c0.6,1.9,2.2,3.2,4.1,3c1.8-0.3,0.8-2.2,0.8-3.4
	c0-1.7,0.4-3.4,2.2-3.1C621.1,408.8,619.5,411.5,619.7,412.1z"/>
<path fill="#050505" d="M609.9,395.5c0.2,3,0.3,5.7-3.4,5.7c-3,0-6-0.1-5.9-4.7c0.1-2.9-0.8-5.8-1.4-8.8c-0.3-1.4,0.3-2.4,1.5-2.7
	c1.4-0.4,1.3,1.2,1.7,1.9c1.4,2.9-0.2,6.3,1.8,9.1c0.5,0.7,0.7,1.7,1.7,1.4c1-0.2,0.8-1,0.6-1.9c-0.4-1.8-1.6-4.5,1.7-4.5
	C611.3,391.2,609.3,394.3,609.9,395.5z"/>
<path fill="#0A0A0A" d="M580.6,449c2.5,0.1,2.3,1.2,2.4,2.2c0.1,3.3-0.4,6.6,1.2,9.7c0.6,1.1-0.1,2.3-1.3,2.8
	c-0.9,0.3-1.5-0.3-1.8-1.2c-1.4-4-1.1-8.2-0.8-12.3C580.2,449.6,580.7,449,580.6,449z"/>
<path fill="#040404" d="M559.9,401.6c0.9-2.1,1.1-4.5,1.4-6.9c0.1-1.1,1.3-2.5,2.8-2.1c1.4,0.4,1.1,2,0.7,3
	c-0.8,2.1-0.8,4.2-0.8,6.3c0,1.7-0.7,3-2.5,3C559.3,404.8,560.3,403,559.9,401.6z"/>
<path fill="#080808" d="M592.9,459.1c0.3,2-0.2,3.4-1.6,3.7c-1.6,0.3-2.2-1.1-2.3-2.6c-0.2-2.3-0.4-4.6-0.5-6.9c0-1,0.2-2.1,1.5-2.2
	c1.2-0.1,1.9,0.7,2,1.8C592.1,455.2,591.8,457.5,592.9,459.1z"/>
<path fill="#070707" d="M629.5,398.3c-4.6-2.2-4-6.6-5.5-9.8c-0.4-0.8,0.4-1.6,1.3-1.8c0.9-0.2,1.6,0.4,1.9,1.2
	C628.4,391.1,630.8,394,629.5,398.3z"/>
<path fill="#090909" d="M672,459.4c-0.1-0.7-0.3-1.8-0.3-2.9c0-0.9,0.6-1.5,1.6-1.5c1,0,1.5,0.4,1.6,1.4c0.2,2,0.5,3.9,0.8,5.9
	c0.2,1.5,0.7,3.4-1.4,3.6c-2.3,0.2-2.4-1.7-2.4-3.4C672,461.5,672,460.7,672,459.4z"/>
<path fill="#0C0C0C" d="M576.9,434.3c0.4-1.2-0.5-3.6,1.4-3c3.7,1,2.3,4.9,3.2,7.5c0.4,1-0.2,3.4-1.6,2.9
	C576.7,440.4,577.6,436.9,576.9,434.3z"/>
<path fill="#060606" d="M581,392.8c0,1,0.1,1.5,0,2c-0.3,1.4,2.1,3.7-0.7,4.1c-2.5,0.3-2.4-2.1-2.4-4c0-0.5-0.1-1,0-1.5
	c0.5-2-1.4-5.7,1.8-5.7C582.3,387.7,580.2,391.4,581,392.8z"/>
<path fill="#030303" d="M567.9,412.3c0.7-1.7-1.3-4.9,1.3-5c3.1-0.1,1.7,3.3,1.7,5.2c0,2.1,1.3,6-1,5.9
	C566.5,418.4,568.6,414.5,567.9,412.3z"/>
<path fill="#090909" d="M589,412.7c0-1.4,0-2.4,0-3.3c0-0.9,0.5-1.5,1.5-1.6c1,0,1.6,0.5,1.7,1.4c0.1,1-0.3,2.1,0,2.9
	c0.9,2.3,1.3,5.3-1.4,5.4C588,417.7,589.4,414.2,589,412.7z"/>
<path fill="#050505" d="M665,460.6c0,1,0.2,2,0.1,3c-0.1,1.1-0.9,2.1-2,1.5c-2.1-1-1.7-3.1-1.2-4.8c0.4-1.8-1-4.3,1.7-5.1
	c1.5-0.4,1.3,1.1,1.4,2C665,458.3,665,459.4,665,460.6z"/>
<path fill="#060606" d="M566,432c0.1,2.2-0.1,4.3-2.3,4.9c-1.8,0.5-2.1-1.2-1.9-2.6c0.4-2.2,0.3-5.2,2.9-5.6
	C566.9,428.4,565.5,430.9,566,432z"/>
</svg>
