<?xml version="1.0" encoding="UTF-8" standalone="no"?>
<svg width="200px" height="258px" viewBox="0 0 200 258" version="1.1" xmlns="http://www.w3.org/2000/svg" xmlns:xlink="http://www.w3.org/1999/xlink" xmlns:sketch="http://www.bohemiancoding.com/sketch/ns">
    <!-- Generator: Sketch 3.2.2 (9983) - http://www.bohemiancoding.com/sketch -->
    <title>pinata</title>
    <desc>Created with Sketch.</desc>
    <defs></defs>
    <g id="Page-1" stroke="none" stroke-width="1" fill="none" fill-rule="evenodd" sketch:type="MSPage">
        <g id="pinata" sketch:type="MSLayerGroup" fill="#F4F4F4">
            <path d="M42.5,222.2 C46.8,218.5 40.6,215.8 41.3,212 C41.5,210.7 37.6,212.1 35.8,212.8 C32.8,214 30.7,214.5 28.2,211.2 C26.3,208.7 22,208.2 19.5,209.9 C15.3,212.7 13.5,210.2 11.2,207.7 C10.1,206.5 9.5,204.7 7.2,204.8 C6.9,204.9 6.1,205.2 6.1,205.4 C6.2,209.2 -3.2,209.6 2.5,215.4 C2.6,215.5 2.2,215.9 2,216.2 C-0.8,220.6 2.2,220.8 5.4,220.9 C9.9,221.2 14.8,219.3 18.8,223.4 C19.6,224.3 22.5,224.4 23.5,223.7 C28.9,219.7 31.4,223.9 34.5,227 C35.6,228 36.9,228.8 38.1,229.6 C39,230.2 40,231.1 41.2,230 C42.2,229.1 43,228.4 42.2,226.7 C41.8,225.5 40.9,223.7 42.5,222.2 L42.5,222.2 Z M5.9,213.3 C4.7,211.4 8,212.3 7.9,210.7 C11,211.2 12.1,213.9 14.3,216.2 C9.9,218.2 7.7,216 5.9,213.3 L5.9,213.3 Z M26.8,216.5 C26.5,218.9 24.9,220.3 22.4,220.1 C19.8,220.3 18.1,219 18.2,216.8 C18.3,213.2 21.8,214 23.9,213.5 C25.7,212.9 27,214.6 26.8,216.5 L26.8,216.5 Z M37.7,225 C34.5,223.8 31.8,221.2 32.5,218.7 C33,216.7 37.3,214.1 38.3,219.3 C38.5,220.4 38.2,222.9 37.7,225 L37.7,225 Z" id="Shape" sketch:type="MSShapeGroup"></path>
            <path d="M198.5,234.9 C197.7,233.9 196.4,233.1 196.8,231.5 C198,226.3 190.9,226.7 190.6,222.3 C190.5,221.5 188.9,222.5 188.3,223.2 C187.4,224.4 186.6,225.6 185.8,226.9 C184.3,229.3 183.6,232.3 179.3,230.7 C177.4,230 175,231 173.4,233.8 C171.5,237.2 169.6,242.8 164.2,239.9 C162.9,239.9 162.4,239.8 161.9,239.9 C159.3,240.4 153.9,238.9 158.4,244.7 C158.6,244.9 158.7,245.5 158.6,245.6 C153.1,251.6 162.8,252.7 162.4,257.3 C162.3,258.2 164.3,257.8 165.1,256.8 C166.8,254.6 168.5,252.3 170.1,250 C170.9,248.9 171.3,248.1 173.1,248.8 C178.9,251 181.9,250.2 184.5,244.9 C186.3,241.2 188.2,240 192,241.6 C192.7,241.9 193.6,241.9 194.5,241.9 C196.2,241.8 198.2,242.5 199.3,240.4 C200.5,238.3 199.8,236.6 198.5,234.9 L198.5,234.9 Z M168.9,245.1 C168.6,246.9 167.5,249.5 165.2,249.7 C164.4,249.8 162,248.5 162.9,246.4 C163,244.7 162.5,242.5 165.2,243.1 C166.7,243.4 169.3,243.4 168.9,245.1 L168.9,245.1 Z M176.9,246.1 C173.8,246.5 173.6,243.4 172.8,241.3 C172.2,239.8 177.7,233.9 179.4,234.1 C183.3,234.5 182.6,238.2 182.7,240.3 C182.8,243.2 181.1,245.9 176.9,246.1 L176.9,246.1 Z M186.2,236.1 C184.1,234.2 187.1,231.5 188.4,229.3 C192.1,230.8 192.5,235.2 196.1,237.4 C192.1,238.8 188.4,238 186.2,236.1 L186.2,236.1 Z" id="Shape" sketch:type="MSShapeGroup"></path>
            <path d="M169,188.7 C167.2,181.8 170.1,175 170.1,168.1 C170.1,163.8 167.5,160.1 167.5,156.3 C167.4,144.2 165.8,132.4 163.5,120.7 C163.3,119.5 163,118.6 163.9,117.5 C165.6,115.5 165,113.2 164.5,110.9 C162.8,102.8 155.8,99.8 149.9,95.8 C148.4,94.7 146.4,93.6 144.4,94 C137.5,95.3 130.7,94 123.9,92.9 C116.9,91.8 110.3,90.5 103.1,93.4 C100.8,94.3 96.5,90.4 93.1,88.6 C92.9,88.5 93,88 92.9,87.7 C91.3,82.8 90.2,77.9 91.8,72.6 C93,68.4 91.2,64.5 89.9,60.3 C88.5,55.7 89,50.4 87.1,45.5 C84.9,40.1 84.3,34 82,28.5 C80.8,25.5 79.2,22.2 76.3,21.4 C72.9,20.5 71.3,17.9 68.7,16.3 C61.6,11.9 58,3.4 49.1,0.8 C44.8,-0.4 43.5,1.3 43.2,4.1 C42.7,8.1 41.5,9.1 37.5,8.2 C32.3,7 29.9,10.4 31.8,15.4 C33.5,19.9 35.3,24.2 37.7,28.4 C39.4,31.4 39.4,33 35.2,34.2 C26.9,36.6 19.2,40.8 10.8,42.9 C7.7,43.7 5.7,46.1 5,49.2 C2.6,59.7 5.1,69.3 9.9,78.6 C10.9,80.6 12.7,81.7 14.6,81.8 C18.7,82.1 23,84.1 26.8,83.3 C34.2,81.8 33.5,86.3 32.9,90.3 C31.3,101.1 34.3,112.1 32,122.9 C31.8,123.9 32,125 33,125.5 C35.2,126.7 35.1,128.8 34.9,130.7 C34.3,137.7 33.3,144.8 36.3,151.6 C39.3,158.4 38.1,165.6 38.7,172.6 C39.8,185.1 44.3,197.1 43.1,209.8 C43.1,210.1 43.3,210.5 43.5,210.7 C46.4,213.5 46.1,217.1 46,220.5 C45.9,225.4 48.6,228.4 53,228.6 C59.1,228.8 64.1,230.8 69.3,234 C76,238.1 85.6,233 87.2,225.4 C87.7,223.1 88.1,220.8 90.3,219 C92.4,217.3 93.1,214.1 92.7,211.7 C91,202.2 93.8,192.9 93.2,183.5 C93,181 93,177.7 94.8,176.4 C97.2,174.6 96.8,172.7 97.4,170.5 C98.1,167.8 97.9,164.1 101.1,162.9 C107,160.7 113.5,160.9 119.2,162.4 C122.4,163.2 121,168.9 121.3,172.4 L121.3,172.9 C124.4,185.4 125.2,198.3 126.2,211.1 C127,221.7 132.4,225.5 142.7,221.8 C144.4,229.1 145.9,230.4 153.8,231.6 C159.1,232.4 162.6,230 165.3,225.6 C169.7,218.5 165.2,210 169.3,202.5 C171.2,198.8 170.2,193.4 169,188.7 L169,188.7 Z M79.1,37.6 C78.6,39.9 78.3,42 75.7,42 C72.1,42.1 74,38.8 73.2,37.2 C72.3,35.4 73.6,34.2 75.6,33.9 C78.8,33.6 77.8,36.6 79.1,37.6 L79.1,37.6 Z M71,49 C71.8,46.2 73.5,45.3 76.5,46.4 C67.3,64.5 55.4,80.2 37.3,90.4 C43.1,82.7 50.5,76.6 57.2,69.9 C63.1,63.9 68.6,57.3 71,49 L71,49 Z M69.9,34.7 C69.9,35.7 69.2,36.2 68.3,35.6 C64,33 58.7,32.4 54.2,28.7 C56.6,27.9 69.1,30.9 70.2,32.1 C71.2,33.2 69.9,33.8 69.9,34.7 L69.9,34.7 Z M55.2,8.1 C61.6,15 68.1,21.9 76.3,26.9 C77.2,27.5 78.2,28.3 78.4,29.7 C71.5,29.4 65.2,27.2 59.6,23.6 C57.4,22.2 56.4,18.8 54.7,16.4 C52.2,12.8 49.6,9.2 46.9,5.3 C50.6,4.5 53.1,5.9 55.2,8.1 L55.2,8.1 Z M37.2,20.5 C36.1,17.9 35.3,15.3 34.3,12.3 C36.9,11.7 38.9,11.7 40.7,13.4 C41.8,14.4 42.8,15.6 44.2,13.4 C45.1,12 46.6,12.7 47.6,13.7 C48.5,14.6 49.4,15.6 50.2,16.7 C51.8,18.9 55.4,22.2 54.4,23.3 C51.7,26.4 48.7,29.8 44.3,30.9 C42.5,31.4 41.9,29.4 41.3,28.3 C39.7,25.9 38.4,23.2 37.2,20.5 L37.2,20.5 Z M8,58.2 C7.5,55.5 8.4,52.4 9.1,49.4 C9.9,46.1 14,44.9 15.8,47.4 C20.3,53.5 22.6,60.7 25.8,67.5 C26.4,68.7 25,69.1 24.1,69.4 C23,69.7 22,69 20.8,69.3 C9.4,71.5 8,70.2 8,58.2 L8,58.2 Z M29.6,79 C28.9,79.9 28,80 27,79.6 C23.5,79 19.9,78.4 16.4,77.8 C15.5,77.6 14.4,77.2 14.2,76.1 C14,74.7 15.4,74.7 16.2,74.4 C22.5,72 27.3,72.9 29.1,76.8 C29.4,77.5 30.2,78.2 29.6,79 L29.6,79 Z M34.5,78.7 C31.7,76.9 30.7,74.1 29.9,71.3 C27.4,63.1 23.6,55.5 19.9,47.8 C18.9,45.8 19.1,44.6 20.8,43.8 C23.4,42.5 22.7,45.2 23.2,46.2 C27.1,55 31.2,63.7 34.1,73 C34.5,74.7 35.5,76.3 34.5,78.7 L34.5,78.7 Z M30.4,53.8 C29.8,52.3 29.1,50.8 28.5,49.3 C25.5,41.9 25.8,41 33.5,38.3 C38.1,36.6 42.9,35.6 47.5,34 C49.5,33.3 53.9,31.6 56.9,34.8 C58,36 60.1,36.4 61.8,37.1 C71.4,41.3 71.6,41.7 66.4,51.2 C61.1,60.9 54.2,69.2 45.2,75.7 C43.3,77 41.8,78.8 39.9,80.5 C37.4,71.1 33.9,62.5 30.4,53.8 L30.4,53.8 Z M62.2,218.7 C61.7,220.9 63.3,223.9 60.1,224.8 C54.7,226.4 50.2,224.8 49.7,220.6 C49.1,215.3 47.3,210.2 47.9,204.8 C48.2,202.6 48,200.3 46.5,198.2 C50,197.7 53.1,198.5 56.1,197.1 C57.2,196.6 58.9,196.7 58.8,198.8 C58.2,205.7 63.7,211.6 62.2,218.7 L62.2,218.7 Z M87.7,214.4 C84.2,216.4 84.3,219.2 84.1,222.1 C83.6,228.8 76.5,233.3 70.4,230.6 C66.3,228.8 66.4,224.7 66,221.1 C65.5,215.6 65.1,210 64.7,204.4 C71,203 77.5,206.2 84,204.1 C85.3,203.7 88.6,202.7 88.9,205.6 C89.1,208.5 90.5,212.7 87.7,214.4 L87.7,214.4 Z M137.7,219 C133.6,220 131.2,217.9 130.1,214.6 C129.2,211.8 129.2,208.7 129,205.8 C128.9,204.6 128.2,202.7 129.8,202.4 C131.2,202.1 133.1,201.3 134.4,203 C135.5,204.4 137,205.6 138.4,203.7 C139.7,201.9 137.2,201.4 136.6,200.2 C136.4,199.8 136,199.3 135.5,199.2 C127.7,197.6 126.9,191.3 126.4,185.1 C125.8,178.1 123.4,171.2 124,163.7 C134.4,165 133.6,165.2 135.2,175.4 C136.3,182 136.9,189 139.7,195.4 C140,196.1 139.8,197 139.9,197.8 C140.2,202.7 139.1,207.6 141.7,212.4 C143.4,215.4 141.6,218.1 137.7,219 L137.7,219 Z M128.8,153.1 C130.4,154.1 133.1,153.4 133.7,155.3 C134.4,157.5 132.1,156.6 131.1,156.9 C128.6,157.6 127.7,156.3 127.3,154.2 C127.1,153 128.3,152.7 128.8,153.1 L128.8,153.1 Z M162.7,222.2 C161.9,225.7 158.8,228.3 154.5,228 C150.5,227.7 147.2,226.8 146.5,221.8 C145.8,217.3 146.6,212.6 144.4,208.2 C143.3,206 145.5,206.1 147,206.1 L164,206.1 C163.5,211.1 163.8,216.8 162.7,222.2 L162.7,222.2 Z M166,195.1 C166,196.6 166.1,198.1 166,199.6 C165.8,201.9 166.3,203.9 162.1,202.4 C158,200.9 152.9,201.8 148.2,202 C145.1,202.1 143.6,201.6 144,198 C144.3,195.2 144.2,192.8 141.7,190 C139.9,188 141.1,183.3 141,179.8 C144.5,178.7 147.8,178.7 151.2,179.8 C150.3,178.8 149.7,177.2 149.5,175.2 C149.5,176.7 148.9,177.8 147.4,178.4 C145.7,179.2 144.2,178.7 143,177.2 C142.8,177.5 142.8,175.4 142.4,177.1 C142.1,178.5 141.4,179.1 140,179.1 C137.8,175 139.9,170.3 137.9,166.1 C136.9,164 136.6,161.6 133.4,161.2 C137.1,161.1 138.4,159.3 137.9,156 C137.8,155.4 138,154.4 138.3,154.2 C145.5,150.8 142.5,145.2 141.7,139.9 C139.4,140.2 138.6,141.8 139.2,143.1 C140.5,145.6 138.3,146.8 137.8,148.5 C137.2,150.6 135.2,150.1 133.7,150 C131.9,149.9 132,148.3 131.9,147 C131.8,146 131.8,145 131.8,144 C131.8,142.4 131.7,140.5 129.6,141.1 C128.2,141.5 127.8,143 128.1,144.8 C129,149.6 128.2,150.4 123.8,149.8 C122.5,149.6 122.7,149.3 122.6,148.1 C122.3,145.5 121.3,143 120.5,140.5 C120.2,139.7 119.7,138.5 118.4,139 C117.4,139.4 116.5,140.4 117.2,141.3 C119.7,145.1 117.3,151.4 123.8,153.4 C125,153.8 125.2,157.3 126,159.8 C118.9,158.1 112.1,158 105.4,157.8 C102.7,157.7 100,158.2 97.6,159.2 C95.2,160.2 93.2,161.5 93.9,165.1 C94.7,169.5 94.2,169.6 90.4,171.5 C90,169.8 89.6,168.1 89.2,166.3 C88.9,165.1 88.3,164.6 87.1,164.8 C85.7,165.1 86,166.2 86.1,167.2 C86.2,167.7 86.6,168.1 86.7,168.6 C86.9,170.3 88,172.7 85.8,173.2 C83.8,173.6 81.7,172.2 81.1,169.7 C80.7,167.9 80.7,164.7 78.6,165.2 C75.5,165.9 77.6,168.7 77.9,170.6 C78.1,171.4 78.1,172.3 78.4,173 C78.7,173.9 79,174.6 77.7,174.8 C76.8,174.9 76,174.7 76,173.6 C75.9,171.6 76,169.6 75.9,167.6 C75.8,166.4 75.4,165.1 74,165.1 C72.6,165 72.9,166.6 72.6,167.4 C71.4,170.4 71.4,173.9 72.3,176.7 C73.6,180.9 78.4,179.6 80.3,178.4 C83.5,176.4 86.4,177.7 89.9,176.8 C89.1,180.2 89.4,183.3 90.1,186.2 C91.3,191 85.7,194.4 87.8,199.3 C88,199.9 86.2,200 85.3,200.2 C79.6,201.7 73.7,200.7 67.9,201 C66,201.1 64,200.2 61.8,203.1 C63.5,195 60.5,188.6 60.3,181.7 C60.1,173.8 59.5,165.4 58,157.4 C57.8,156.2 57.2,155 55.8,155.2 C54.6,155.4 54,156.7 54.2,158 C55.1,166.3 55.9,174.6 57,182.8 C57.5,186.4 55.4,189.9 56.6,193.8 C53.8,193.6 51,192 48.2,194.2 C46.7,195.4 45.3,194.1 45,192.1 C43.2,181.2 41.9,170.3 41.6,159.2 C41.5,154.6 41.4,149.6 38.6,145.4 C38.3,144.9 37.9,144 38.1,143.6 C40.3,138.5 38.6,133.2 37.8,128.5 C36.6,121.4 38,114.3 36.2,107.4 C35.4,104.4 36.6,101.2 36.8,98.1 C37,93.5 40.8,94 43.1,92.2 C55.2,82.4 66.9,72.2 74.1,57.9 C74.5,57 75,56.1 75.6,55.4 C79.2,51.1 82,46.5 81.2,40.5 C83.3,46.7 86,52.7 85.9,59.4 C85.9,61.9 85.5,64.3 88.3,66.4 C90,67.7 89.5,70.8 88.4,72.9 C84.7,79.7 88.8,85.9 89.9,92.3 C90.4,95 94,93.6 95.2,95.2 C99.5,100.7 104,98.3 108.5,96 C111.3,94.5 114.3,94.5 117.1,95.3 C125.8,97.9 134.7,97.9 143.6,98.1 C148.8,98.2 159,105.1 160.8,110 C161.1,110.8 161.3,111.7 161.1,112.4 C159.8,117.1 161.3,122.1 160.7,126.5 C160,131.9 163.6,135.7 163.3,140.4 C163.1,145.2 164.3,150.1 162.4,154.7 C162,155.8 162,156.5 162.8,157.4 C166.6,161.4 167.3,166.2 166,171.2 C163.9,179.1 165.8,187.1 166,195.1 L166,195.1 Z" id="Shape" sketch:type="MSShapeGroup"></path>
            <path d="M52.3,40 C45.2,39.8 40,44.4 40,50.7 C40,55.6 44.8,59.9 50.3,60 C56.6,60.1 60.8,55.8 61,49.1 C61.1,43.4 58,40.1 52.3,40 L52.3,40 Z M56.9,51.9 C55.9,54.9 53.9,56.5 50.2,55.6 C52.5,53.3 55.2,51.4 53.5,47.5 C51.9,43.9 49.3,46.3 46.7,45.8 C49.8,43.3 53.2,43 56,44.7 C58.3,46.2 57.7,49.4 56.9,51.9 L56.9,51.9 Z" id="Shape" sketch:type="MSShapeGroup"></path>
            <path d="M140,179.3 C142,176.6 140.5,173.5 140.9,170.7 C141,169.6 140.4,168.1 142.3,168.1 C143.8,168.1 143.9,169.4 144,170.7 C144,172.2 144.2,173.7 144.1,175.2 C144.1,176.5 144.1,177.6 145.9,177.3 C147.5,177 148.4,176.3 147.6,174.6 C146.6,172.5 147,170.4 147,168.2 C147,167.2 147.8,166.7 148.6,166.6 C149.6,166.5 149.9,167.4 150,168.3 C150.3,170.7 151,173.2 151,175.6 C151,178.7 152.4,179.7 155.2,179.2 C157.5,178.7 159.2,178.1 158.2,174.7 C157.6,172.8 154.9,169.1 158,168.2 C161.6,167.2 160.6,171.8 161.4,173.9 C162.1,175.7 164.8,178 161.5,179.8 C158.6,181.4 156,184.7 152.1,182.1 C150.1,180.8 147.8,180.3 146,181.3 C143.5,182.6 142.4,181 140.9,180 C140.6,179.7 140.3,179.5 140,179.3 L140,179.3 Z" id="Shape" sketch:type="MSShapeGroup"></path>
            <path d="M90.1,103.6 C91.5,102.2 88.6,98.7 91.6,98.3 C94.9,98 93.5,101.8 94.5,103.7 C94.9,104.5 94.9,105.7 94.9,106.6 C94.8,108.8 96.1,108.9 97.8,109 C99.5,109.1 100,108.3 100.2,106.7 C100.5,104.4 99.3,100.3 102.4,100.6 C106.3,100.9 103.5,104.9 103.8,107.2 C104.5,111.7 102.1,113.5 97.6,113.2 C94.2,113 90.9,112.2 87.4,112.6 C85.2,112.8 82.8,111.8 82.9,108.6 C82.9,107 82,105.4 82.1,103.8 C82.2,101.9 80.7,98.5 83.6,98.3 C86.5,98.1 84.5,101.4 85.1,103.1 C85.5,104.2 85.8,105.3 86,106.5 C86.3,108.3 87.4,109.2 89.2,108.9 C91.2,108.6 90.6,107.1 90.3,105.8 C90,105.2 90.1,104.5 90.1,103.6 L90.1,103.6 Z" id="Shape" sketch:type="MSShapeGroup"></path>
            <path d="M59.6,112 C53.2,112 49.8,108.3 50,101.7 C50,101 50.1,100.3 50.8,100.1 C51.9,99.8 52.7,100.1 53.1,101.3 C53.6,102.9 54.1,104.4 54.7,105.9 C55.2,107.3 56.1,108.2 57.7,107.9 C59.8,107.5 58.7,105.8 58.9,104.7 C59,104.4 58.9,104 58.9,103.7 C58.9,102.3 56.7,100.2 59.5,99.8 C62,99.5 61.9,101.9 61.9,103.8 C61.9,105.4 61.8,107.9 63.8,107.7 C65.8,107.5 65.6,105.2 65,103.3 C64.6,102 64.6,100.4 66.4,100.2 C68.4,99.9 68.7,101.4 68.9,103 C69.9,110.5 68.5,112 59.6,112 L59.6,112 Z" id="Shape" sketch:type="MSShapeGroup"></path>
            <path d="M145.2,130 C143.3,129.6 141,130.5 138.7,129.3 C135.6,127.8 133.7,123.7 135.2,120.8 C135.5,120.3 136.1,119.7 136.6,119.7 C137.2,119.6 137.9,120.1 137.9,120.9 C138,121.7 138,122.6 138,123.4 C137.9,125.4 139.6,125.5 140.7,125.6 C142.8,125.8 142,124.1 141.8,123.2 C141.5,122 141.2,120.7 142.7,120.4 C144.5,120 144.8,121.4 145,122.8 C145.1,123.4 145.1,124.2 145.5,124.7 C146.1,125.7 146.1,127.5 148.1,127 C149.8,126.6 149.4,125.5 149.2,124.3 C148.9,122.8 149.6,121.4 151,121.3 C152.6,121.2 152.7,123.1 153,124.2 C153.7,128.5 151.6,130.1 145.2,130 L145.2,130 Z" id="Shape" sketch:type="MSShapeGroup"></path>
            <path d="M151,151.5 C151.7,149.7 149.5,145.7 152.7,145.6 C155.2,145.5 153.5,149.5 153.9,151.6 C154.1,152.7 153.9,153.9 154.1,155 C154.4,156.2 155.2,157.1 156.6,157 C158.3,156.8 158.1,155.3 157.9,154.3 C157.5,152.6 156.8,150.9 156.3,149.2 C156,148 156.8,146.7 157.7,146.4 C159,146 159.7,147.1 159.9,148.4 C160.2,150.5 160.7,152.6 160.9,154.7 C161.3,157.9 161.9,161.1 156.9,161.4 C152,161.7 151.1,158.7 150.9,155 C150.9,153.8 151,152.8 151,151.5 L151,151.5 Z" id="Shape" sketch:type="MSShapeGroup"></path>
            <path d="M121,106.4 L121,105.4 C121.2,103.9 120.4,101.5 122.7,101.5 C124.6,101.5 124.3,104.1 124.7,105.5 C125,106.5 123.9,107.6 124.7,108.8 C125.4,109.8 126.3,109.9 127.3,109.8 C128.8,109.6 129.2,108.5 128.9,107.3 C128.5,105.9 127.9,104.5 127.4,103.1 C127,102.1 127.5,101.5 128.3,101.1 C129,100.7 130.2,100.5 130.5,101.2 C131.7,104.4 133,107.9 131.7,111.3 C130.8,113.7 128,113.9 125.7,113.9 C121.9,113.9 121,112.3 121,106.4 L121,106.4 Z" id="Shape" sketch:type="MSShapeGroup"></path>
            <path d="M105.7,145.1 C106.4,149 105.8,151.2 102.5,151.6 C99.5,152 96.6,151.4 95.3,148.6 C93.8,145.5 93.2,142 92.2,138.7 C91.9,137.7 92.3,137.1 93.3,137 C94.5,136.8 95.3,137.5 95.6,138.4 C96.2,140.4 96.4,142.6 97.1,144.6 C97.7,146.5 99.3,147.8 101.2,147.6 C103,147.3 102,145.4 102,144.2 C102,142.5 102.4,140.8 104.2,141.1 C107.1,141.8 105.5,144.5 105.7,145.1 L105.7,145.1 Z" id="Shape" sketch:type="MSShapeGroup"></path>
            <path d="M95.9,128.5 C96.1,131.5 96.2,134.2 92.5,134.2 C89.5,134.2 86.5,134.1 86.6,129.5 C86.7,126.6 85.8,123.7 85.2,120.7 C84.9,119.3 85.5,118.3 86.7,118 C88.1,117.6 88,119.2 88.4,119.9 C89.8,122.8 88.2,126.2 90.2,129 C90.7,129.7 90.9,130.7 91.9,130.4 C92.9,130.2 92.7,129.4 92.5,128.5 C92.1,126.7 90.9,124 94.2,124 C97.3,124.2 95.3,127.3 95.9,128.5 L95.9,128.5 Z" id="Shape" sketch:type="MSShapeGroup"></path>
            <path d="M66.6,182 C69.1,182.1 68.9,183.2 69,184.2 C69.1,187.5 68.6,190.8 70.2,193.9 C70.8,195 70.1,196.2 68.9,196.7 C68,197 67.4,196.4 67.1,195.5 C65.7,191.5 66,187.3 66.3,183.2 C66.2,182.6 66.7,182 66.6,182 L66.6,182 Z" id="Shape" sketch:type="MSShapeGroup"></path>
            <path d="M45.9,134.6 C46.8,132.5 47,130.1 47.3,127.7 C47.4,126.6 48.6,125.2 50.1,125.6 C51.5,126 51.2,127.6 50.8,128.6 C50,130.7 50,132.8 50,134.9 C50,136.6 49.3,137.9 47.5,137.9 C45.3,137.8 46.3,136 45.9,134.6 L45.9,134.6 Z" id="Shape" sketch:type="MSShapeGroup"></path>
            <path d="M78.9,192.1 C79.2,194.1 78.7,195.5 77.3,195.8 C75.7,196.1 75.1,194.7 75,193.2 C74.8,190.9 74.6,188.6 74.5,186.3 C74.5,185.3 74.7,184.2 76,184.1 C77.2,184 77.9,184.8 78,185.9 C78.1,188.2 77.8,190.5 78.9,192.1 L78.9,192.1 Z" id="Shape" sketch:type="MSShapeGroup"></path>
            <path d="M115.5,131.3 C110.9,129.1 111.5,124.7 110,121.5 C109.6,120.7 110.4,119.9 111.3,119.7 C112.2,119.5 112.9,120.1 113.2,120.9 C114.4,124.1 116.8,127 115.5,131.3 L115.5,131.3 Z" id="Shape" sketch:type="MSShapeGroup"></path>
            <path d="M158,192.4 C157.9,191.7 157.7,190.6 157.7,189.5 C157.7,188.6 158.3,188 159.3,188 C160.3,188 160.8,188.4 160.9,189.4 C161.1,191.4 161.4,193.3 161.7,195.3 C161.9,196.8 162.4,198.7 160.3,198.9 C158,199.1 157.9,197.2 157.9,195.5 C158,194.5 158,193.7 158,192.4 L158,192.4 Z" id="Shape" sketch:type="MSShapeGroup"></path>
            <path d="M62.9,167.3 C63.3,166.1 62.4,163.7 64.3,164.3 C68,165.3 66.6,169.2 67.5,171.8 C67.9,172.8 67.3,175.2 65.9,174.7 C62.7,173.4 63.6,169.9 62.9,167.3 L62.9,167.3 Z" id="Shape" sketch:type="MSShapeGroup"></path>
            <path d="M67,125.8 C67,126.8 67.1,127.3 67,127.8 C66.7,129.2 69.1,131.5 66.3,131.9 C63.8,132.2 63.9,129.8 63.9,127.9 C63.9,127.4 63.8,126.9 63.9,126.4 C64.4,124.4 62.5,120.7 65.7,120.7 C68.3,120.7 66.2,124.4 67,125.8 L67,125.8 Z" id="Shape" sketch:type="MSShapeGroup"></path>
            <path d="M53.9,145.3 C54.6,143.6 52.6,140.4 55.2,140.3 C58.3,140.2 56.9,143.6 56.9,145.5 C56.9,147.6 58.2,151.5 55.9,151.4 C52.5,151.4 54.6,147.5 53.9,145.3 L53.9,145.3 Z" id="Shape" sketch:type="MSShapeGroup"></path>
            <path d="M75,145.7 L75,142.4 C75,141.5 75.5,140.9 76.5,140.8 C77.5,140.8 78.1,141.3 78.2,142.2 C78.3,143.2 77.9,144.3 78.2,145.1 C79.1,147.4 79.5,150.4 76.8,150.5 C74,150.7 75.4,147.2 75,145.7 L75,145.7 Z" id="Shape" sketch:type="MSShapeGroup"></path>
            <path d="M151,193.6 C151,194.6 151.2,195.6 151.1,196.6 C151,197.7 150.2,198.7 149.1,198.1 C147,197.1 147.4,195 147.9,193.3 C148.3,191.5 146.9,189 149.6,188.2 C151.1,187.8 150.9,189.3 151,190.2 L151,193.6 L151,193.6 Z" id="Shape" sketch:type="MSShapeGroup"></path>
            <path d="M52,165 C52.1,167.2 51.9,169.3 49.7,169.9 C47.9,170.4 47.6,168.7 47.8,167.3 C48.2,165.1 48.1,162.1 50.7,161.7 C52.9,161.4 51.5,163.9 52,165 L52,165 Z" id="Shape" sketch:type="MSShapeGroup"></path>
        </g>
    </g>
</svg>