<?xml version="1.0" encoding="UTF-8" standalone="no"?>
<svg width="300px" height="23px" viewBox="0 0 300 23" version="1.1" xmlns="http://www.w3.org/2000/svg" xmlns:xlink="http://www.w3.org/1999/xlink" xmlns:sketch="http://www.bohemiancoding.com/sketch/ns">
    <!-- Generator: Sketch 3.2.2 (9983) - http://www.bohemiancoding.com/sketch -->
    <title>WarbyParker_Logo_new</title>
    <desc>Created with Sketch.</desc>
    <defs>
        <path id="path-1" d="M0,0.263 L300.012,0.263 L300.012,22.94 L0,22.94 L0,0.263 Z"></path>
    </defs>
    <g id="Page-1" stroke="none" stroke-width="1" fill="none" fill-rule="evenodd" sketch:type="MSPage">
        <g id="WarbyParker_Logo_new" sketch:type="MSLayerGroup">
            <mask id="mask-2" sketch:name="Clip 2" fill="white">
                <use xlink:href="#path-1"></use>
            </mask>
            <g id="Clip-2"></g>
            <path d="M290.634,11.716 L285.046,11.716 L285.046,3.685 L290.829,3.685 C293.526,3.758 295.492,5.317 295.5,7.865 C295.471,10.111 294.016,11.652 290.634,11.716 L290.634,11.716 Z M299.732,20.899 C298.056,18.659 295.549,15.342 294.456,13.889 C296.915,12.833 298.628,10.715 298.628,7.81 C298.621,4.072 295.549,0.785 290.894,0.785 L282.748,0.785 L282.691,0.77 C282.382,0.77 281.812,1.341 281.812,1.762 C281.803,2.119 281.803,21.134 281.812,21.57 C281.818,21.723 281.788,21.888 281.978,22.19 C282.224,22.522 282.588,22.54 282.748,22.54 L284.105,22.54 C284.18,22.54 284.468,22.562 284.818,22.217 C285.075,21.921 285.033,21.738 285.046,21.57 L285.046,14.555 L291.114,14.555 L296.635,22.04 C296.778,22.278 297.281,22.54 297.644,22.54 L298.967,22.54 C299.063,22.54 300.009,22.293 300.009,21.674 C300.04,21.381 299.817,20.994 299.732,20.899 L299.732,20.899 Z M273.019,20.737 C273.001,20.56 273.115,20.398 272.809,19.922 C272.467,19.636 272.245,19.636 272.07,19.636 C272.049,19.636 271.992,19.66 271.94,19.636 L260.47,19.636 L260.47,12.943 L271.723,12.943 C272.407,12.943 272.677,12.001 272.677,11.747 L272.677,11.127 C272.677,10.969 272.374,10.026 271.723,10.026 L260.5,10.026 L260.5,3.69 L271.85,3.69 C271.992,3.706 272.407,3.685 272.683,3.324 C272.89,2.97 272.874,2.787 272.882,2.586 L272.882,1.826 C272.827,1.649 272.919,1.438 272.677,1.057 C272.342,0.785 272.07,0.785 271.911,0.785 L258.064,0.785 C257.978,0.77 257.817,0.77 257.543,0.953 C257.188,1.289 257.305,1.563 257.289,1.612 L257.289,21.439 C257.305,21.634 257.205,21.817 257.437,22.129 C257.676,22.486 258.035,22.54 258.222,22.54 L272.07,22.54 C272.199,22.54 272.407,22.547 272.754,22.278 C273.104,21.888 273.009,21.674 273.019,21.491 L273.019,20.737 L273.019,20.737 Z M241.261,9.904 L248.293,2.247 C248.407,2.104 248.526,1.936 248.526,1.722 C248.477,1.136 248.033,0.785 247.5,0.785 L246.201,0.785 C245.762,0.74 245.314,1.048 245.19,1.136 L234.612,12.809 L234.612,1.801 C234.612,1.649 234.636,1.438 234.401,1.093 C234.138,0.794 233.771,0.785 233.612,0.785 L232.399,0.785 C232.25,0.785 231.964,0.785 231.647,1.039 C231.39,1.319 231.398,1.603 231.398,1.762 C231.39,2.04 231.39,21.366 231.398,21.588 C231.398,21.744 231.398,22.04 231.659,22.26 C231.916,22.498 232.225,22.54 232.442,22.54 L233.527,22.54 C233.716,22.522 233.954,22.547 234.328,22.309 C234.636,22.016 234.612,21.705 234.612,21.588 L234.612,17.136 L239.002,12.327 L246.487,21.921 C246.771,22.144 246.864,22.403 247.668,22.54 L249.09,22.54 C249.421,22.54 250.088,22.217 250.088,21.683 C250.081,21.375 249.986,21.231 249.866,21.073 L241.261,9.904 L241.261,9.904 Z M213.86,11.716 L208.233,11.716 L208.233,3.685 L214.003,3.685 C216.705,3.758 218.709,5.317 218.731,7.865 C218.7,10.111 217.242,11.652 213.86,11.716 L213.86,11.716 Z M217.673,13.889 C220.129,12.833 221.86,10.715 221.851,7.81 C221.851,4.072 218.804,0.785 214.075,0.785 L205.955,0.785 L205.924,0.77 C205.624,0.77 205.042,1.341 205.042,1.762 L205.042,21.57 C205.049,21.723 205.002,21.888 205.225,22.19 C205.469,22.522 205.835,22.54 205.955,22.54 L207.297,22.54 C207.354,22.54 207.683,22.562 208.017,22.217 C208.288,21.921 208.233,21.738 208.233,21.57 L208.233,14.555 L214.333,14.555 L219.882,22.04 C219.993,22.278 220.495,22.54 220.875,22.54 L222.145,22.54 C222.28,22.54 223.227,22.293 223.227,21.674 C223.24,21.381 223.024,20.994 222.939,20.899 C221.25,18.659 218.797,15.342 217.673,13.889 L217.673,13.889 Z M182.49,14.802 C183.471,12.907 185.612,8.659 187.043,5.659 C187.06,5.65 187.068,5.644 187.068,5.634 C187.098,5.65 187.106,5.659 187.13,5.686 C188.592,8.652 190.692,12.907 191.62,14.802 L182.49,14.802 L182.49,14.802 Z M187.988,0.858 C187.988,0.84 187.67,0.239 187.068,0.263 C186.499,0.239 186.203,0.858 186.203,0.858 C184.187,4.643 177.028,18.857 175.892,21.134 C175.796,21.238 175.72,21.381 175.72,21.723 C175.796,22.54 176.64,22.54 176.802,22.54 L177.87,22.54 C178.385,22.626 179.013,22.065 179.033,21.842 L181.165,17.634 L193.004,17.634 L195.155,21.927 C195.177,22.12 195.725,22.547 196.074,22.547 C196.09,22.547 196.115,22.547 196.136,22.54 L197.464,22.54 C197.703,22.54 198.473,22.278 198.473,21.714 C198.455,21.451 198.361,21.326 198.329,21.168 C197.057,18.61 189.925,4.731 187.988,0.858 L187.988,0.858 Z M164.981,11.765 C163.218,11.747 160.48,11.747 159.146,11.747 L159.146,3.69 L164.92,3.69 C167.539,3.758 169.574,5.183 169.574,7.722 C169.56,10.414 167.552,11.738 164.981,11.765 L164.981,11.765 Z M165.018,0.785 L156.917,0.785 L156.862,0.785 C156.75,0.77 156.439,0.794 156.208,1.048 C155.983,1.289 155.936,1.539 155.936,1.762 L155.936,21.57 C155.983,21.723 155.885,21.888 156.18,22.239 C156.457,22.54 156.734,22.54 156.854,22.54 L158.235,22.54 L158.267,22.54 C158.37,22.54 158.758,22.54 158.997,22.144 C159.203,21.817 159.125,21.683 159.146,21.57 L159.146,14.652 L164.411,14.652 C169.258,14.643 172.774,12.001 172.792,7.722 C172.774,3.422 169.091,0.785 165.018,0.785 L165.018,0.785 Z M131.443,0.785 L130.17,0.785 C129.75,0.764 129.29,1.176 129.172,1.444 C128.077,3.08 124.305,8.857 122.837,11.143 C121.36,8.823 117.6,3.001 116.504,1.359 C116.504,1.167 115.768,0.675 115.448,0.785 L114.321,0.785 C114.101,0.785 113.328,0.785 113.172,1.612 C113.186,1.89 113.29,2.03 113.328,2.119 C114.915,4.572 120.386,13.071 121.241,14.335 L121.241,21.524 C121.257,21.723 121.194,21.921 121.481,22.239 C121.685,22.498 121.998,22.54 122.157,22.54 L122.208,22.54 L123.399,22.54 C123.59,22.54 123.861,22.54 124.203,22.239 C124.48,21.863 124.417,21.659 124.417,21.451 L124.417,14.335 C125.266,13.096 130.548,4.945 132.265,2.223 C132.33,2.03 132.417,1.969 132.441,1.612 C132.384,0.828 131.552,0.785 131.443,0.785 L131.443,0.785 Z M100.111,19.66 L93.027,19.66 L93.027,12.992 L100.053,12.992 C103.122,13.038 104.689,14.405 104.716,16.379 C104.626,18.625 103.477,19.532 100.111,19.66 L100.111,19.66 Z M93.027,3.685 L99.174,3.685 C102.104,3.764 103.5,5.018 103.537,6.898 C103.371,9.309 102.682,10.026 99.692,10.151 L93.027,10.151 L93.027,3.685 L93.027,3.685 Z M104.794,11.271 C106.024,10.358 106.801,8.823 106.756,6.773 C106.756,2.906 103.175,0.785 98.97,0.785 L90.82,0.785 C90.675,0.785 90.374,0.785 90.073,1.023 C89.778,1.255 89.778,1.603 89.778,1.801 L89.778,21.57 C89.778,21.888 90.295,22.54 90.747,22.54 L100.34,22.54 C104.991,22.54 107.931,20.475 107.945,16.379 C107.945,14.103 106.715,12.214 104.794,11.271 L104.794,11.271 Z M72.223,11.716 L66.547,11.716 L66.547,3.69 L72.365,3.69 C75.019,3.758 77.015,5.317 77.064,7.865 C76.969,10.111 75.54,11.674 72.223,11.716 L72.223,11.716 Z M76.009,13.896 C78.462,12.833 80.208,10.715 80.208,7.81 C80.161,4.063 77.132,0.785 72.445,0.785 L64.278,0.785 C64.161,0.77 63.842,0.794 63.627,1.048 C63.399,1.289 63.374,1.539 63.374,1.762 L63.374,21.57 C63.374,21.723 63.318,21.888 63.532,22.181 C63.81,22.54 64.174,22.54 64.319,22.54 L65.601,22.54 L65.652,22.54 C65.771,22.54 66.041,22.54 66.349,22.239 C66.619,21.888 66.532,21.723 66.564,21.57 L66.564,14.588 L72.669,14.588 L78.214,22.04 C78.383,22.26 78.785,22.54 79.143,22.54 L80.486,22.54 C80.628,22.54 81.548,22.334 81.548,21.674 C81.563,21.375 81.327,20.984 81.253,20.899 C79.587,18.677 77.12,15.342 76.009,13.896 L76.009,13.896 Z M40.635,14.802 C41.572,12.907 43.73,8.659 45.199,5.659 C45.199,5.65 45.207,5.644 45.207,5.619 C45.214,5.65 45.233,5.659 45.247,5.686 C46.74,8.652 48.803,12.907 49.771,14.802 L40.635,14.802 L40.635,14.802 Z M46.098,0.858 C46.098,0.84 45.835,0.239 45.214,0.263 C44.645,0.239 44.303,0.858 44.303,0.858 C42.343,4.643 35.167,18.857 34.027,21.134 C33.938,21.238 33.827,21.381 33.827,21.723 C33.938,22.54 34.796,22.54 34.947,22.54 L36.018,22.54 C36.526,22.626 37.123,22.065 37.193,21.842 L39.239,17.634 L51.115,17.634 L53.242,21.927 C53.262,22.12 53.843,22.547 54.171,22.547 C54.191,22.547 54.232,22.547 54.249,22.54 L55.607,22.54 C55.835,22.54 56.588,22.278 56.588,21.714 C56.588,21.451 56.518,21.326 56.433,21.168 C55.2,18.61 48.08,4.731 46.098,0.858 L46.098,0.858 Z M29.723,0.785 L28.651,0.785 C28.384,0.7 27.55,1.082 27.55,1.438 L21.877,16.34 L16.359,1.326 C16.262,0.849 15.5,0.691 15.444,0.73 L15.358,0.73 C15.074,0.636 14.472,1.121 14.472,1.341 L9.128,16.352 C7.794,12.977 4.941,5.723 3.313,1.57 C3.245,1.24 2.773,0.74 2.27,0.785 L0.887,0.785 C0.798,0.785 0.667,0.77 0.367,0.898 C0.089,1.057 -0.015,1.438 0.002,1.588 C0.002,1.835 0.083,1.945 0.117,2.119 L8.164,22.418 C8.469,22.904 8.92,22.998 9.064,22.998 L9.128,22.998 C9.128,22.998 9.853,23.042 10.071,22.358 C11.603,18.143 14.183,11.191 15.419,7.89 C16.632,11.231 19.212,18.308 20.734,22.364 C20.833,22.849 21.624,23.017 21.71,22.998 C21.772,23.017 22.563,22.849 22.635,22.388 C25.333,15.629 28.563,7.484 30.65,2.119 C30.704,1.945 30.731,1.881 30.752,1.612 C30.752,0.898 29.808,0.785 29.723,0.785 L29.723,0.785 Z" id="Fill-1" fill="#FFFFFF" sketch:type="MSShapeGroup" mask="url(#mask-2)"></path>
        </g>
    </g>
</svg>